<?xml version="1.0" standalone="no"?>
<!DOCTYPE svg PUBLIC "-//W3C//DTD SVG 1.1//EN" "http://www.w3.org/Graphics/SVG/1.1/DTD/svg11.dtd" >
<svg xmlns="http://www.w3.org/2000/svg" xmlns:xlink="http://www.w3.org/1999/xlink" version="1.1" viewBox="0 0 256 256">
  <g transform="matrix(1 0 0 -1 0 204)">
   <path fill="currentColor"
d="M168 58q-1 0 -1 1q-5 6 -5 10q-1 0 0 3q2 4 4 10q2 30 1 57q-1 2 1 1q5 -4 5 -9q-2 -7 -1 -20q4 -1 8 1h3h11q0 17 2 32q1 6 1 11t-9 2q-14 -4 -27 -4q-3 0 0 1q12 1 28 9q4 2 1 0q3 2 6 1q10 -2 15 -7q2 -2 1 -4q-2 -2 -4 -2q-3 0 -6 -11q-2 -6 -3 -21q-1 -17 -1 -35
q2 2 8 7q6 4 9 7h1q-6 -7 -18 -19q0 -44 9 -57q1 -2 0 -4q-5 -2 -7 2q-9 9 -16 28q-1 3 1 1q4 -4 9 -8q3 -2 3 5q-1 2 -1 6q-2 14 -1 23q-15 -12 -34 -30q-4 -4 -12 -4q7 -8 15 -15q8 -10 25 -10q23 -2 56 -13q2 -1 2 -3h-3q-14 2 -26 3q-12 2 -25 3q-14 -1 -25 10
q-36 31 -64 70q-1 -52 2 -74q0 -16 7 -30q1 -2 -1 -3q-3 -2 -4 0q-11 11 -19 18q-10 4 -20 16q-5 5 2 2q11 -11 27 -15q2 -1 3 0q1 0 1 3q-3 37 -3 84h-2q-1 1 -2 1h-3q0 1 2 3q3 1 5 1v7q0 7 1 23q0 16 1 24q0 2 -2 1q-10 -4 -24 -10q-12 -6 -24 -2q-4 1 1 2q10 1 21 6l6 3
l15 6q6 1 8 7q1 4 7 2q4 -1 9 -6q5 -4 0 -7q-8 -2 -10 -10q-3 -21 -3 -43v-2v-1q16 11 30 25q2 2 1 3t-3 0q-6 -2 -1 2q12 10 22 5q3 -1 3 -4q-1 -2 -4 -3q-5 -2 -18 -12q-17 -14 -27 -19q17 -25 38 -45q7 1 22 14zM194 109q-1 0 -3 -1t-4 -1l-4 -2h-4q-5 -3 -2 0q2 3 -6 3
q0 -1 -1 -7v-19q-2 -15 2 -22l8 8q9 8 14 13v28zM84 104l6 -3q3 -4 0 -5q-4 -2 -5 -6q-20 -58 -67 -77q-3 -1 -4 0q0 1 3 3q44 22 62 77q0 2 -1 3t-3 0q-25 -10 -46 -14q-2 0 -2 1t2 3q9 2 31 8q8 2 12 4q4 1 6 4q1 4 6 2zM90 197q0 -1 2 -2q8 -5 16 -7q6 -4 7 -10
q0 -5 -3 -4q-7 0 -12 5q-6 9 -12 16q-4 3 2 2z" />
  </g>

</svg>
