<?xml version="1.0" encoding="UTF-8" standalone="no"?>
<!-- Created with Inkscape (http://www.inkscape.org/) -->

<svg
   xmlns:dc="http://purl.org/dc/elements/1.1/"
   xmlns:cc="http://creativecommons.org/ns#"
   xmlns:rdf="http://www.w3.org/1999/02/22-rdf-syntax-ns#"
   xmlns:svg="http://www.w3.org/2000/svg"
   xmlns="http://www.w3.org/2000/svg"
   xmlns:sodipodi="http://sodipodi.sourceforge.net/DTD/sodipodi-0.dtd"
   xmlns:inkscape="http://www.inkscape.org/namespaces/inkscape"
   version="1.1"
   id="svg2"
   width="512"
   height="512"
   viewBox="0 0 512 512"
   sodipodi:docname="弦.svg"
   inkscape:version="0.92.4 (5da689c313, 2019-01-14)">
  <metadata
     id="metadata8">
    <rdf:RDF>
      <cc:Work
         rdf:about="">
        <dc:format>image/svg+xml</dc:format>
        <dc:type
           rdf:resource="http://purl.org/dc/dcmitype/StillImage" />
        <dc:title></dc:title>
      </cc:Work>
    </rdf:RDF>
  </metadata>
  <defs
     id="defs6" />
  <sodipodi:namedview
     pagecolor="#ffffff"
     bordercolor="#666666"
     borderopacity="1"
     objecttolerance="10"
     gridtolerance="10"
     guidetolerance="10"
     inkscape:pageopacity="0"
     inkscape:pageshadow="2"
     inkscape:window-width="1366"
     inkscape:window-height="705"
     id="namedview4"
     showgrid="false"
     inkscape:zoom="1.3037281"
     inkscape:cx="259.52071"
     inkscape:cy="295.08134"
     inkscape:window-x="-8"
     inkscape:window-y="-8"
     inkscape:window-maximized="1"
     inkscape:current-layer="svg2" />
  <path
     style="fill:#000000;stroke:#000000;stroke-width:1px;stroke-linecap:butt;stroke-linejoin:miter;stroke-opacity:1"
     d="M 126.1017,121.62712 C 126.1017,121.62712 142.77966,120.94915 147.66102,130.71186 152.54237,140.47458 159.45763,143.05085 150.91525,152.54237 142.37288,162.0339 133.83051,169.76271 128.13559,178.30508 122.44068,186.84746 111.45763,198.23729 107.11864,204.20339 102.77966,210.16949 96.677966,219.38983 96.677966,219.38983 96.677966,219.38983 90.169492,226.57627 100.61017,225.62712 111.05085,224.67797 126.50847,224.54237 130.30509,224.94915 134.1017,225.35593 144,226.30508 148.0678,228.0678 152.13559,229.83051 155.52542,230.64407 136.81356,233.08475 118.1017,235.52542 113.22034,236.20339 103.59322,241.22034 93.966102,246.23729 84.20339,252.74576 78.372882,254.91525 72.542373,257.08475 67.661017,256.40678 64.542373,254.50847 61.423729,252.61017 59.525424,248.54237 61.423729,245.69491 63.322034,242.84746 71.050848,240.27119 68.745763,235.25424 66.440678,230.23729 64.949153,226.44068 68.745763,222.23729 72.542373,218.0339 79.593221,216.54237 83.932204,211.9322 88.271187,207.32203 101.69492,194.44068 105.35593,188.47458 109.01695,182.50847 118.64407,172.20339 120.67797,167.45763 122.71186,162.71186 132.88136,148.74576 133.69492,146.84746 134.50847,144.94915 137.22034,138.98305 130.84746,132.88136 124.47458,126.77966 122.29352,125.17663 122.29352,125.17663 122.29352,125.17663 118.5063,121.77293 122.24558,121.77293 125.98486,121.77293 126.1017,121.62712 126.1017,121.62712 Z"
     id="path12"
     inkscape:connector-curvature="0" />
  <path
     style="fill:#000000;stroke:#000000;stroke-width:1px;stroke-linecap:butt;stroke-linejoin:miter;stroke-opacity:1"
     d="M 179.10176,185.053 C 179.10176,185.053 179.29352,195.40792 170.47266,206.52987 161.6518,217.65182 151.29688,230.49959 146.11942,237.21111 140.94196,243.92264 138.83263,245.07318 134.23044,252.55174 129.62825,260.03029 124.45079,266.74181 121.76618,270.76872 119.08158,274.79564 111.41127,282.08243 122.1497,279.9731 132.88814,277.86376 142.66778,276.90497 149.76282,277.86376 156.85786,278.82255 160.69301,277.86376 165.2952,279.9731 169.89739,282.08243 180.63582,285.53407 164.33641,286.49286 148.037,287.45165 135.7645,291.2868 128.66946,293.39614 121.57443,295.50548 110.83599,293.77966 99.714041,302.79227 88.59209,311.80489 84.565177,323.31035 77.853655,319.66696 71.142133,316.02356 63.66358,309.31204 66.731704,299.72415 69.799829,290.13626 70.375102,288.21868 82.455842,283.80825 94.536581,279.39782 98.94701,278.05552 109.68545,264.63247 120.42388,251.20943 127.51892,242.77209 135.18923,230.49959 142.85954,218.22709 147.65348,212.09085 153.0227,204.03702 158.39192,195.98319 167.78805,184.66948 171.04793,182.56015 174.30781,180.45081 180.25231,177.7662 179.10176,185.053 Z"
     id="path14"
     inkscape:connector-curvature="0" />
  <path
     style="fill:#000000;stroke:#000000;stroke-width:1px;stroke-linecap:butt;stroke-linejoin:miter;stroke-opacity:1"
     d="M 168.13559,251.66102 C 168.13559,251.66102 180.74576,254.10169 182.50847,256.27119 184.27119,258.44068 184.94915,261.01695 186.0339,265.49152 187.11864,269.9661 189.83051,272.13559 189.42373,274.98305 189.01695,277.83051 187.66102,286.50847 183.32203,290.0339 178.98305,293.55932 169.89739,299.9159 165.2952,305.8604 160.69301,311.80489 150.33809,320.43399 145.16063,324.4609 139.98317,328.48781 129.4365,334.62406 123.10849,338.0757 116.78048,341.52734 109.68545,344.97898 103.93271,346.89656 98.179979,348.81414 80.730022,351.30699 97.029432,343.25316 113.32884,335.19933 118.12279,332.89824 124.06728,326.37848 130.01177,319.85871 142.66778,307.58622 145.73591,303.94282 148.80403,300.29942 152.83094,294.16317 154.94028,289.75274 157.04961,285.34231 161.46004,278.63079 162.99411,274.79564 164.52817,270.96048 166.06223,265.59126 164.71993,261.75611 163.37762,257.92095 163.52542,251.05085 165.76271,251.38983 168,251.72881 168.13559,251.66102 168.13559,251.66102 Z"
     id="path16"
     inkscape:connector-curvature="0" />
  <path
     style="fill:#000000;stroke:#000000;stroke-width:1px;stroke-linecap:butt;stroke-linejoin:miter;stroke-opacity:1"
     d="M 24.736753,387.35745 C 24.736753,387.35745 41.994952,386.01514 56.185027,383.13878 70.375102,380.26241 81.497053,378.15308 98.563495,373.55089 115.62994,368.9487 126.94364,366.26409 138.0656,366.83937 149.18755,367.41464 160.50125,364.92179 144.77712,372.97562 129.05298,381.02944 115.43818,387.16569 109.30193,390.23382 103.16568,393.30194 85.523966,396.56182 69.799829,406.72498 54.075692,416.88815 49.473505,420.33979 41.036163,414.39529 32.598821,408.4508 33.749368,402.69807 21.093355,400.20522 8.4373419,397.71237 7.8620686,385.63163 24.736753,387.35745 Z"
     id="path18"
     inkscape:connector-curvature="0" />
  <path
     style="fill:#000000;stroke:#000000;stroke-width:1px;stroke-linecap:butt;stroke-linejoin:miter;stroke-opacity:1"
     d="M 273.35593,143.45763 C 273.35593,143.45763 287.72881,138.57627 301.55932,142.64407 315.38983,146.71186 321.89831,150.77966 324.33898,155.11864 326.77966,159.45763 324.61017,164.61017 316.74576,166.23729 308.88136,167.86441 301.55932,167.32203 287.45763,160.54237 273.35593,153.76271 264.94915,150.77966 264.13559,148.61017 263.32203,146.44068 273.35593,143.45763 273.35593,143.45763 Z"
     id="path20"
     inkscape:connector-curvature="0" />
  <path
     style="fill:#000000;stroke:#000000;stroke-width:1px;stroke-linecap:butt;stroke-linejoin:miter;stroke-opacity:1"
     d="M 206.44068,205.76272 C 213.7538,207.03857 211.79661,208.13559 225.62712,205.69491 241.49697,202.89434 266.98305,198.77966 271.05085,198.23729 275.11864,197.69491 315.9322,191.72881 327.86441,190.64407 339.79661,189.55932 365.28814,185.22034 373.69492,184.13559 382.1017,183.05085 416.81356,179.52542 424.40678,180.33898 432,181.15254 451.52542,181.15254 455.32203,178.44068 459.11864,175.72881 451.87719,169.71238 465.49199,172.87638 479.10679,176.04038 496.54237,181.42373 499.52542,187.66102 502.50848,193.8983 503.86441,196.88136 497.35593,199.05085 490.84746,201.22034 480.27119,198.77966 474.0339,196.88136 467.79661,194.98305 447.18644,189.55932 432.54237,190.64407 417.89831,191.72881 396.20339,193.35593 381.28814,194.44068 366.37288,195.52542 329.76271,198.50847 322.98305,200.13559 316.20339,201.76271 295.32203,203.9322 285.01695,206.10169 274.71186,208.27119 262.50847,207.45763 245.69492,215.86441 228.88136,224.27119 224.81356,229.15254 212.0678,221.01695 199.32203,212.88136 192.40678,204.33898 197.9661,204.61017 203.52542,204.88136 203.95444,205.32896 206.44068,205.76272 Z"
     id="path22"
     inkscape:connector-curvature="0"
     sodipodi:nodetypes="sscscscscscssssssss" />
  <path
     style="fill:#000000;stroke:#000000;stroke-width:1px;stroke-linecap:butt;stroke-linejoin:miter;stroke-opacity:1"
     d="M 299.9322,213.42373 C 299.9322,213.42373 312.27119,214.23729 317.15254,219.79661 322.0339,225.35593 326.64407,232.54237 321.89831,238.23729 317.15254,243.9322 310.64407,250.0339 306.57627,253.28814 302.50848,256.54237 293.48527,265.30363 291.47181,267.98824 289.45836,270.67284 285.52732,275.27503 284.85617,276.71321 284.18502,278.1514 281.59629,281.50716 285.43144,282.08243 289.2666,282.65771 296.74515,284.76704 299.33388,286.97225 301.92261,289.17747 310.83935,293.20438 298.08746,294.83432 285.33556,296.46426 276.13119,297.71069 272.58367,297.80657 269.03615,297.90245 260.69469,298.09421 253.69553,299.53239 246.69637,300.97057 239.02606,299.43651 235.57442,295.21784 232.12278,290.99917 232.88981,287.93104 236.34145,283.71237 239.79309,279.4937 242.19007,277.00085 250.53153,277.86376 258.87299,278.72667 266.15979,281.41128 269.51555,276.90497 272.87131,272.39866 283.70562,260.12617 286.39023,256.38689 289.07484,252.64761 294.73169,240.66275 295.88224,235.77293 297.03279,230.88311 298.37509,225.51389 294.92345,221.00758 291.47181,216.50127 289.36248,213.14551 292.81412,213.14551 296.26576,213.14551 299.9322,213.42373 299.9322,213.42373 Z"
     id="path24"
     inkscape:connector-curvature="0" />
  <path
     style="fill:#000000;stroke:#000000;stroke-width:1px;stroke-linecap:butt;stroke-linejoin:miter;stroke-opacity:1"
     d="M 363.66102,226.98305 C 369.95683,227.70849 377.35823,226.87728 382.26912,230.88311 386.31772,234.18557 389.74767,240.08748 388.50125,245.26494 387.25482,250.4424 387.25482,254.75695 380.83093,259.16738 374.40705,263.57781 365.28814,270.91525 360.94915,276.33898 356.61017,281.76271 345.76271,291.66102 341.28814,296.13559 336.81356,300.61017 328.67797,307.25424 322.98305,312 317.28814,316.74576 308.47458,325.69491 304.81356,329.22034 301.15254,332.74576 300.00503,334.04879 300.00503,334.04879 300.00503,334.04879 279.29519,345.17074 305.75777,342.96552 332.22034,340.76031 346.0269,339.60976 350.34145,338.74685 354.656,337.88394 355.90194,338.3496 358.57627,337.62712 361.58104,336.81537 363.11864,335.45763 362.50848,337.76271 361.46858,341.69125 358.16949,343.52542 356,344.88136 353.83051,346.23729 349.01695,349.28814 345.35593,350.71186 341.69492,352.13559 333.28814,354.77966 328.20339,355.86441 323.11864,356.94915 308.88136,359.86441 302.0339,360.67797 295.18644,361.49153 274.77966,361.15254 267.32203,366.57627 259.86441,372 256.0678,375.05085 253.76271,377.42373 251.45763,379.79661 246.64407,383.05085 241.22034,379.32203 235.79661,375.59322 236.33898,373.28814 236.94915,366.0339 237.55932,358.77966 236.13559,356.13559 235.38983,353.62712 234.64407,351.11864 235.59322,346.50847 240.0678,343.52542 244.54237,340.54237 251.38983,339.59322 257.08475,340.27119 262.77966,340.94915 271.14549,343.15728 276.03531,337.88394 280.92514,332.6106 288.59545,327.52902 292.91,321.58453 297.22455,315.64004 299.90915,313.53071 305.66189,307.29858 311.41462,301.06645 318.03026,294.25905 323.87888,287.25989 329.72749,280.26073 335.32203,275.25424 340.20339,268.47458 345.08475,261.69491 349.01695,259.9322 352.27119,251.79661 355.52542,243.66102 357.00503,238.4096 357.53237,235.86881 358.0597,233.32802 357.86794,231.88983 356.90915,230.45165 355.95036,229.01347 355.95036,227.09589 358.10764,226.85619 360.26491,226.6165 361.82158,226.7711 363.66102,226.98305 Z"
     id="path26"
     inkscape:connector-curvature="0"
     sodipodi:nodetypes="sacscssccsssscccssccsccccssssccscs" />
  <path
     style="fill:#000000;stroke:#000000;stroke-width:1px;stroke-linecap:butt;stroke-linejoin:miter;stroke-opacity:1"
     d="M 358.77879,309.50379 C 358.77879,309.50379 373.54414,311.22961 386.00839,316.98235 398.47265,322.73508 404.41714,324.26914 410.74515,332.13121 417.07315,339.99328 419.75776,345.93777 421.48358,351.6905 423.2094,357.44324 425.31874,366.26409 425.12698,369.33222 424.93522,372.40034 421.8671,380.45417 407.67702,367.41464 393.48695,354.37511 387.15894,347.66359 382.17324,343.0614 377.18754,338.45922 365.49031,326.18672 359.92934,321.96805 354.36836,317.74938 350.72496,315.25653 349.95793,313.53071 349.1909,311.80489 346.88136,308.0339 352.77966,308.81356 358.67797,309.59322 358.77879,309.50379 358.77879,309.50379 Z"
     id="path28"
     inkscape:connector-curvature="0" />
</svg>
