<?xml version="1.0" encoding="UTF-8" standalone="no"?>
<!-- Created with Inkscape (http://www.inkscape.org/) -->

<svg
   xmlns:dc="http://purl.org/dc/elements/1.1/"
   xmlns:cc="http://creativecommons.org/ns#"
   xmlns:rdf="http://www.w3.org/1999/02/22-rdf-syntax-ns#"
   xmlns:svg="http://www.w3.org/2000/svg"
   xmlns="http://www.w3.org/2000/svg"
   xmlns:sodipodi="http://sodipodi.sourceforge.net/DTD/sodipodi-0.dtd"
   xmlns:inkscape="http://www.inkscape.org/namespaces/inkscape"
   version="1.1"
   id="svg2"
   width="512"
   height="512"
   viewBox="0 0 512 512"
   sodipodi:docname="牀.svg"
   inkscape:version="0.92.4 (5da689c313, 2019-01-14)">
  <metadata
     id="metadata8">
    <rdf:RDF>
      <cc:Work
         rdf:about="">
        <dc:format>image/svg+xml</dc:format>
        <dc:type
           rdf:resource="http://purl.org/dc/dcmitype/StillImage" />
        <dc:title></dc:title>
      </cc:Work>
    </rdf:RDF>
  </metadata>
  <defs
     id="defs6" />
  <sodipodi:namedview
     pagecolor="#ffffff"
     bordercolor="#666666"
     borderopacity="1"
     objecttolerance="10"
     gridtolerance="10"
     guidetolerance="10"
     inkscape:pageopacity="0"
     inkscape:pageshadow="2"
     inkscape:window-width="1366"
     inkscape:window-height="705"
     id="namedview4"
     showgrid="false"
     inkscape:zoom="0.65186406"
     inkscape:cx="377.3529"
     inkscape:cy="261.16579"
     inkscape:window-x="-8"
     inkscape:window-y="-8"
     inkscape:window-maximized="1"
     inkscape:current-layer="svg2" />
  <path
     style="fill:#000000;stroke:#000000;stroke-width:1px;stroke-linecap:butt;stroke-linejoin:miter;stroke-opacity:1"
     d="M 227.9322,61.288135 C 227.9322,61.288135 242.57627,65.220338 248.67797,66.711863 254.77966,68.203389 261.55932,70.508474 265.08475,71.864406 268.61017,73.220338 278.37288,75.661016 281.08475,81.491525 283.79661,87.322033 284.47458,93.016948 282.16949,100.61017 279.86441,108.20339 279.86441,109.15254 278.37288,110.91525 276.88136,112.67797 273.22034,113.22034 263.45763,104.13559 253.69492,95.050847 242.30509,89.762711 237.9661,87.322033 233.62712,84.881355 225.76271,78.508474 221.42373,73.627118 217.08475,68.745762 214.1017,63.999999 213.55932,62.915253 213.01695,61.830508 210.30509,55.864406 216.94915,58.305084 223.59322,60.745762 227.9322,61.288135 227.9322,61.288135 Z"
     id="path12"
     inkscape:connector-curvature="0" />
  <path
     style="fill:#000000;stroke:#000000;stroke-width:1px;stroke-linecap:butt;stroke-linejoin:miter;stroke-opacity:1"
     d="M 162.0339,131.25424 C 162.0339,131.25424 173.01695,131.38983 179.25424,129.8983 185.49153,128.40678 194.84746,127.05085 200,125.9661 205.15254,124.88136 221.01695,122.16949 228.33898,120.67797 235.66102,119.18644 247.86441,117.42373 254.50848,116.20339 261.15254,114.98305 277.15254,112.81356 285.28814,111.45763 293.42373,110.10169 308.88136,106.44068 315.66102,105.8983 322.44068,105.35593 335.32203,103.72881 342.64407,102.37288 349.9661,101.01695 356.20339,100.20339 360,99.254236 363.79661,98.305084 369.08475,95.322033 380.0678,98.305084 391.05085,101.28813 396.74576,101.9661 395.38983,106.71186 394.0339,111.45763 392.54237,113.08474 391.86441,113.49152 391.18644,113.8983 369.76271,115.9322 363.9322,115.11864 358.1017,114.30508 342.77966,114.57627 338.0339,115.38983 333.28814,116.20339 320,117.28813 309.9661,119.05085 299.9322,120.81356 293.28814,120.67797 282.44068,122.84746 271.59322,125.01695 260.0678,125.9661 250.84746,128.27119 241.62712,130.57627 226.71186,132.74576 220.74576,134.23729 214.77966,135.72881 205.60565,137.76319 198.23729,140.20339 197.54412,140.43295 196.88968,140.76757 196.20339,141.01695 193.61071,141.95906 190.16949,140.67797 188.33898,143.59322 186.50848,146.50847 182.57627,150.0339 180.67797,150.98305 178.77966,151.9322 175.45763,154.91525 169.9661,152.0678 164.47458,149.22034 161.83051,145.49152 159.72881,142.77966 157.62712,140.0678 158.23729,140.13559 154.77966,137.01695 153.05084,135.45762 151.41778,133.91748 149.99153,133.0678 148.79661,132.35593 147.88541,131.67484 148.27119,130.84746 148.66104,130.01136 149.93221,130.54237 151.12712,130.91526 152.56486,131.36391 154.27119,131.38983 155.25424,131.38983 157.22034,131.38983 162.0339,131.25424 162.0339,131.25424 Z"
     id="path14"
     inkscape:connector-curvature="0"
     sodipodi:nodetypes="ccccsccsssscssssccascccccssssc" />
  <path
     style="fill:#000000;stroke:#000000;stroke-width:1px;stroke-linecap:butt;stroke-linejoin:miter;stroke-opacity:1"
     d="M 156.63484,175.65761 C 156.63484,175.65761 166.50847,177.8983 170.71186,181.28813 174.91525,184.67797 178.84746,187.25424 179.25424,190.64407 179.66102,194.0339 177.5677,202.40708 175.84188,205.76284 174.11606,209.1186 156.47458,294.50847 152.94915,307.52542 149.42373,320.54237 146.98305,340.33898 142.1017,351.45763 137.22034,362.57627 114.71186,396.47458 104.94915,408.13559 95.186441,419.79661 61.016949,452.33898 46.915254,456.67797 32.813559,461.01695 25.503784,462.43062 21.860386,461.18419 18.216988,459.93777 15.244743,458.8831 19.75105,457.44491 24.257358,456.00673 40.173253,449.10345 48.322958,441.6249 56.472664,434.14634 81.084746,411.66102 92.474576,396.74576 103.86441,381.83051 116.88136,362.57627 122.84746,352.27119 128.81356,341.9661 137.29856,310.65434 142.28427,291.09505 147.26997,271.53575 150.72161,257.7292 153.40622,243.53912 156.09083,229.34904 158.39192,218.99413 160.11774,209.98151 161.84356,200.96889 165.67871,195.69556 162.22707,191.47688 158.77543,187.25821 153.59798,179.5879 153.59798,179.5879 153.59798,179.5879 150.30509,178.50847 149.01695,177.62712 147.72881,176.74576 152.61017,175.72881 154.30509,175.59322 156,175.45763 156.63484,175.65761 156.63484,175.65761 Z"
     id="path16"
     inkscape:connector-curvature="0"
     sodipodi:nodetypes="ccssscssccsssssscccsc" />
  <path
     style="fill:#000000;stroke:#000000;stroke-width:1px;stroke-linecap:butt;stroke-linejoin:miter;stroke-opacity:1"
     d="M 208.63246,213.04963 C 208.63246,213.04963 214.38519,215.15897 228.95878,210.55678 243.53237,205.9546 253.12026,203.46175 261.17408,200.96889 269.22791,198.47604 286.86963,193.29858 293.38939,191.57276 299.90915,189.84694 311.03111,188.12112 322.15306,185.62827 333.27501,183.13542 346.50629,180.35493 349.38266,180.16318 352.25903,179.97142 362.03867,173.83517 369.6131,176.04038 377.18754,178.2456 380.92681,178.72499 378.33808,185.72415 375.74935,192.72331 367.21613,194.06561 361.94279,195.21616 356.66946,196.36671 328.2893,202.50296 319.27669,205.18757 310.26407,207.87217 291.0883,212.66612 282.65096,214.96721 274.21361,217.26831 258.68123,221.87049 256.18838,223.02104 253.69553,224.17158 244.7788,221.77461 236.53321,228.10262 228.28763,234.43063 219.37089,232.70481 216.01513,230.49959 212.65937,228.29438 212.94701,226.08916 207.57779,223.50043 202.20857,220.9117 198.50848,219.05085 199.66102,215.86441 200.81356,212.67797 208.63246,213.04963 208.63246,213.04963 Z"
     id="path18"
     inkscape:connector-curvature="0" />
  <path
     style="fill:#000000;stroke:#000000;stroke-width:1px;stroke-linecap:butt;stroke-linejoin:miter;stroke-opacity:1"
     d="M 262.23729,136.81356 C 262.23729,136.81356 289.08475,143.86441 293.69492,148.47458 298.30509,153.08475 303.18644,154.71186 300.88136,164.20339 298.57627,173.69491 299.25424,183.86441 299.38983,188.61017 299.52542,193.35593 299.66102,211.11864 299.66102,214.91525 299.66102,218.71186 299.25424,226.30508 299.25424,230.50847 299.25424,234.71186 298.98305,255.18644 299.25424,260.20339 299.52542,265.22034 298.98305,274.98305 299.25424,281.62712 299.52542,288.27119 298.57627,302.37288 298.84746,309.42373 299.11864,316.47458 297.89831,342.23729 298.0339,347.25424 298.16949,352.27119 298.16949,362.57627 299.79661,365.55932 301.42373,368.54237 305.08475,371.11864 302.91525,379.25424 300.74576,387.38983 298.30509,395.79661 296.27119,400.54237 294.23729,405.28814 292.88136,408 290.30509,409.62712 287.72881,411.25424 279.72881,406.23729 276.74576,402.84746 273.76271,399.45763 268.33898,389.42373 265.35593,385.49153 262.37288,381.55932 257.49153,373.9661 254.64407,370.71186 251.79661,367.45763 249.89831,364.33898 247.59322,361.76271 245.28814,359.18644 243.66102,356.74576 243.9322,355.38983 244.20339,354.0339 249.76271,355.25424 251.79661,355.9322 253.83051,356.61017 259.79661,358.23729 262.64407,359.32203 265.49153,360.40678 268.61017,362.16949 272.13559,362.71186 275.66102,363.25424 280,363.52542 281.08475,361.08475 282.16949,358.64407 285.83051,348.74576 285.69492,340.47458 285.55932,332.20339 285.9661,314.44068 285.69492,309.28814 285.42373,304.13559 286.1017,279.32203 286.23729,274.44068 286.37288,269.55932 287.39696,264.96805 287.4449,263.09841 287.49284,261.22877 287.4449,245.64846 287.25314,241.42978 287.06138,237.21111 286.86963,236.06057 286.86963,228.77377 286.86963,221.48698 284.37678,197.3255 283.99326,190.80573 283.60974,184.28597 284.95205,177.28681 284.47265,174.31456 283.99326,171.34232 284.47265,167.69892 282.07568,163.86377 279.67871,160.02861 277.28174,158.68631 273.63834,156.57697 269.99494,154.46763 263.76281,152.16654 260.88645,150.82424 258.01008,149.48193 254.65432,147.94787 253.88729,146.22205 253.12026,144.49623 253.05085,141.86441 253.42373,140.77966 253.79661,139.69491 254.94915,135.69491 256.47458,135.8983 258,136.10169 262.23729,136.81356 262.23729,136.81356 Z"
     id="path20"
     inkscape:connector-curvature="0" />
  <path
     style="fill:#000000;stroke:#000000;stroke-width:1px;stroke-linecap:butt;stroke-linejoin:miter;stroke-opacity:1"
     d="M 163.76114,336.34988 C 163.76114,336.34988 172.96551,335.58285 182.16988,328.67957 191.37426,321.77629 201.72918,315.06477 207.48191,310.27082 213.23464,305.47688 224.16483,297.80657 232.21866,290.90329 240.27249,284.00001 247.75104,278.63079 255.03784,270.76872 262.32463,262.90665 270.37846,255.23634 272.87131,252.35998 275.36416,249.48361 277.66525,248.52482 280.54162,241.04627 283.41799,233.56772 285.91084,228.96553 285.91084,227.62322 285.91084,226.28092 290.51302,222.25401 290.12951,229.5408 289.74599,236.8276 290.12951,244.49791 289.74599,247.56603 289.36248,250.63416 289.17072,255.23634 288.97896,256.00338 288.7872,256.77041 286.86963,258.30447 284.56854,258.11271 282.26744,257.92096 279.39107,260.79732 273.63834,267.7006 267.50892,275.0559 261.94112,284.9588 258.29772,290.32802 254.65432,295.69723 244.2994,308.73676 241.42303,311.61313 238.54667,314.4895 220.7132,325.99496 214.7687,329.83012 208.82421,333.66527 192.33304,341.14383 185.04625,342.86965 177.75945,344.59547 167.97981,347.47183 163.37762,345.74601 158.77543,344.02019 157.83051,342.84746 157.28814,340.94915 156.74576,339.05085 156.94915,338.71186 157.49153,337.76271 158.0339,336.81356 159.45763,336.88136 160.94915,336.67797 162.44068,336.47458 163.76114,336.34988 163.76114,336.34988 Z"
     id="path22"
     inkscape:connector-curvature="0"
     sodipodi:nodetypes="cscsscssccccsscsssccsc" />
  <path
     style="fill:#000000;stroke:#000000;stroke-width:1px;stroke-linecap:butt;stroke-linejoin:miter;stroke-opacity:1"
     d="M 307.79661,234.16949 C 307.79661,234.16949 318.1017,240.40678 322.84746,242.71186 327.59322,245.01695 340.74576,253.83051 345.35593,256.81356 349.9661,259.79661 367.72881,271.72881 374.77966,276.61017 381.83051,281.49153 392.13559,289.08475 397.55932,291.79661 402.98305,294.50847 418.16949,304.27119 426.84746,306.44068 435.52542,308.61017 453.01695,313.22034 460.74576,314.98305 468.47458,316.74576 476.61017,318.50847 481.08475,319.32203 485.55932,320.13559 490.30509,321.49153 494.64407,321.8983 498.98305,322.30508 502.91526,322.16949 502.50848,323.38983 502.1017,324.61017 499.25424,326.23729 496.81356,327.59322 494.37288,328.94915 484.88136,331.38983 480.67797,332.0678 476.47458,332.74576 459.66102,332.61017 454.64407,332.47458 449.62712,332.33898 435.38983,332.33898 433.62712,332.0678 431.86441,331.79661 424.81356,331.52542 416.54237,334.10169 408.27119,336.67797 404.0678,338.0339 400.13559,334.77966 396.20339,331.52542 397.42373,329.49153 393.35593,327.45763 389.28814,325.42373 383.45763,320.94915 380.20339,318.23729 376.94915,315.52542 359.32203,299.9322 357.42373,297.62712 355.52542,295.32203 346.84746,284.74576 342.23729,281.22034 337.62712,277.69491 321.76271,265.35593 319.18644,263.45763 316.61017,261.55932 309.55932,255.05085 306.98305,253.01695 304.40678,250.98305 301.01695,249.62712 299.11864,247.86441 297.22034,246.10169 295.32203,241.76271 295.18644,237.42373 295.05085,233.08475 295.18644,229.42373 295.18644,228.33898 295.18644,227.25424 295.01933,224.84274 296.45751,226.28092 297.8957,227.7191 300.29267,229.92432 302.8814,231.45838 305.47013,232.99244 307.79661,234.16949 307.79661,234.16949 Z"
     id="path24"
     inkscape:connector-curvature="0" />
</svg>
