<?xml version="1.0" encoding="UTF-8" standalone="no"?>
<!-- Created with Inkscape (http://www.inkscape.org/) -->

<svg
   xmlns:dc="http://purl.org/dc/elements/1.1/"
   xmlns:cc="http://creativecommons.org/ns#"
   xmlns:rdf="http://www.w3.org/1999/02/22-rdf-syntax-ns#"
   xmlns:svg="http://www.w3.org/2000/svg"
   xmlns="http://www.w3.org/2000/svg"
   xmlns:sodipodi="http://sodipodi.sourceforge.net/DTD/sodipodi-0.dtd"
   xmlns:inkscape="http://www.inkscape.org/namespaces/inkscape"
   version="1.1"
   id="svg2"
   width="512"
   height="512"
   viewBox="0 0 512 512"
   sodipodi:docname="ç­.svg"
   inkscape:version="0.92.4 (5da689c313, 2019-01-14)">
  <metadata
     id="metadata8">
    <rdf:RDF>
      <cc:Work
         rdf:about="">
        <dc:format>image/svg+xml</dc:format>
        <dc:type
           rdf:resource="http://purl.org/dc/dcmitype/StillImage" />
        <dc:title></dc:title>
      </cc:Work>
    </rdf:RDF>
  </metadata>
  <defs
     id="defs6" />
  <sodipodi:namedview
     pagecolor="#ffffff"
     bordercolor="#666666"
     borderopacity="1"
     objecttolerance="10"
     gridtolerance="10"
     guidetolerance="10"
     inkscape:pageopacity="0"
     inkscape:pageshadow="2"
     inkscape:window-width="1366"
     inkscape:window-height="705"
     id="namedview4"
     showgrid="false"
     inkscape:zoom="0.65186406"
     inkscape:cx="165.30759"
     inkscape:cy="251.92891"
     inkscape:window-x="-8"
     inkscape:window-y="-8"
     inkscape:window-maximized="1"
     inkscape:current-layer="svg2" />
  <path
     style="fill:#000000;stroke:#000000;stroke-width:1px;stroke-linecap:butt;stroke-linejoin:miter;stroke-opacity:1"
     d="M 157.43313,57.534081 C 157.43313,57.534081 164.91168,59.835175 171.23969,64.437361 177.5677,69.039548 183.32043,72.874703 187.15559,78.435679 190.99074,83.996654 192.14129,84.571927 194.44238,89.365872 196.74347,94.159816 191.56601,99.720791 189.07316,101.0631 186.58031,102.4054 178.52649,105.85704 176.99242,110.07571 175.45836,114.29438 170.85617,124.07403 168.17157,129.05973 165.48696,134.04543 162.99411,138.64762 159.35071,143.05805 155.70731,147.46848 142.28427,163.19261 134.99747,168.75359 127.71068,174.31456 109.8772,188.88815 99.714041,188.12112 89.550879,187.35409 88.016817,186.77882 86.866271,185.62827 85.715724,184.47773 85.236329,184.5736 85.236329,182.94366 85.236329,181.31372 90.126153,178.62911 90.509668,177.7662 90.893184,176.90329 91.564336,176.71154 92.810761,169.71238 94.057187,162.71322 96.35828,163.00086 98.371737,163.76789 100.38519,164.53492 101.34398,167.60304 101.82338,168.37007 102.30277,169.1371 103.74095,171.82171 107.19259,169.04123 110.64423,166.26074 129.24474,151.49539 140.17493,137.68883 151.10512,123.88227 162.61059,105.09001 165.87047,99.337276 169.13035,93.584543 175.02691,85.626595 170.5206,79.250649 166.01429,72.874703 161.55592,68.176638 156.57022,63.957967 151.58452,59.739296 149.95458,56.958808 149.09167,56.191777 148.22876,55.424746 148.16949,54.57627 148.16949,54.406778 148.16949,54.237287 149.18644,54.271185 150.16949,54.847456 151.15254,55.423727 157.43313,57.534081 157.43313,57.534081 Z"
     id="path12"
     inkscape:connector-curvature="0" />
  <path
     style="fill:#000000;stroke:#000000;stroke-width:1px;stroke-linecap:butt;stroke-linejoin:miter;stroke-opacity:1"
     d="M 198.50848,104.0678 C 201.15409,103.58524 202.37288,106.50847 206.57627,104.0678 210.77966,101.62712 218.12447,98.474365 226.56181,95.50212 234.99915,92.529875 238.25903,90.899934 243.62825,89.557629 248.99747,88.215325 251.87383,87.927688 253.4079,87.544173 254.94196,87.160657 256.27119,84.305083 257.32203,82.77966 258.37288,81.254236 262.16949,79.254236 267.32203,81.152541 272.47458,83.050846 275.66102,84.135592 277.89831,85.898304 280.13559,87.661016 281.62712,90.644067 277.15254,93.084745 272.67797,95.525423 279.79661,97.016948 271.11864,97.559321 262.44068,98.101694 258.10596,99.241396 255.61311,99.912549 253.12026,100.5837 237.9661,105.35593 232.13559,107.11864 226.30509,108.88136 226.23729,109.83051 223.66102,109.83051 221.08475,109.83051 219.05085,109.08474 216.94915,110.57627 214.84746,112.0678 214.1017,115.38983 208.54237,114.91525 202.98305,114.44068 198.64407,113.49152 196.54237,110.71186 194.44068,107.9322 193.55932,106.71186 194.91525,105.42373 196.27119,104.13559 197.24907,104.29752 198.50848,104.0678 Z"
     id="path14"
     inkscape:connector-curvature="0"
     sodipodi:nodetypes="scssccscssscscccss" />
  <path
     style="fill:#000000;stroke:#000000;stroke-width:1px;stroke-linecap:butt;stroke-linejoin:miter;stroke-opacity:1"
     d="M 213.69492,127.45763 C 213.69492,127.45763 220.61017,125.83051 224.94915,129.62712 229.28814,133.42373 232.27119,137.35593 232.27119,139.79661 232.27119,142.23729 231.72881,148.33898 229.55932,152.27119 227.38983,156.20339 227.52542,159.45763 228.47458,165.42373 229.42373,171.38983 229.83051,175.86441 230.50848,176.67797 231.18644,177.49152 235.79661,177.8983 231.72881,182.37288 227.66102,186.84746 223.59322,189.28813 220.0678,188.74576 216.54237,188.20339 213.83051,189.15254 214.1017,184.27119 214.37288,179.38983 215.86441,178.44068 216.27119,170.44068 216.67796,162.98305 215.32203,164.74576 217.76271,157.69492 218.57627,149.9661 217.62712,147.9322 216.67797,144.81356 215.72881,141.69491 212.47458,133.69491 211.25424,131.66102 210.0339,129.62712 209.35155,127.90918 209.63918,127.47773 209.92682,127.04627 210.78973,127.23803 212.03616,127.38185 213.28258,127.52567 213.69492,127.45763 213.69492,127.45763 Z"
     id="path16"
     inkscape:connector-curvature="0"
     sodipodi:nodetypes="ccsccccsccccccsc" />
  <path
     style="fill:#000000;stroke:#000000;stroke-width:1px;stroke-linecap:butt;stroke-linejoin:miter;stroke-opacity:1"
     d="M 296.26576,27.811627 C 296.26576,27.811627 302.01849,27.044596 301.0597,30.879751 300.10091,34.714907 301.44322,37.016 305.66189,38.550062 309.88056,40.084124 313.14044,40.275882 316.01681,43.344006 318.89317,46.412131 323.87888,47.946193 326.37173,51.589591 328.86458,55.232988 331.74094,61.560995 330.78216,65.204392 329.82337,68.84779 327.90579,75.367554 326.17997,80.545014 324.45415,85.722474 319.85196,97.419698 318.12614,100.48782 316.40032,103.55595 311.60638,110.26747 308.73001,113.71911 305.85365,117.17075 300.10091,122.73172 297.60806,124.45754 295.11521,126.18336 290.51302,126.37512 287.25314,124.26579 283.99326,122.15645 284.56853,120.52651 284.18502,117.8419 283.8015,115.15729 283.8015,108.73341 285.6232,108.82929 287.4449,108.92516 288.69133,110.74686 289.84187,110.93862 290.99242,111.13038 291.47181,111.22626 292.52648,110.36335 293.58115,109.50044 296.74515,106.71995 297.60806,105.5694 298.47097,104.41886 306.0454,94.830968 307.67534,88.982356 309.30529,83.133744 311.70226,77.093374 311.89402,75.559312 312.08577,74.02525 313.81159,71.244762 313.14044,70.190094 312.46929,69.135426 311.12698,66.834333 310.45583,66.450818 309.78468,66.067302 305.08661,60.793963 303.45667,59.739296 301.82673,58.684628 294.82757,53.890684 292.81412,52.068985 290.80066,50.247286 289.55424,45.645099 289.2666,42.19346 288.97896,38.74182 289.17072,35.673695 290.41715,33.372602 291.66357,31.071509 292.14297,30.208599 293.58115,29.24981 295.01933,28.291021 296.26576,27.811627 296.26576,27.811627 Z"
     id="path18"
     inkscape:connector-curvature="0" />
  <path
     style="fill:#000000;stroke:#000000;stroke-width:1px;stroke-linecap:butt;stroke-linejoin:miter;stroke-opacity:1"
     d="M 330.5904,99.529033 C 330.5904,99.529033 341.13708,97.611456 347.27332,97.419698 353.40957,97.22794 360.31285,95.885636 370.0925,94.351574 379.87215,92.817511 385.62488,93.392785 388.88476,91.858723 392.14464,90.32466 393.29519,88.215325 398.47265,89.557629 403.65011,90.899934 412.27921,91.475207 414.5803,95.310362 416.8814,99.145518 420.52479,102.78892 419.18249,105.47352 417.84018,108.15813 415.53909,108.15813 411.89569,107.96638 408.2523,107.77462 399.04792,107.19934 392.52816,108.15813 386.00839,109.11692 375.26996,108.73341 372.01008,109.6922 368.75019,110.65098 361.84691,109.30868 353.98485,112.18505 346.12278,115.06141 341.32883,116.97899 338.26071,115.82844 335.19258,114.6779 335.95962,112.95208 331.16567,109.30868 326.37173,105.66528 323.87888,101.44661 326.56348,100.29606 329.24809,99.145518 330.5904,99.529033 330.5904,99.529033 Z"
     id="path20"
     inkscape:connector-curvature="0" />
  <path
     style="fill:#000000;stroke:#000000;stroke-width:1px;stroke-linecap:butt;stroke-linejoin:miter;stroke-opacity:1"
     d="M 313.08475,123.79661 C 313.08475,123.79661 320,124.0678 325.28814,128.40678 330.57627,132.74576 331.38983,133.28813 333.9661,137.76271 336.54237,142.23729 338.84746,146.71186 338.57627,149.01695 338.30509,151.32203 336.67797,154.57627 335.05085,155.79661 333.42373,157.01695 330.16949,157.28813 328.81356,159.72881 327.45763,162.16949 324.33898,169.22034 324.0678,172.0678 323.79661,174.91525 320.94915,185.35593 319.72881,187.9322 318.50848,190.50847 315.9322,195.25424 313.76271,197.83051 311.59322,200.40678 308.61017,203.66102 307.9322,204.47458 307.25424,205.28813 305.22034,206.64407 305.22034,206.64407 305.22034,206.64407 306.98305,202.16949 307.11864,200.27119 307.25424,198.37288 309.01695,188.47458 308.88136,185.35593 308.74576,182.23729 309.28814,177.35593 308.88136,173.69491 308.47458,170.0339 308.0678,166.64407 309.01695,161.76271 309.9661,156.88136 311.18644,150.10169 313.35593,145.8983 315.52542,141.69491 316.88136,139.52542 317.01695,138.0339 317.15254,136.54237 317.28814,135.05085 315.25424,133.15254 313.22034,131.25424 309.9661,128.94915 309.42373,127.86441 308.88136,126.77966 308.88136,123.79661 309.55932,123.66102 310.23729,123.52542 313.08475,123.79661 313.08475,123.79661 Z"
     id="path22"
     inkscape:connector-curvature="0" />
  <path
     style="fill:#000000;stroke:#000000;stroke-width:1px;stroke-linecap:butt;stroke-linejoin:miter;stroke-opacity:1"
     d="M 204.33435,222.85254 C 205.59546,225.09313 205.18082,228.1985 210.93355,226.85619 220.16661,222.88063 222.53096,223.37572 229.36939,221.73201 236.41503,220.03849 242.43847,218.22976 247.47192,216.73343 251.26614,215.6055 253.34232,214.99075 257.75147,214.21774 261.29429,213.59662 265.12503,213.77219 269.80318,212.47436 276.70646,210.36503 282.65096,209.02272 287.82842,206.91339 293.00587,204.80405 298.37509,203.26999 304.51134,202.3112 310.64759,201.35241 313.90747,201.54417 318.89317,202.3112 323.87888,203.07823 327.71403,203.6535 329.24809,205.57108 330.78216,207.48866 332.69973,201.16065 330.5904,199.43483 328.48106,197.70901 326.37173,196.75022 331.16567,193.87386 335.95962,190.99749 340.17829,186.77882 346.69805,190.61397 353.21782,194.44913 359.73758,199.05132 358.77879,202.50296 357.82,205.9546 355.90242,211.70733 351.68375,214.5837 347.46508,217.46006 344.78047,218.03534 343.24641,224.5551 341.71235,231.07486 338.45247,239.89572 337.68544,242.96385 336.9184,246.03197 335.19258,249.48361 334.61731,253.70228 334.04204,257.92095 331.16567,266.55005 331.16567,269.80993 331.16567,273.06982 330.20688,277.09673 330.39864,280.54837 330.5904,284.00001 331.54919,286.10935 332.12446,287.45165 332.69973,288.79395 333.46676,290.71153 332.12446,291.86208 330.78216,293.01262 327.71403,294.16317 325.79645,294.54669 323.87888,294.9302 321.9613,295.12196 319.46845,293.01262 316.9756,290.90329 313.14044,282.65771 313.3322,281.3154 313.52396,279.9731 313.14044,274.79564 312.56517,269.0429 311.98989,263.29017 312.56517,255.4281 314.29099,249.86713 316.01681,244.30615 319.27669,234.71826 320.42724,230.11608 321.57778,225.51389 324.07063,221.67873 322.92009,219.95291 321.76954,218.22709 320.04372,214.77545 316.78384,213.62491 313.52396,212.47436 301.82673,216.50127 297.79982,217.65182 293.77291,218.80237 285.52732,221.10346 280.92514,223.02104 276.32295,224.93862 263.47518,228.58201 258.48948,230.49959 253.50377,232.41717 238.54667,236.8276 236.05382,237.01936 233.56097,237.21111 232.98569,236.06057 228.38351,238.93693 223.78132,241.8133 221.09671,243.34736 217.64507,243.34736 214.19343,243.34736 206.33136,244.88142 203.83851,242.77209 201.34566,240.66275 197.70226,233.75947 196.74347,231.26662 195.78468,228.77377 194.8259,223.97983 195.40117,221.87049 195.97644,219.76116 198.27754,214.39194 201.34566,218.41885 204.41378,222.44576 203.13791,220.72685 204.33435,222.85254 Z"
     id="path24"
     inkscape:connector-curvature="0"
     sodipodi:nodetypes="scsssccssccssscscsssscccccscccssscsscscss" />
  <path
     style="fill:#000000;stroke:#000000;stroke-width:1px;stroke-linecap:butt;stroke-linejoin:miter;stroke-opacity:1"
     d="M 237.01695,199.79661 C 237.16605,202.86244 237.83051,204.74576 239.18644,206.37288 240.54237,208 242.44068,213.15254 245.69492,213.69491 248.94915,214.23729 259.25424,213.15254 261.15254,214.50847 263.05085,215.86441 269.01695,219.38983 267.66102,225.08475 266.30509,230.77966 263.05085,237.01695 261.9661,243.25424 260.88136,249.49153 256,265.76271 255.18644,271.18644 254.37288,276.61017 252.20339,283.11864 250.30509,293.9661 248.40678,304.81356 245.15254,315.66102 245.15254,321.62712 245.15254,327.59322 242.71186,338.16949 240.81356,346.0339 238.91525,353.8983 229.69492,376.94915 225.62712,386.44068 221.55932,395.9322 208.81356,431.72881 202.57627,442.30508 196.33898,452.88136 185.22034,468.33898 177.08475,475.9322 168.94915,483.52542 163.25424,488.13559 153.49153,493.83051 143.72881,499.52542 134.50847,503.86441 129.62712,504.94915 124.74576,506.0339 117.73927,506.72666 114.47939,506.91842 111.21951,507.11018 108.34314,507.78133 107.38435,507.11018 106.42556,506.43902 105.75441,506.15139 106.23381,505.57611 106.7132,505.00084 112.27418,502.41211 114.38351,501.26156 116.49285,500.11102 132.40874,491.0984 135.7645,488.41379 139.12026,485.72919 156.28258,471.15559 162.61059,464.06056 168.9386,456.96552 183.8957,439.13205 187.73086,430.6947 191.56601,422.25736 200.57863,404.23213 203.07148,396.94534 205.56433,389.65854 211.52542,370.98305 214.23729,362.57627 216.94915,354.16949 222.37288,333.55932 224.54237,325.15254 226.71186,316.74576 232.40678,291.79661 232.67797,286.91525 232.94915,282.0339 236.74576,267.11864 238.91525,259.25424 241.08475,251.38983 241.76271,245.01695 240.40678,239.05085 239.05085,233.08475 235.79661,220.33898 234.57627,218.30508 233.35593,216.27119 233.35593,213.01695 230.23729,209.35593 227.11864,205.69491 226.30509,204.61017 229.28814,200.27119 232.27119,195.9322 234.98305,194.44068 235.9322,196.0678 236.88136,197.69491 236.9653,198.73464 237.01695,199.79661 Z"
     id="path26"
     inkscape:connector-curvature="0"
     sodipodi:nodetypes="sscsscssscsssccsccccssscscssccccs" />
  <path
     style="fill:#000000;stroke:#000000;stroke-width:1px;stroke-linecap:butt;stroke-linejoin:miter;stroke-opacity:1"
     d="M 119.84861,291.47856 C 126.36222,291.82048 132.90138,292.51127 139.4079,292.05384 150.729,291.25793 163.37762,288.6022 172.96551,286.3011 182.5534,284.00001 203.26324,278.82255 213.61816,276.71321 223.97308,274.60388 270.64407,263.32203 293.15254,258.44068 315.66102,253.55932 346.84746,247.59322 362.57627,246.23729 378.30509,244.88136 395.38983,241.35593 396.33898,240.54237 397.28814,239.72881 404.47458,241.08475 407.18644,242.57627 409.89831,244.0678 415.59322,247.18644 416.40678,249.76271 417.22034,252.33898 419.38983,255.72881 415.32203,256.81356 411.25424,257.8983 400.94915,257.62712 396.61017,258.30508 392.27119,258.98305 358.37288,261.9661 352,263.32203 345.62712,264.67797 306.81243,268.85115 293.38939,271.53575 279.96635,274.22036 255.42135,279.58958 246.98401,281.50716 238.54667,283.42474 224.35659,284.57528 214.00167,287.25989 203.64675,289.9445 197.12699,292.82087 191.37426,293.77966 185.62152,294.73844 184.08746,294.54669 178.43061,296.7519 172.77375,298.95712 155.32379,302.98403 148.80403,309.31204 142.28427,315.64004 126.36837,314.68125 123.10849,311.42137 119.84861,308.16149 110.83599,300.49118 109.68545,296.84778 108.5349,293.20438 107.76787,291.19093 108.19932,290.23214 108.63078,289.27335 112.27418,290.75947 114.14381,291.04711 116.01345,291.33474 117.9442,291.37859 119.84861,291.47856 Z"
     id="path28"
     inkscape:connector-curvature="0"
     sodipodi:nodetypes="sassssccscccssscssscccs" />
  <path
     style="fill:#000000;stroke:#000000;stroke-width:1px;stroke-linecap:butt;stroke-linejoin:miter;stroke-opacity:1"
     d="M 115.52542,348.20339 C 115.52542,348.20339 120.40678,351.45763 124.20339,350.91525 128,350.37288 141.01695,346.30508 151.05085,343.86441 161.08475,341.42373 195.79661,333.55932 207.18644,331.66102 218.57627,329.76271 239.72881,327.32203 250.30509,325.15254 260.88136,322.98305 277.69492,319.18644 291.79661,317.28814 305.89831,315.38983 320,312.40678 329.22034,311.32203 338.44068,310.23729 340.47458,309.55932 341.76271,308.0678 343.05085,306.57627 344.81356,306.30508 348.54237,307.45763 352.27119,308.61017 353.60133,308.25737 358.68291,310.8461 363.76449,313.43483 365.1068,314.20186 367.50377,316.69471 369.90074,319.18756 371.05129,319.85871 372.10596,322.92684 373.16062,325.99496 373.2565,326.85787 370.95541,328.1043 368.65432,329.35072 364.05213,332.89824 361.55928,332.99412 359.06643,333.09 355.23127,333.09 351.10848,332.22709 346.98569,331.36418 341.0412,331.36418 335.95962,330.50127 330.87803,329.63836 325.02942,328.1043 315.63329,329.35072 306.23716,330.59715 287.82842,331.17242 279.19932,332.70648 270.57022,334.24055 253.88729,335.96637 243.91589,337.69219 233.94448,339.41801 213.04288,341.52734 202.30445,344.21195 191.56601,346.89656 194.3465,346.84862 191.13456,346.89656 187.92262,346.9445 183.99158,346.60892 181.30697,348.19092 178.62236,349.77293 168.54237,355.11864 163.52542,357.55932 158.50847,360 152.81356,363.25424 146.84746,366.10169 140.88136,368.94915 140.61017,373.15254 132.47458,368 124.33898,362.84746 116.87636,358.88142 114.67115,356.48445 112.46593,354.08748 111.79478,353.89572 110.54836,351.59462 109.30193,349.29353 109.11017,348.91002 109.30193,348.23886 109.49369,347.56771 109.49369,345.93777 110.93187,346.51304 112.37005,347.08832 115.52542,348.20339 115.52542,348.20339 Z"
     id="path30"
     inkscape:connector-curvature="0" />
</svg>
