<?xml version="1.0" encoding="UTF-8" standalone="no"?>
<!-- Created with Inkscape (http://www.inkscape.org/) -->

<svg
 xmlns:dc="http://purl.org/dc/elements/1.1/"
 xmlns:cc="http://creativecommons.org/ns#"
 xmlns:rdf="http://www.w3.org/1999/02/22-rdf-syntax-ns#"
 xmlns:svg="http://www.w3.org/2000/svg"
 xmlns="http://www.w3.org/2000/svg"
 xmlns:sodipodi="http://sodipodi.sourceforge.net/DTD/sodipodi-0.dtd"
 xmlns:inkscape="http://www.inkscape.org/namespaces/inkscape"
 version="1.1"
 id="svg2"
 width="512"
 height="512"
 viewBox="0 0 512 512"
 sodipodi:docname="圓.svg"
 inkscape:version="0.92.4 (5da689c313, 2019-01-14)">
<metadata
 id="metadata8">
<rdf:RDF>
<cc:Work
 rdf:about="">
<dc:format>image/svg+xml</dc:format>
<dc:type
 rdf:resource="http://purl.org/dc/dcmitype/StillImage" />
</cc:Work>
</rdf:RDF>
</metadata>
<defs
 id="defs6" />
<sodipodi:namedview
 pagecolor="#ffffff"
 bordercolor="#666666"
 borderopacity="1"
 objecttolerance="10"
 gridtolerance="10"
 guidetolerance="10"
 inkscape:pageopacity="0"
 inkscape:pageshadow="2"
 inkscape:window-width="1366"
 inkscape:window-height="705"
 id="namedview4"
 showgrid="false"
 inkscape:zoom="0.921875"
 inkscape:cx="349.34537"
 inkscape:cy="277.01991"
 inkscape:window-x="-8"
 inkscape:window-y="-8"
 inkscape:window-maximized="1"
 inkscape:current-layer="svg2" />
<path
 style="fill:#000000;stroke:#000000;stroke-width:1px;stroke-linecap:butt;stroke-linejoin:miter;stroke-opacity:1"
 d="M 158.20016,212.66612 C 165.90357,216.02688 172.85955,221.21449 178.91,227.04795 180.75061,228.82255 182.52107,230.82735 183.51219,233.1842 185.79351,238.60912 186.03039,244.75143 186.1968,250.63416 186.49822,261.28967 183.12867,282.46595 183.12867,282.46595 183.12867,282.46595 180.06055,309.31204 180.06055,319.85871 180.06055,330.40539 178.91,360.89488 178.91,360.89488 178.91,360.89488 177.75945,373.35913 174.49957,376.2355 171.23969,379.11186 170.51491,379.22317 168.36332,378.72835 165.01105,377.95739 162.61059,373.16737 161.46004,371.05804 160.3095,368.9487 160.54688,367.49081 160.69301,365.68882 161.05578,361.21548 164.14465,363.38773 164.71993,352.84105 165.2952,342.29437 164.33641,322.15981 164.33641,322.15981 164.33641,322.15981 166.44575,297.42305 166.44575,293.01262 166.44575,288.6022 166.08844,276.64864 165.87047,268.46763 165.64224,259.90167 167.46839,251.00827 165.10344,242.77209 163.18218,236.08113 154.55676,224.74686 154.55676,224.74686 L 150.33809,218.32297 C 150.33809,218.32297 149.23308,212.53045 151.201,211.13206 153.14794,209.74857 156.01099,211.71105 158.20016,212.66612 Z"
 id="path819"
 inkscape:connector-curvature="0"
 sodipodi:nodetypes="sasacscsscsscssaccas" />
<path
 style="fill:#000000;stroke:#000000;stroke-width:1px;stroke-linecap:butt;stroke-linejoin:miter;stroke-opacity:1"
 d="M 213.04288,198.38016 C 213.04288,198.38016 235.76618,193.58622 243.72413,190.90161 251.68208,188.217 264.43397,184.95712 269.13203,184.09421 273.8301,183.2313 282.2195,183.85451 283.03447,178.43736 283.84944,173.0202 285.15254,171.9322 285.15254,171.9322 285.15254,171.9322 284.47458,168 296.13559,170.98305 307.79661,173.9661 315.25424,177.62712 321.22034,180.47458 327.18644,183.32203 334.1017,186.84746 337.22034,189.55932 340.33898,192.27119 343.59322,194.0339 338.98305,200.40678 334.37288,206.77966 329.89831,206.91525 328.81356,217.76271 327.72881,228.61017 326.65239,241.51865 325.9661,253.42373 325.52622,261.05429 325.19184,268.69585 325.15254,276.33898 325.09721,287.09932 327.05085,299.79661 325.9661,308.61017 324.88136,317.42373 326.50848,332.47458 325.42373,343.05085 324.33898,353.62712 329.47869,370.05104 331.33391,381.14008 332.79427,389.86896 346.16327,418.62749 341.25431,423.27297 335.47662,428.74055 326.9924,414.35837 320.55603,408.98698 316.37062,405.4941 312.60014,401.50723 309.00782,397.40685 306.98432,395.09717 304.52899,392.27325 301.99443,389.29719 299.45987,386.32112 296.84609,383.19292 294.50569,380.27468 292.16529,377.35645 290.09827,374.64818 288.65726,372.51198 287.21625,370.37579 285.7395,369.55605 286.56483,368.18173 287.59427,366.46752 290.59339,367.58037 292.55895,367.94758 295.73258,368.54048 298.43014,370.64694 301.44789,371.79441 305.24089,373.23666 309.75078,378.02119 313.0103,375.60406 315.68323,373.62192 313.12189,367.55717 312.7743,365.62381 312.42672,363.69046 312.11565,354.51361 311.7986,352.83517 309.44473,340.37405 310.84351,331.49083 310.50848,320.81356 310.00372,304.72702 309.71947,288.63411 309.42373,272.54237 309.19116,259.88785 308.78749,247.23258 308.88136,234.57627 308.95044,225.26184 308.0678,213.69491 309.69492,206.64407 311.32203,199.59322 307.9322,190.91525 301.01695,189.01695 294.1017,187.11864 292.88136,184.54237 282.57627,191.05085 272.27119,197.55932 261.01695,199.32203 253.42373,203.38983 245.83051,207.45763 238.89283,212.75016 230.77966,215.45763 222.14494,218.33914 212.39855,222.63896 203.79661,219.66102 197.02726,217.31751 187.65623,210.93771 189.15254,203.9322 189.95212,200.18868 194.71186,197.55932 199.72881,199.45763 204.74576,201.35593 213.04288,198.38016 213.04288,198.38016 Z"
 id="path823"
 inkscape:connector-curvature="0"
 sodipodi:nodetypes="cssscsccssaacsssassssaaaassaaaccssaaasc" />
<path
 style="fill:#000000;stroke:#000000;stroke-width:1px;stroke-linecap:butt;stroke-linejoin:miter;stroke-opacity:1"
 d="M 204.0678,263.72881 C 210.12229,262.66314 211.9322,261.69491 221.69492,258.30508 231.45763,254.91525 232.09388,254.11259 237.55932,253.01695 242.35857,252.05486 247.61511,250.22749 252.20339,251.9322 255.6786,253.22336 263.72881,256.54237 260.0678,259.79661 256.40678,263.05085 249.49153,269.42372 245.9661,271.72881 242.44068,274.03389 230.91525,277.9661 228.20339,278.91525 225.49153,279.86441 217.93231,280.17109 213.15254,278.64407 208.35188,277.11037 202.84746,271.45763 200.67797,270.10169 198.50847,268.74576 195.52542,264.13559 198.64407,264 201.76271,263.86441 202.28504,264.0426 204.0678,263.72881 Z"
 id="path825"
 inkscape:connector-curvature="0"
 sodipodi:nodetypes="sssasssacss" />
<path
 style="fill:#000000;stroke:#000000;stroke-width:1px;stroke-linecap:butt;stroke-linejoin:miter;stroke-opacity:1"
 d="M 201.53742,331.93945 C 210.16876,329.37031 216.11101,325.41969 225.89065,320.24223 235.6703,315.06477 247.75104,308.545 256.18838,310.65434 264.62572,312.76368 269.80318,315.06477 268.07736,317.94114 266.35154,320.8175 265.37247,322.36351 263.47518,324.07738 258.32598,328.72876 247.36753,334.4323 245.64171,334.81582 243.91589,335.19933 232.52805,342.98983 225.12362,344.59547 218.0637,346.1264 210.48314,345.88271 203.455,344.21195 197.72542,342.84989 187.68119,342.42918 187.5391,336.54164 187.47768,333.99682 191.82959,333.68468 194.25062,332.89824 196.58064,332.14136 199.18936,332.63836 201.53742,331.93945 Z"
 id="path827"
 inkscape:connector-curvature="0"
 sodipodi:nodetypes="ssscasaaaas" />
<path
 style="fill:#000000;stroke:#000000;stroke-width:1px;stroke-linecap:butt;stroke-linejoin:miter;stroke-opacity:1"
 d="M 141.55932,396.74576 C 141.55932,396.74576 162.44068,394.57627 165.15254,394.30508 167.86441,394.0339 181.9661,391.18644 187.38983,389.55932 192.81356,387.9322 226.0339,378.98305 237.69492,376.13559 249.35593,373.28814 268.33898,368.81356 277.01695,366.91525 285.69492,365.01695 292.0678,362.30508 299.38983,364.74576 306.71187,367.18644 310.50848,367.72881 313.62712,370.30508 316.74576,372.88136 321.21588,373.55593 320.67797,376.67797 320.13782,379.813 318.37288,379.79661 311.86441,380.33898 305.35593,380.88136 293.83051,379.66102 289.62712,380.33898 285.42373,381.01695 276.88136,383.86441 270.37288,385.76271 263.86441,387.66102 246.77966,391.18644 240.40678,392.81356 234.0339,394.44068 218.84746,397.69492 213.83051,399.45763 208.81356,401.22034 201.62712,403.52542 196.33898,405.42373 191.05085,407.32203 179.38983,409.22033 176.54237,409.8983 173.69492,410.57626 167.18644,411.11864 164.88136,414.91525 162.57627,418.71186 153.89831,420.61017 148.33898,417.22034 142.77966,413.83051 137.76271,407.05085 136.40678,404.0678 135.05085,401.08475 135.09342,398.55403 136.81356,396.88136 137.94815,395.77808 141.55932,396.74576 141.55932,396.74576 Z"
 id="path829"
 inkscape:connector-curvature="0"
 sodipodi:nodetypes="ccsscscacccsscscssac" />
<path
 style="fill:#000000;stroke:#000000;stroke-width:1px;stroke-linecap:butt;stroke-linejoin:miter;stroke-opacity:1"
 d="M 127.72881,493.01695 C 127.72881,493.01695 138.57627,484.61017 148.88136,474.57627 159.18644,464.54237 167.59322,455.86441 171.11864,450.71186 174.64407,445.55932 181.42373,437.69492 182.50847,430.10169 183.59322,422.50847 192.27119,414.37288 197.69492,424.40678 203.11864,434.44068 210.98305,447.45763 202.30509,456.13559 193.62712,464.81356 172.74576,482.71186 165.69492,487.05085 158.64407,491.38983 142.28427,502.89151 137.10681,502.31623 131.92935,501.74096 125.50546,500.68629 123.68376,499.53574 121.86206,498.3852 121.57443,497.33053 127.72881,493.01695 Z"
 id="path831"
 inkscape:connector-curvature="0" />
<path
 style="fill:#000000;stroke:#000000;stroke-width:1px;stroke-linecap:butt;stroke-linejoin:miter;stroke-opacity:1"
 d="M 273.44658,429.16064 C 278.43536,431.08829 282.59024,433.48179 288.02017,435.87216 293.4501,438.26253 300.11615,440.7411 306.0454,443.4466 313.40524,446.80487 321.20471,449.51421 327.80991,454.18503 333.60418,458.2824 338.96447,463.24691 343.05465,469.04626 347.51373,475.36866 351.71539,482.47088 352.73842,490.13961 353.38107,494.95701 352.93018,502.60387 350.34145,504.52145 347.75272,506.43902 344.78047,506.82253 341.90411,505.67199 339.02774,504.52144 332.00397,499.16546 327.52227,495.31707 320.38953,489.19225 314.26824,481.97796 307.77122,475.18251 302.4581,469.62533 297.45119,463.77657 292.04709,458.30782 286.6131,452.80882 279.84809,446.5848 275.26828,442.29605 270.68847,438.0073 264.52984,434.62574 264.62572,432.5164 264.72159,430.40707 264.77454,428.95959 266.06391,428.10597 267.61527,427.07891 270.37846,428.10598 271.62488,428.58537 272.87131,429.06477 272.85259,428.93112 273.44658,429.16064 Z"
 id="path833"
 inkscape:connector-curvature="0"
 sodipodi:nodetypes="szsaaassaaazsass" />
<path
 style="fill:#000000;stroke:#000000;stroke-width:1px;stroke-linecap:butt;stroke-linejoin:miter;stroke-opacity:1"
 d="M 238.91525,29.559321 C 238.91525,29.559321 255.18644,45.288135 258.44068,59.932203 261.69492,74.57627 267.38983,80.271186 256.81356,89.220338 246.23729,98.169491 221.55932,118.23729 212.61017,126.91525 203.66102,135.59322 194.71186,142.91525 191.72881,146.98305 188.74576,151.05085 175.55424,160.22037 193.38771,155.61818 211.22119,151.01599 239.88897,144.78387 245.25819,143.82508 250.62741,142.86629 270.57022,138.16822 275.26828,137.30531 279.96635,136.4424 301.42373,131.38983 306.0339,129.8983 310.64407,128.40678 319.75608,125.22457 325.02942,125.03282 330.30276,124.84106 342.57526,129.635 341.80823,131.55258 341.0412,133.47016 341.23295,133.47016 332.79561,136.63416 324.35827,139.79817 318.98905,140.5652 309.40116,143.92096 299.81328,147.27672 279.39107,152.07066 271.81664,153.79648 264.24221,155.5223 262.32463,155.71406 251.96971,158.39867 241.61479,161.08328 222.43902,166.16486 213.71404,168.37007 204.98906,170.57529 187.5391,176.90329 177.47182,179.49202 167.40453,182.08075 156.1867,183.90245 148.22876,185.62827 140.27081,187.35409 127.32716,189.27167 118.9857,190.23046 110.64423,191.18925 93.386035,197.51725 89.071485,199.1472 84.756935,200.77714 73.634984,201.73593 68.649282,197.99665 63.66358,194.25737 60.787214,188.217 60.403698,182.46427 60.020183,176.71154 60.403698,170.57529 63.66358,167.60304 66.923462,164.6308 71.046254,162.61734 73.251469,162.04207 75.456683,161.46679 83.318752,163.67201 88.687969,167.12365 94.057187,170.57529 100.19344,172.49287 107.38435,170.38353 114.57527,168.27419 142.18839,165.58959 147.46173,163.38437 152.73507,161.17916 153.98149,164.05552 162.41883,153.7006 170.85617,143.34568 176.80067,137.97647 183.12867,130.30616 189.45668,122.63584 197.79814,114.29438 203.83851,106.33643 209.87888,98.378487 209.49537,100.48782 213.61816,94.063937 217.74095,87.640051 227.0412,76.997495 229.24642,73.16234 231.45163,69.327184 236.1497,64.053845 233.27333,53.986562 230.39696,43.919279 229.34229,34.235512 227.13708,30.879751 224.93187,27.52399 223.68544,26.565201 225.02775,23.497077 226.37005,20.428952 226.46593,20.62071 226.46593,20.62071 226.46593,20.62071 228.57526,17.744344 233.75272,23.784713 238.93018,29.825083 238.91525,29.559321 238.91525,29.559321 Z"
 id="path1403"
 inkscape:connector-curvature="0" />
<path
 style="fill:#000000;stroke:#000000;stroke-width:1px;stroke-linecap:butt;stroke-linejoin:miter;stroke-opacity:1"
 d="M 307.52542,99.79661 C 307.52542,99.79661 331.11864,106.0339 344.94915,110.64407 358.77966,115.25424 367.45763,116.33898 379.11864,122.30508 390.77966,128.27119 402.98305,133.69491 407.05085,141.55932 411.11864,149.42373 411.66102,154.30508 395.11864,154.84746 378.57627,155.38983 362.57627,148.33898 351.72881,142.10169 340.88136,135.86441 321.35593,125.28813 315.38983,119.86441 309.42373,114.44068 303.45763,110.37288 299.38983,106.30508 295.32203,102.23729 293.67703,100.39194 294.2523,98.186729 294.82757,95.981514 296.45751,97.036182 301.25146,98.378487 306.0454,99.720791 307.52542,99.79661 307.52542,99.79661 Z"
 id="path1405"
 inkscape:connector-curvature="0" />
</svg>
