<?xml version="1.0" encoding="UTF-8" standalone="no"?>
<!-- Created with Inkscape (http://www.inkscape.org/) -->

<svg
   xmlns:dc="http://purl.org/dc/elements/1.1/"
   xmlns:cc="http://creativecommons.org/ns#"
   xmlns:rdf="http://www.w3.org/1999/02/22-rdf-syntax-ns#"
   xmlns:svg="http://www.w3.org/2000/svg"
   xmlns="http://www.w3.org/2000/svg"
   xmlns:sodipodi="http://sodipodi.sourceforge.net/DTD/sodipodi-0.dtd"
   xmlns:inkscape="http://www.inkscape.org/namespaces/inkscape"
   version="1.1"
   id="svg2"
   width="512"
   height="512"
   viewBox="0 0 512 512"
   sodipodi:docname="夕.svg"
   inkscape:version="0.92.4 (5da689c313, 2019-01-14)">
  <metadata
     id="metadata8">
    <rdf:RDF>
      <cc:Work
         rdf:about="">
        <dc:format>image/svg+xml</dc:format>
        <dc:type
           rdf:resource="http://purl.org/dc/dcmitype/StillImage" />
        <dc:title></dc:title>
      </cc:Work>
    </rdf:RDF>
  </metadata>
  <defs
     id="defs6" />
  <sodipodi:namedview
     pagecolor="#ffffff"
     bordercolor="#666666"
     borderopacity="1"
     objecttolerance="10"
     gridtolerance="10"
     guidetolerance="10"
     inkscape:pageopacity="0"
     inkscape:pageshadow="2"
     inkscape:window-width="1366"
     inkscape:window-height="705"
     id="namedview4"
     showgrid="false"
     inkscape:zoom="0.4609375"
     inkscape:cx="811.33028"
     inkscape:cy="400.84443"
     inkscape:window-x="-8"
     inkscape:window-y="-8"
     inkscape:window-maximized="1"
     inkscape:current-layer="svg2" />
  <path
     style="fill:#000000;stroke:#000000;stroke-width:1px;stroke-linecap:butt;stroke-linejoin:miter;stroke-opacity:1"
     d="M 343.24641,62.519784 C 343.24641,62.519784 361.65516,74.792281 365.87383,81.695561 370.0925,88.598841 376.22875,89.749387 369.70898,102.78892 363.18922,115.82844 353.98485,134.23719 346.31454,143.82508 338.64422,153.41297 332.89149,162.23382 323.68712,171.4382 314.48275,180.64257 309.88056,185.62827 302.59376,190.99749 295.30697,196.36671 283.41799,201.73593 277.66525,202.88647 271.91252,204.03702 260.69469,211.13206 272.77543,197.99665 284.85617,184.86124 282.4592,187.25821 286.39023,181.60136 290.32127,175.94451 294.92345,171.05468 305.47013,156.86461 316.01681,142.67453 327.33052,131.74434 332.69973,119.08833 338.06895,106.43231 342.8629,93.201027 339.60301,83.421381 336.34313,73.641734 335.38434,65.012635 335.38434,63.286815 335.38434,61.560995 337.11016,58.876386 340.5618,60.793964 344.01344,62.711541 343.24641,62.519784 343.24641,62.519784 Z"
     id="path12"
     inkscape:connector-curvature="0" />
  <path
     style="fill:#000000;stroke:#000000;stroke-width:1px;stroke-linecap:butt;stroke-linejoin:miter;stroke-opacity:1"
     d="M 348.42387,125.60809 C 348.42387,125.60809 361.27164,125.60809 369.70898,123.88227 378.14633,122.15645 390.9941,120.81415 399.43144,119.85536 407.86878,118.89657 415.92261,117.36251 415.92261,117.36251 415.92261,117.36251 424.07231,119.1842 432.12614,107.19934 440.17996,95.214483 441.71403,89.46175 451.11016,96.652667 460.50629,103.84358 466.3549,114.58202 468.08072,118.41717 469.80654,122.25233 480.73673,127.71743 468.84775,133.56604 456.95877,139.41465 445.64506,146.41381 441.13875,151.78303 436.63245,157.15224 428.96213,163.95964 421.67534,174.50632 414.38854,185.053 410.74515,188.50464 405.56769,196.55847 400.39023,204.61229 383.32379,225.51389 379.10511,233.1842 374.88644,240.85451 374.88644,242.77209 370.66777,250.4424 366.4491,258.11271 353.79309,275.94618 348.80739,283.23298 343.82168,290.51977 327.33052,316.79059 325.22118,319.85871 323.11185,322.92684 302.97728,348.81414 294.15642,356.48445 285.33556,364.15476 258.48948,386.39866 249.86038,392.91842 241.23128,399.43819 209.59124,421.49033 196.93523,429.16064 184.27922,436.83095 177.75945,439.51556 165.87047,444.88478 153.98149,450.254 134.61396,460.80068 121.19091,466.93692 107.76787,473.07317 95.687128,478.05887 85.140451,482.4693 74.593773,486.87973 54.267449,494.93356 47.939443,496.46762 41.611436,498.00168 34.132883,501.64508 32.407063,501.06981 30.681243,500.49453 26.779661,498.91525 25.627119,497.49153 24.474576,496.0678 24,494.71186 28.40678,494.91525 32.813559,495.11864 42.237288,492.20339 45.694915,490.57627 49.152543,488.94915 54.847458,486.57627 59.525424,484.27119 64.20339,481.9661 83.389831,473.49153 87.186441,471.32203 90.983051,469.15254 100.67283,465.01935 108.15138,460.60892 115.62994,456.19849 117.73927,456.19849 124.25904,451.78806 130.7788,447.37763 137.10681,444.11775 143.62657,440.09084 150.14634,436.06392 154.30509,434.16949 160.54237,430.23729 166.77966,426.30508 180.61017,419.38983 186.57627,414.91525 192.54237,410.44068 195.9322,407.59322 201.76271,403.25424 207.59322,398.91525 210.44068,397.15254 218.30509,390.37288 226.16949,383.59322 228.74576,380.88136 236.33898,374.50847 243.9322,368.13559 247.86441,364.74576 256.40678,356.61017 264.94915,348.47458 275.25424,337.8983 284.74576,326.50847 294.23729,315.11864 290.44068,318.10169 299.38983,306.71186 308.33898,295.32203 313.22034,288.27119 321.89831,275.52542 330.57627,262.77966 341.15254,251.66102 347.9322,241.08475 354.71186,230.50847 357.69492,225.08475 366.64407,210.16949 375.59322,195.25424 381.98148,187.92937 388.50124,174.12281 395.02101,160.31625 397.42373,157.42373 399.59322,151.86441 401.76271,146.30508 401.89831,146.71186 403.52542,144 405.15254,141.28813 409.76271,136.94915 394.71187,138.98305 379.66102,141.01695 363.79661,136.27119 354.98305,134.23729 346.16949,132.20339 336.81356,130.71186 333.9661,129.62712 331.11864,128.54237 336.13559,126.37288 341.55932,126.10169 346.98305,125.83051 348.42387,125.60809 348.42387,125.60809 Z"
     id="path14"
     inkscape:connector-curvature="0" />
  <path
     style="fill:#000000;stroke:#000000;stroke-width:1px;stroke-linecap:butt;stroke-linejoin:miter;stroke-opacity:1"
     d="M 249.2851,193.6821 C 249.2851,193.6821 273.44658,199.81835 286.86963,205.57108 300.29267,211.32381 312.18165,217.07655 321.38602,228.1985 330.5904,239.32045 335.18644,246.50847 337.49153,250.30508 339.79661,254.10169 351.45763,266.71186 331.9322,259.25424 312.40678,251.79661 292.74576,246.23729 285.55932,243.9322 278.37288,241.62712 264.27119,228.47458 255.32203,218.57627 246.37288,208.67797 240.40678,198.64407 240.27119,196.61017 240.13559,194.57627 241.76271,191.72881 245.42373,192.54237 249.08475,193.35593 249.2851,193.6821 249.2851,193.6821 Z"
     id="path16"
     inkscape:connector-curvature="0" />
</svg>
