<?xml version="1.0" encoding="UTF-8" standalone="no"?>
<!-- Created with Inkscape (http://www.inkscape.org/) -->

<svg
   xmlns:dc="http://purl.org/dc/elements/1.1/"
   xmlns:cc="http://creativecommons.org/ns#"
   xmlns:rdf="http://www.w3.org/1999/02/22-rdf-syntax-ns#"
   xmlns:svg="http://www.w3.org/2000/svg"
   xmlns="http://www.w3.org/2000/svg"
   xmlns:sodipodi="http://sodipodi.sourceforge.net/DTD/sodipodi-0.dtd"
   xmlns:inkscape="http://www.inkscape.org/namespaces/inkscape"
   version="1.1"
   id="svg42"
   width="512"
   height="512"
   viewBox="0 0 512 512"
   sodipodi:docname="U+5BD0.svg"
   inkscape:version="0.92.4 (5da689c313, 2019-01-14)">
  <metadata
     id="metadata48">
    <rdf:RDF>
      <cc:Work
         rdf:about="">
        <dc:format>image/svg+xml</dc:format>
        <dc:type
           rdf:resource="http://purl.org/dc/dcmitype/StillImage" />
        <dc:title></dc:title>
      </cc:Work>
    </rdf:RDF>
  </metadata>
  <defs
     id="defs46" />
  <sodipodi:namedview
     pagecolor="#ffffff"
     bordercolor="#666666"
     borderopacity="1"
     objecttolerance="10"
     gridtolerance="10"
     guidetolerance="10"
     inkscape:pageopacity="0"
     inkscape:pageshadow="2"
     inkscape:window-width="1920"
     inkscape:window-height="1017"
     id="namedview44"
     showgrid="false"
     inkscape:zoom="0.92187502"
     inkscape:cx="714.33946"
     inkscape:cy="229.5789"
     inkscape:window-x="-8"
     inkscape:window-y="-8"
     inkscape:window-maximized="1"
     inkscape:current-layer="svg42" />
  <path
     style="fill:#000000;stroke:#000000;stroke-width:1px;stroke-linecap:butt;stroke-linejoin:miter;stroke-opacity:1"
     d="m 68.338983,90.576271 c 0,0 16.271187,9.762709 23.322034,18.440679 7.050848,8.67796 19.254233,23.32203 16.271183,31.18644 -2.98305,7.86441 -3.79661,21.15254 -7.05084,33.8983 -3.254241,12.74577 -7.322038,26.57628 -11.389834,36.0678 -4.067797,9.49153 -12.474577,26.0339 -14.644068,28.20339 -2.169492,2.16949 -5.527024,3.24866 -10.320968,-9.31147 0,0 -4.051914,-14.28175 -6.560388,-17.67158 -2.508475,-3.38983 -4.271187,-5.76271 -2.847458,-5.83051 1.423729,-0.0678 5.152543,1.55932 6.576271,1.49153 1.423729,-0.0678 4.745763,1.42373 7.118645,-4.20339 2.372881,-5.62712 8.881355,-26.57627 8.881355,-27.05085 0,-0.47458 -1.830508,7.86441 0.0678,-0.81356 1.898305,-8.67797 3.186441,-22.16949 3.525424,-28.61017 C 81.627119,139.9322 83.322034,132 79.050848,123.11864 74.779661,114.23729 73.355932,108.61017 68.20339,101.8983 63.050848,95.18644 60.474576,92.338982 59.661017,91.050846 c -0.813559,-1.288135 -1.898305,-4.338983 0,-4.067796 1.898305,0.271186 8.677966,3.593221 8.677966,3.593221 z"
     id="path3755"
     inkscape:connector-curvature="0"
     sodipodi:nodetypes="csssssc" />
  <path
     style="fill:#000000;stroke:#000000;stroke-width:1px;stroke-linecap:butt;stroke-linejoin:miter;stroke-opacity:1"
     d="m 181.30697,39.988245 c 3.78546,-1.660613 1.53407,-6.999159 11.79311,-3.835155 l 10.25904,3.164003 c 0,0 14.38183,4.985702 18.6005,7.76619 4.21867,2.780487 21.95627,13.423044 26.55845,14.285954 4.60219,0.86291 14.95711,10.354919 11.88898,17.354078 -3.06812,6.999159 -6.71152,19.75105 -13.03952,27.133725 -6.32801,7.38267 -8.34147,14.66947 -12.84778,14.95711 -4.5063,0.28763 -11.98486,-0.67116 -12.08073,-6.23213 -0.0959,-5.56098 4.41042,-22.339782 5.08158,-26.84609 0.67115,-4.506307 2.97224,-10.259041 -3.45164,-13.998317 -6.42389,-3.739277 -11.21783,-5.944491 -15.62826,-2.972246 -4.41043,2.972246 -8.43734,8.533221 -14.57359,3.643398 -6.13625,-4.889823 -18.88814,-11.409587 -20.80572,-15.244743 -1.91758,-3.835155 -3.06813,-9.971404 -2.78049,-10.834314 0.28764,-0.86291 -0.76703,1.342305 0.28764,-0.86291 1.05467,-2.205214 2.93798,-2.849819 4.60218,-4.026913 1.91598,-1.355177 3.98714,-2.508865 6.13625,-3.45164 z"
     id="path3761"
     inkscape:connector-curvature="0"
     sodipodi:nodetypes="sscsscccccssssssas" />
  <path
     style="fill:#000000;stroke:#000000;stroke-width:1px;stroke-linecap:butt;stroke-linejoin:miter;stroke-opacity:1"
     d="m 130.77967,112.40678 c 9.47193,2.51258 11.11863,1.35593 22.71186,-1.35593 22.86355,-5.34818 39.72881,-8.54238 49.08474,-10.71187 9.35593,-2.169489 80.40678,-14.644066 80.40678,-14.644066 0,0 44.0678,-8.813559 62.91526,-11.525423 18.84745,-2.711865 39.05084,-2.440678 42.98305,-8.677967 3.9322,-6.237288 9.22034,-16.813559 22.77966,-7.050847 13.55932,9.762712 27.52542,20.745763 31.59322,24.949153 4.06779,4.203389 9.49152,6.508474 2.98305,10.440678 -6.50848,3.932203 -21.01695,10.305082 -24.13559,13.694912 -3.11865,3.38983 -16,13.42373 -19.38983,18.30509 -3.38984,4.88135 -7.86441,14.37288 -16,10.57627 -8.1356,-3.79661 -14.91526,-9.89831 -7.72882,-10.30509 7.18644,-0.40678 14.1017,1.35594 16.40678,-6.77966 2.30509,-8.13559 5.9661,-20.33898 5.9661,-23.322031 0,-2.983051 3.11865,-8.949152 -5.28813,-8.949152 -8.40678,0 -18.98305,-5.966102 -47.86441,-0.81356 -28.88136,5.152543 -59.38983,10.305085 -71.72881,12.881356 -12.33899,2.576267 -51.52543,10.305087 -59.25424,11.661017 l -7.72881,1.35593 c 0,0 -20.47458,3.79661 -27.93221,8.54238 -7.45762,4.74576 -16.81356,10.16949 -20.61017,13.55932 -3.79661,3.38983 -8.67796,5.55932 -19.11864,-2.16949 -10.44068,-7.72882 -17.76271,-15.59322 -19.66102,-18.0339 -1.8983,-2.44068 -4.06779,-8 0.1356,-5.83051 4.20338,2.16949 4.35754,3.11128 8.47458,4.20339 z"
     id="path3763"
     inkscape:connector-curvature="0"
     sodipodi:nodetypes="ssscscscsccsscssssscssscss" />
  <path
     style="fill:#000000;stroke:#000000;stroke-width:1px;stroke-linecap:butt;stroke-linejoin:miter;stroke-opacity:1"
     d="m 158.91525,146.98305 c 0,0 5.28814,10.30508 2.71187,17.89831 -2.57627,7.59322 -7.18644,17.08474 -12.0678,18.98305 -4.88135,1.8983 -10.44068,2.98305 -11.38983,3.38983 -0.94915,0.40678 -1.59002,2.16125 1.52605,3.26386 3.11606,1.1026 16.82674,5.03364 24.54499,0.62321 7.71825,-4.41043 12.36838,-9.15643 20.03869,-13.56686 7.67031,-4.41043 8.05382,-10.06729 7.95795,-11.12195 -0.0959,-1.05467 -9.77965,-11.02608 -10.64256,-11.31371 -0.86291,-0.28764 -5.84861,-5.08158 -9.9714,-7.2868 -4.1228,-2.20521 -10.83432,-4.93776 -11.98487,-5.03364 -1.15054,-0.0959 -1.91757,-0.38352 -1.582,0.91085 0.33558,1.29436 0.85891,3.25385 0.85891,3.25385 z"
     id="path3765"
     inkscape:connector-curvature="0" />
  <path
     style="fill:#000000;stroke:#000000;stroke-width:1px;stroke-linecap:butt;stroke-linejoin:miter;stroke-opacity:1"
     d="m 249.89831,124.33898 c 0,0 10.98305,15.18644 8.13559,24.40678 -2.84746,9.22034 -7.72881,20.61017 -7.72881,22.91526 0,2.30508 -1.76272,6.77966 4.33898,8 6.10169,1.22034 14.91525,1.49152 20.61017,-2.30509 5.69491,-3.79661 18.57627,0.13559 21.42373,0.81356 2.84745,0.67797 16.13559,-0.40678 19.11864,-3.25424 2.98305,-2.84745 4.88136,-6.10169 -1.62712,-9.08474 -6.50847,-2.98305 -13.15254,-5.55932 -20.06779,-3.52543 -6.91526,2.0339 -13.15255,6.1017 -15.72882,5.15255 -2.57627,-0.94916 -3.25424,-8.67797 -1.35593,-13.96611 1.8983,-5.28813 0.13559,-12.06779 -5.69492,-18.44067 -5.8305,-6.37288 -12.33898,-11.38983 -16.27118,-13.15255 -3.93221,-1.76271 -5.33429,-1.70737 -6.1972,-1.56355 -0.86291,0.14382 -0.52734,2.01346 0,2.73255 0.52733,0.71909 1.04466,1.27168 1.04466,1.27168 z"
     id="path3767"
     inkscape:connector-curvature="0" />
  <path
     style="fill:#000000;stroke:#000000;stroke-width:1px;stroke-linecap:butt;stroke-linejoin:miter;stroke-opacity:1"
     d="m 112.94533,219.37764 c 0,0 19.94281,-9.58789 30.10597,1.53406 10.16316,11.12195 23.77796,19.36754 19.36753,32.21531 -4.41043,12.84777 -7.30019,41.11028 -7.30019,53.58485 0,12.47458 -0.27118,26.0339 -0.81356,37.42373 -0.54237,11.38983 -2.71186,33.35594 -3.25423,47.18644 -0.54238,13.83051 -0.54238,43.38983 -1.08475,50.1695 -0.54237,6.77966 -1.35593,18.16949 -2.98305,23.05084 -1.62712,4.88136 -5.62712,7.52543 -9.62712,-1.42373 -4,-8.94915 -6.84746,-25.49152 -7.66101,-28.20339 -0.81356,-2.71186 -4.74577,-16.06779 -6.44068,-20.33898 -1.69492,-4.27119 -5.49153,-10.37288 0.47457,-8.27119 5.96611,2.1017 7.25424,3.45763 9.28814,4.0678 2.0339,0.61017 6.84746,5.76271 8.20339,-8.88135 1.35593,-14.64407 2.10169,-25.35594 2.50847,-34.71187 0.40678,-9.35593 1.08475,-31.45763 0.81356,-40.67797 -0.27118,-9.22033 -1.49152,-39.18644 -1.76271,-41.08474 -0.27119,-1.89831 1.89831,-22.37288 -2.57627,-29.28814 -4.47458,-6.91525 -12.47458,-16.54237 -18.57627,-19.25423 -6.1017,-2.71187 -6.66834,-4.68062 -12.51695,-5.16002 -5.84861,-0.47939 -6.328,-3.11606 -5.51303,-5.80067 0.81497,-2.68461 0.0959,-5.99243 4.36249,-6.08831 4.26661,-0.0959 4.9857,-0.0479 4.9857,-0.0479 z"
     id="path3769"
     inkscape:connector-curvature="0" />
  <path
     style="fill:#000000;stroke:#000000;stroke-width:1px;stroke-linecap:butt;stroke-linejoin:miter;stroke-opacity:1"
     d="m 74.018498,297.42306 c 0,0 12.656013,7.86207 18.025231,7.86207 5.369217,0 16.107651,-0.19176 19.367531,-2.10934 3.25989,-1.91758 14.76535,-6.32801 10.9302,2.30109 -3.83516,8.6291 -9.39613,13.99832 -10.73844,20.70984 -1.3423,6.71152 -7.86207,10.54668 -14.190074,8.24559 -6.328006,-2.3011 -16.29941,-9.01262 -19.559292,-15.53238 -3.259882,-6.51977 -4.218671,-11.12195 -6.90328,-14.19008 -2.684609,-3.06812 -6.711522,-9.20437 -3.068124,-9.58789 3.643397,-0.38351 6.136248,2.3011 6.136248,2.3011 z"
     id="path32"
     inkscape:connector-curvature="0" />
  <path
     style="fill:#000000;stroke:#000000;stroke-width:1px;stroke-linecap:butt;stroke-linejoin:miter;stroke-opacity:1"
     d="m 49.473504,379.30362 c 0,0 9.012615,7.47856 16.874684,3.06813 7.862068,-4.41043 29.722454,-16.49117 33.941122,-19.17578 4.21867,-2.68461 20.70984,-11.12195 24.92851,-13.42304 4.21867,-2.30109 13.23129,-6.32801 9.58789,-1.91758 -3.6434,4.41043 -18.02523,20.70984 -20.9016,24.35324 -2.87636,3.64339 -14.190071,10.16316 -16.682922,18.6005 -2.492851,8.43734 -7.286795,20.13457 -9.779646,22.05214 -2.492851,1.91758 -9.971404,5.36922 -17.833472,-0.76703 -7.862069,-6.13625 -21.47687,-18.02523 -23.586206,-21.28511 -2.109335,-3.25988 -5.656854,-8.72498 -6.040369,-10.73843 -0.383516,-2.01346 -0.287637,-4.02692 1.629941,-3.6434 1.917577,0.38351 7.862068,2.87636 7.862068,2.87636 z"
     id="path34"
     inkscape:connector-curvature="0" />
  <path
     style="fill:#000000;stroke:#000000;stroke-width:1px;stroke-linecap:butt;stroke-linejoin:miter;stroke-opacity:1"
     d="m 203.38983,254.1017 c 5.86669,2.70916 13.42373,6.10169 18.98305,3.9322 5.55932,-2.16949 67.66101,-24.13559 73.8983,-24.81356 6.23729,-0.67796 19.11865,1.22034 18.71187,4.0678 -0.40678,2.84746 0.81356,7.72881 -4.20339,10.30508 -5.01695,2.57628 -48,16.54238 -50.71187,17.76272 -2.71186,1.22034 -10.0339,1.8983 -15.05084,9.08474 -5.01695,7.18644 -11.66102,12.88136 -19.11865,8.27119 -7.45763,-4.61017 -29.15254,-22.1017 -29.83051,-22.91526 -0.67796,-0.81356 -9.535,-13.70281 0.40678,-8.94915 5.16734,2.47076 3.92339,1.87264 6.91526,3.25424 z"
     id="path36"
     inkscape:connector-curvature="0"
     sodipodi:nodetypes="sscsccsscss" />
  <path
     style="fill:#000000;stroke:#000000;stroke-width:1px;stroke-linecap:butt;stroke-linejoin:miter;stroke-opacity:1"
     d="m 174.50847,318.37288 c 0,0 10.84746,4.88136 15.05085,6.37289 4.20339,1.49152 10.16949,2.30508 18.44068,-0.40678 8.27118,-2.71187 110.23728,-37.15255 115.25423,-37.01695 5.01695,0.13559 8.67797,-4.20339 9.08475,-5.01695 0.40678,-0.81356 2.84746,-3.52543 11.52542,-0.81356 8.67797,2.71186 25.22034,7.45763 27.79661,9.08474 2.57627,1.62712 7.86441,5.01695 -3.66102,6.23729 -11.52542,1.22034 -55.72881,8.54238 -63.8644,10.16949 -8.13559,1.62712 -60.20339,15.72882 -69.01695,20.0678 -8.81356,4.33898 -16.54237,6.23729 -21.69491,13.83051 -5.15255,7.59322 -7.59322,11.66102 -19.25424,6.23729 -11.66102,-5.42373 -19.66102,-12.67797 -22.84746,-17.22034 -3.18644,-4.54237 -6.10169,-11.59322 -5.76271,-12.88136 0.33898,-1.28813 4.33898,-0.94915 5.49152,-0.27118 1.15255,0.67796 3.45763,1.62711 3.45763,1.62711 z"
     id="path38"
     inkscape:connector-curvature="0" />
  <path
     style="fill:#000000;stroke:#000000;stroke-width:1px;stroke-linecap:butt;stroke-linejoin:miter;stroke-opacity:1"
     d="m 238.06727,197.8049 c 0,0 30.48948,9.10849 35.28343,14.28595 4.79394,5.17746 8.53322,7.09504 6.8074,14.95711 -1.72582,7.86207 -5.56098,64.43061 -4.79395,89.74263 0.76704,25.31203 -1.15054,82.45584 0,98.94701 1.15055,16.49117 1.91758,34.13288 0,43.72077 -1.91757,9.58789 -7.28679,21.95627 -8.62909,23.96972 -1.34231,2.01346 -4.98571,8.6291 -13.99832,-5.08158 -9.01262,-13.71068 -23.20269,-27.709 -24.545,-29.0513 -1.3423,-1.3423 -6.61564,-7.57443 0.76704,-5.56098 7.38267,2.01346 17.16232,6.32801 22.14802,6.32801 4.9857,0 10.54667,3.164 11.98486,-13.99832 1.43818,-17.16232 0.38351,-94.72833 -0.76703,-105.85028 -1.15055,-11.12195 -0.38352,-45.63835 -1.53407,-59.44491 -1.15054,-13.80656 -3.43463,-32.39584 -7.50243,-39.98906 -4.0678,-7.59322 -13.01695,-16.67797 -18.57627,-20.88136 -5.55932,-4.20339 -8.67797,-7.72881 -7.86441,-10.44068 0.81356,-2.71186 4.88136,-2.84746 6.50848,-2.71186 1.62712,0.13559 4.71134,1.05913 4.71134,1.05913 z"
     id="path40"
     inkscape:connector-curvature="0" />
  <path
     style="fill:#000000;stroke:#000000;stroke-width:1px;stroke-linecap:butt;stroke-linejoin:miter;stroke-opacity:1"
     d="m 262.10169,317.9661 c 1.49153,3.25424 2.30509,5.15255 2.57627,8.27119 0.27119,3.11865 1.08475,9.22034 0.67797,11.38983 -0.40678,2.16949 -0.81356,14.37288 -1.89831,15.18644 -1.08474,0.81356 -6.77966,-2.0339 -10.84745,1.76271 -4.0678,3.79661 -23.18644,26.30509 -25.89831,29.9661 -2.71186,3.66102 -27.25424,31.32204 -40.67796,36.20339 -13.42373,4.88136 -23.32204,6.37289 -28.88136,4.33899 -5.55932,-2.0339 -9.89831,-2.71187 -0.40678,-5.83051 9.49153,-3.11865 38.64407,-16.67797 58.0339,-38.23729 19.38983,-21.55932 27.25423,-31.18644 31.72881,-40.40678 4.47458,-9.22034 7.45763,-15.32203 8.27119,-18.0339 0.81356,-2.71186 1.8983,-5.9661 2.44067,-6.50847 0.54238,-0.54237 2.0339,-1.22034 2.84746,-0.94915 0.81356,0.27118 2.0339,2.84745 2.0339,2.84745 z"
     id="path42"
     inkscape:connector-curvature="0" />
  <path
     style="fill:#000000;stroke:#000000;stroke-width:1px;stroke-linecap:butt;stroke-linejoin:miter;stroke-opacity:1"
     d="m 276.89822,330.21364 c 0,0 18.02523,12.46425 23.77796,15.91589 5.75273,3.45164 31.44827,17.2582 41.61144,19.36754 10.16316,2.10933 46.78889,12.65601 58.1026,14.76534 11.31371,2.10934 40.65265,11.12195 51.58284,13.42305 10.93019,2.30109 27.99663,6.51976 30.68124,6.90328 2.68461,0.38351 20.70984,3.45164 6.71152,4.9857 -13.99831,1.53406 -47.17241,4.02691 -55.22623,5.17746 -8.05383,1.15055 -33.36585,5.17746 -37.39277,5.36922 -4.02691,0.19175 -11.31371,-0.95879 -26.07905,-8.82086 -14.76535,-7.86207 -44.29605,-30.29773 -49.66527,-34.89992 -5.36921,-4.60218 -19.55929,-15.53237 -24.35323,-18.40874 -4.79395,-2.87637 -12.84777,-9.20437 -16.49117,-11.50547 -3.6434,-2.30109 -4.21867,-2.87636 -4.79395,-4.60218 -0.57527,-1.72582 -2.10933,-6.71153 -2.10933,-8.6291 0,-1.91758 3.6434,0.95879 3.6434,0.95879 z"
     id="path44"
     inkscape:connector-curvature="0" />
</svg>
