<?xml version="1.0" encoding="UTF-8" standalone="no"?>
<!-- Created with Inkscape (http://www.inkscape.org/) -->

<svg
   xmlns:dc="http://purl.org/dc/elements/1.1/"
   xmlns:cc="http://creativecommons.org/ns#"
   xmlns:rdf="http://www.w3.org/1999/02/22-rdf-syntax-ns#"
   xmlns:svg="http://www.w3.org/2000/svg"
   xmlns="http://www.w3.org/2000/svg"
   xmlns:sodipodi="http://sodipodi.sourceforge.net/DTD/sodipodi-0.dtd"
   xmlns:inkscape="http://www.inkscape.org/namespaces/inkscape"
   version="1.1"
   id="svg2"
   width="512"
   height="512"
   viewBox="0 0 512 512"
   sodipodi:docname="æ™.svg"
   inkscape:version="0.92.4 (5da689c313, 2019-01-14)">
  <metadata
     id="metadata8">
    <rdf:RDF>
      <cc:Work
         rdf:about="">
        <dc:format>image/svg+xml</dc:format>
        <dc:type
           rdf:resource="http://purl.org/dc/dcmitype/StillImage" />
        <dc:title></dc:title>
      </cc:Work>
    </rdf:RDF>
  </metadata>
  <defs
     id="defs6" />
  <sodipodi:namedview
     pagecolor="#ffffff"
     bordercolor="#666666"
     borderopacity="1"
     objecttolerance="10"
     gridtolerance="10"
     guidetolerance="10"
     inkscape:pageopacity="0"
     inkscape:pageshadow="2"
     inkscape:window-width="1366"
     inkscape:window-height="705"
     id="namedview4"
     showgrid="false"
     inkscape:zoom="0.65186406"
     inkscape:cx="58.151436"
     inkscape:cy="227.36473"
     inkscape:window-x="-8"
     inkscape:window-y="-8"
     inkscape:window-maximized="1"
     inkscape:current-layer="svg2" />
  <path
     style="fill:#000000;stroke:#000000;stroke-width:1px;stroke-linecap:butt;stroke-linejoin:miter;stroke-opacity:1"
     d="M 225.83051,81.084745 C 225.83051,81.084745 242.23729,92.067796 246.16949,93.627118 250.1017,95.18644 269.42373,100.47458 276.61017,101.01695 283.79661,101.55932 309.69492,100.74576 314.44068,100.47458 319.18644,100.20339 330.98305,101.42373 337.35593,96.542372 343.72881,91.661016 343.05085,88.745761 347.52542,93.864405 352,98.98305 352.81356,100.47458 354.64407,103.9322 356.47458,107.38983 359.45763,111.25424 360.54237,114.57627 361.62712,117.8983 360.20339,119.18644 357.55932,120.88135 354.91526,122.57627 349.42373,126.91525 346.98305,130.30508 344.54237,133.69491 332.61017,147.52542 328.81356,154.16949 325.01695,160.81356 318.23729,170.98305 314.71187,174.64407 311.18644,178.30508 308.47458,179.66102 305.62712,180.47458 302.77966,181.28813 303.93607,179.5879 305.08661,177.33475 306.23716,175.0816 311.5105,165.39783 314.00335,159.35746 316.4962,153.31709 321.86542,143.05805 325.31706,134.33307 328.7687,125.60809 333.46676,117.93778 333.7544,115.82844 334.04204,113.71911 336.0339,111.52542 330.74576,112.37288 325.45763,113.22034 317.9661,108.81356 306.50848,111.32203 295.05085,113.83051 270.91525,113.55932 264.27119,113.22034 257.62712,112.88135 244.81356,114.16949 238.50848,108.94915 232.20339,103.72881 224.47458,94.16949 223.32203,89.423728 222.16949,84.677965 220.27119,79.796609 221.49153,79.932202 222.71186,80.067795 225.83051,81.084745 225.83051,81.084745 Z"
     id="path12"
     inkscape:connector-curvature="0" />
  <path
     style="fill:#000000;stroke:#000000;stroke-width:1px;stroke-linecap:butt;stroke-linejoin:miter;stroke-opacity:1"
     d="M 87.186441,168.13559 C 87.186441,168.13559 95.457627,177.8983 110.91525,173.83051 126.37288,169.76271 158.23729,162.0339 175.59322,158.91525 192.94915,155.79661 241.76271,147.9322 258.30509,146.44068 274.84746,144.94915 338.64422,136.34653 350.72496,135.38774 362.8057,134.42895 395.78804,131.74434 404.22538,131.74434 412.66272,131.74434 419.66102,127.9322 426.77966,133.62712 433.89831,139.32203 439.79661,143.18644 440.27119,144.94915 440.74576,146.71186 441.35593,148.81356 440.40678,149.69491 439.45763,150.57627 438.23729,152.54237 436.27119,152.33898 434.30509,152.13559 432.33898,152.0678 429.01695,153.01695 425.69492,153.9661 419.32204,153.35593 414.57627,151.72881 409.83051,150.10169 392.0678,146.71186 382.1017,146.84746 372.13559,146.98305 363.72881,146.57627 355.86441,147.05085 348,147.52542 321.22034,148 312.27119,149.28813 303.32203,150.57627 289.69492,151.11864 278.16949,153.42373 266.64407,155.72881 240.0678,158.50847 231.79661,160.20339 223.52542,161.8983 206.0339,165.28813 201.9661,166.0339 197.89831,166.77966 177.55932,170.57627 168.20339,174.30508 158.84746,178.0339 153.76271,181.49152 150.91525,184.40678 148.0678,187.32203 146.1017,188.88136 139.25424,188.94915 132.40678,189.01695 117.01695,185.01695 112.88136,184.40678 108.74576,183.79661 97.762712,181.69491 93.152543,180 88.542373,178.30508 82.169492,174.91525 81.559322,172.88136 80.949153,170.84746 80.61017,166.30508 80.881356,165.76271 81.152543,165.22034 83.389831,164.81356 84.61017,165.8983 85.830509,166.98305 87.186441,168.13559 87.186441,168.13559 Z"
     id="path14"
     inkscape:connector-curvature="0" />
  <path
     style="fill:#000000;stroke:#000000;stroke-width:1px;stroke-linecap:butt;stroke-linejoin:miter;stroke-opacity:1"
     d="M 186.16949,188.88136 C 186.16949,188.88136 189.49153,190.98305 195.59322,189.49152 201.69492,188 219.18644,185.62712 228,184.13559 236.81356,182.64407 253.42373,180.0678 267.79661,177.76271 282.16949,175.45763 299.9322,173.55932 306.98305,172.61017 314.0339,171.66102 316.33898,170.84746 322.57627,171.9322 328.81356,173.01695 332.88136,174.91525 335.72881,175.72881 338.57627,176.54237 341.90411,177.86208 341.80823,178.86881 341.71235,179.87554 339.74683,181.69724 338.21277,182.12869 336.67871,182.56015 327.13876,183.99833 321.43396,183.99833 315.72917,183.99833 308.05886,184.09421 302.25819,184.76536 296.45752,185.43651 272.05634,188.217 266.59124,189.36755 261.12615,190.5181 237.10848,194.92852 233.27333,196.07907 229.43817,197.22962 224.74011,198.38016 218.69974,201.92768 212.65937,205.4752 209.86441,207.52542 207.9661,207.83051 206.0678,208.13559 203.42373,208.33898 200.77966,206.98305 198.13559,205.62712 191.4222,202.21532 188.64171,200.53744 185.86122,198.85956 182.02606,195.88731 181.64255,194.06561 181.25903,192.24392 181.25903,189.70313 181.64255,189.46343 182.02606,189.22373 183.05676,188.50464 183.8957,188.55258 184.73464,188.60052 186.16949,188.88136 186.16949,188.88136 Z"
     id="path16"
     inkscape:connector-curvature="0" />
  <path
     style="fill:#000000;stroke:#000000;stroke-width:1px;stroke-linecap:butt;stroke-linejoin:miter;stroke-opacity:1"
     d="M 160,231.32203 C 160,231.32203 165.15254,234.44068 174.37288,232.81356 183.59322,231.18644 199.05085,229.15254 203.9322,227.9322 208.81356,226.71186 223.32203,224 230.1017,222.64407 236.88136,221.28813 260.33898,217.49152 271.18644,216.40678 282.0339,215.32203 295.18644,214.91525 302.1017,214.10169 309.01695,213.28813 317.89831,212.74576 323.52542,210.50847 329.15254,208.27119 331.18644,206.71186 333.89831,207.18644 336.61017,207.66102 339.72881,208.47458 342.0339,209.49152 344.33898,210.50847 348.88136,213.15254 350.0339,214.23729 351.18644,215.32203 352.27119,216.13559 352.47458,217.8983 352.67797,219.66102 352.33898,223.25424 351.05085,223.52542 349.76271,223.79661 342.57627,224.20339 339.18644,223.45763 335.79661,222.71186 323.66102,222.77966 317.08475,223.45763 310.50848,224.13559 292.04709,224.93862 285.52732,225.51389 279.00756,226.08916 268.94027,226.56856 263.85869,227.14383 258.77711,227.7191 241.51891,231.65014 230.10933,233.85535 218.69974,236.06057 207.48191,236.8276 200.86627,239.32045 194.25062,241.8133 190.60723,244.49791 189.3608,245.36082 188.11437,246.22373 183.17661,249.14803 178.95794,248.95628 174.73927,248.76452 171.19175,245.79227 168.26744,243.82676 165.34314,241.86124 160.3095,237.45081 158.4878,235.82087 156.6661,234.19093 155.03616,232.41717 154.89234,231.50632 154.74852,230.59547 154.79646,230.25989 154.94028,230.0202 155.0841,229.7805 155.75525,230.0202 156.13877,230.06814 156.52228,230.11608 158.05634,230.64341 158.29604,230.69135 158.53574,230.73929 160,231.32203 160,231.32203 Z"
     id="path18"
     inkscape:connector-curvature="0" />
  <path
     style="fill:#000000;stroke:#000000;stroke-width:1px;stroke-linecap:butt;stroke-linejoin:miter;stroke-opacity:1"
     d="M 148.67797,272.81356 C 148.67797,272.81356 153.69492,273.9661 161.69492,271.86441 169.69492,269.76271 173.01695,268.88136 186.91525,266.0339 200.81356,263.18644 229.53405,259.45501 241.80655,257.15392 254.07905,254.85283 264.43397,256.00338 274.40537,254.46931 284.37678,252.93525 309.88056,249.29185 314.48275,248.52482 319.08493,247.75779 330.01512,244.11439 334.13792,245.07318 338.26071,246.03197 342.76702,247.2784 345.83514,248.90834 348.90327,250.53828 353.02606,252.35998 354.1766,254.18168 355.32715,256.00337 358.39528,258.30447 357.05297,259.74265 355.71067,261.18083 351.58787,263.38605 348.23211,264.15308 344.87635,264.92011 338.35659,265.97478 334.42555,264.72835 330.49452,263.48193 322.15306,258.92768 311.31874,261.1329 300.48443,263.33811 286.50848,263.05085 271.18644,265.08475 255.86441,267.11864 227.38983,268.33898 215.86441,272.27119 204.33898,276.20339 196.47458,276.47458 187.66102,279.86441 178.84746,283.25424 173.01695,285.22034 170.77966,286.44068 168.54237,287.66102 165.9661,289.35593 160.54237,288.27119 155.11864,287.18644 151.72881,285.62712 149.28814,283.72881 146.84746,281.83051 142.98305,279.25424 142.44068,277.8983 141.89831,276.54237 142.33221,274.60388 143.24306,274.02861 144.1539,273.45333 145.68797,272.59042 146.59882,272.63836 147.50967,272.6863 148.42052,272.83012 148.42052,272.83012 Z"
     id="path20"
     inkscape:connector-curvature="0" />
  <path
     style="fill:#000000;stroke:#000000;stroke-width:1px;stroke-linecap:butt;stroke-linejoin:miter;stroke-opacity:1"
     d="M 247.36753,42.385218 C 247.36753,42.385218 262.32463,44.494553 269.80318,49.480255 277.28174,54.465957 283.8015,59.931053 283.99326,64.629119 284.18502,69.327184 285.71908,74.600523 285.43144,79.298588 285.14381,83.996654 287.25314,94.926847 285.14381,98.857881 283.03447,102.78892 274.78889,114.39026 273.06307,120.71827 271.33725,127.04627 270.1867,133.56604 269.22791,139.51053 268.26912,145.45502 266.73506,155.13879 266.5433,161.27504 266.35154,167.41128 265.87215,184.19009 265.77627,187.54585 265.68039,190.90161 262.77966,209.62712 263.05085,212.61017 263.32203,215.59322 260.0678,240.81356 260.0678,245.69491 260.0678,250.57627 261.69492,261.15254 259.79661,268.20339 257.89831,275.25424 256.47458,281.9661 254.84746,285.76271 253.22034,289.55932 252.33898,292.54237 251.45763,293.49152 250.57627,294.44068 248.67797,291.79661 246.16949,289.69491 243.66102,287.59322 241.28814,281.42373 240.94915,278.30508 240.61017,275.18644 240.88136,264.20339 241.08475,260.67797 241.28814,257.15254 246.23729,226.71186 246.50847,221.28814 246.77966,215.86441 253.01695,192 254.1017,177.8983 255.18644,163.79661 258.16949,144 257.89831,132.0678 257.62712,120.13559 252.74576,109.55932 256.27119,102.77966 259.79661,95.999999 267.38983,91.118643 264.67797,83.525423 261.9661,75.932203 256.54237,65.355931 253.01695,60.203389 249.49153,55.050847 244.61017,50.169491 242.98305,47.457626 241.35593,44.745762 239.79661,44.610168 239.66102,44.271185 239.52542,43.932202 239.32203,42.77966 240,42.508473 240.67797,42.237287 244.88136,42.033897 245.42373,42.16949 245.9661,42.305084 247.36753,42.385218 247.36753,42.385218 Z"
     id="path22"
     inkscape:connector-curvature="0" />
  <path
     style="fill:#000000;stroke:#000000;stroke-width:1px;stroke-linecap:butt;stroke-linejoin:miter;stroke-opacity:1"
     d="M 174.1017,302.91525 C 174.1017,302.91525 184.94915,306.44068 189.15254,310.10169 193.35593,313.76271 197.42373,318.77966 199.05085,323.11864 200.67797,327.45763 202.84746,330.71186 203.66102,338.44068 204.47458,346.16949 206.64407,352.40678 207.32203,356.74576 208,361.08475 209.62712,368.40678 210.71186,370.71186 211.79661,373.01695 213.28814,381.55932 212.61017,385.62712 211.9322,389.69491 210.84746,393.8983 210.30509,395.11864 209.76271,396.33898 207.72881,398.23729 205.69492,396.88136 203.66102,395.52542 199.59322,384.81356 199.18644,382.10169 198.77966,379.38983 196.88136,360.81356 196.0678,358.23729 195.25424,355.66102 191.72881,340.33898 190.91525,336.40678 190.1017,332.47458 190.37288,328.94915 185.76271,326.30508 181.15254,323.66102 177.62712,325.28814 173.89831,316.81356 170.16949,308.33898 169.65769,309.07234 169.75357,306.14803 169.84945,303.22373 170.42472,301.25821 170.85617,301.44997 171.28763,301.64172 174.1017,302.91525 174.1017,302.91525 Z"
     id="path24"
     inkscape:connector-curvature="0" />
  <path
     style="fill:#000000;stroke:#000000;stroke-width:1px;stroke-linecap:butt;stroke-linejoin:miter;stroke-opacity:1"
     d="M 208.81356,303.32203 C 208.81356,303.32203 215.18644,302.10169 220.20339,301.01695 225.22034,299.9322 235.52542,297.62712 239.59322,296.27119 243.66102,294.91525 250.84746,293.69491 257.35593,292.20339 263.86441,290.71186 276.61017,287.32203 282.16949,286.50847 287.72881,285.69491 298.16949,283.9322 302.1017,283.38983 306.0339,282.84746 312.8528,280.93189 316.30444,283.32886 319.75608,285.72583 322.24894,286.3011 324.26239,290.90329 326.27585,295.50548 328.48106,294.9302 326.56349,300.29942 324.64591,305.66864 323.11185,311.61313 321.38603,316.11944 319.66021,320.62574 316.59208,329.15896 315.82505,332.13121 315.05802,335.10346 313.6431,339.8645 312.87607,342.93262 312.10904,346.00075 312.49936,349.27027 311.8214,357.01037 312.20491,363.81777 311.18644,370.0339 309.01695,375.18644 306.84746,380.33898 305.32631,386.01514 304.36752,388.41212 303.40873,390.80909 302.83346,393.15812 302.01849,394.21279 301.20352,395.26746 299.95709,396.32212 299.38182,395.98655 298.80655,395.65097 296.69721,395.02776 295.93018,393.92515 295.16315,392.82254 293.48527,391.00085 292.81412,389.41884 292.14297,387.83684 290.46508,384.09757 290.03363,382.17999 289.60217,380.26241 286.71187,375.86441 286.37288,371.79661 286.0339,367.72881 286.0339,361.8983 286.16949,360.61017 286.30509,359.32203 286.64407,353.8983 287.11864,352.33898 287.59322,350.77966 287.83051,348.98305 288.27119,348.64407 288.71187,348.30508 289.55932,348.0339 290.50848,348.47458 291.45763,348.91525 292.88136,349.35593 293.25424,350.13559 293.62712,350.91525 294.16949,353.42373 294.98305,354.57627 295.79661,355.72881 297.99158,357.1556 298.47097,356.77208 298.95037,356.38857 300.82823,353.61772 301.21175,351.79602 301.59526,349.97432 303.56219,342.95871 304.52098,338.35652 305.47977,333.75433 307.00419,324.4609 308.25062,320.52987 309.49704,316.59883 311.65573,310.11197 311.46397,308.00263 311.27221,305.8933 313.14044,301.06645 312.08577,298.66948 311.03111,296.27251 311.25424,295.11864 307.76271,294.20339 304.27119,293.28813 302.1017,291.8983 299.15254,292.0339 296.20339,292.16949 293.79661,292.64407 286.98305,295.79661 280.16949,298.94915 262.23729,303.79661 254.98305,306.16949 247.72881,308.54237 243.66102,308.94915 238.71187,310.16949 233.76271,311.38983 227.13708,312.85955 223.68544,312.90749 220.2338,312.95543 217.35743,312.4281 214.19343,311.46931 211.02943,310.51052 207.81749,309.2641 206.33136,307.73003 204.84524,306.19597 204.44068,305.11864 204.64407,304.50847 204.84746,303.8983 204.98305,303.28813 205.59322,303.25424 206.20339,303.22034 208,303.42373 208.20339,303.42373 208.40678,303.42373 208.81356,303.32203 208.81356,303.32203 Z"
     id="path26"
     inkscape:connector-curvature="0"
     sodipodi:nodetypes="ccccsssccssscscscscccccccssccscscccssssssscsc" />
  <path
     style="fill:#000000;stroke:#000000;stroke-width:1px;stroke-linecap:butt;stroke-linejoin:miter;stroke-opacity:1"
     d="M 206.63263,339.56623 C 207.74871,339.9527 208.96181,340.09298 216.11101,338.36334 224.74559,336.27433 231.54751,333.66527 237.30024,331.55594 243.05298,329.4466 249.47686,327.33727 253.79141,325.32381 258.10596,323.31035 263.47518,320.8175 267.50209,320.14635 271.529,319.4752 275.36416,319.37932 277.85701,320.24223 280.34986,321.10514 287.92429,322.83096 288.11605,323.88563 288.30781,324.94029 288.59545,327.04963 287.54078,328.29605 286.48611,329.54248 280.73338,332.89824 278.24053,333.66527 275.74768,334.4323 268.46088,336.254 264.14633,337.11691 259.83178,337.97982 257.62657,337.88394 255.03784,338.0757 252.44911,338.26746 250.91504,338.84273 246.02522,341.14383 241.1354,343.44492 237.68376,343.92431 234.42388,345.74601 231.16399,347.56771 227.0412,349.58117 223.11017,349.8688 219.17913,350.15644 218.22034,350.44408 214.28931,349.67705 210.35828,348.91002 207.00251,347.75947 205.75609,347.28007 204.50966,346.80068 201.82505,344.59547 201.05802,343.73256 200.29099,342.86965 198.77966,340.67797 198.74576,339.66102 198.71187,338.64407 198.94915,337.35593 199.15254,337.22034 199.35593,337.08475 199.69492,336.94915 200.16949,337.18644 200.64407,337.42373 201.52542,337.9322 202.13559,338.0678 202.74576,338.20339 203.76539,338.31425 204.54237,338.57627 205.27289,338.82263 205.53034,339.18453 206.63263,339.56623 Z"
     id="path28"
     inkscape:connector-curvature="0"
     sodipodi:nodetypes="ssssssccssscccscscsccas" />
  <path
     style="fill:#000000;stroke:#000000;stroke-width:1px;stroke-linecap:butt;stroke-linejoin:miter;stroke-opacity:1"
     d="M 215.32203,372.74576 C 215.32203,372.74576 229.28814,369.49153 235.66102,368.27119 242.0339,367.05085 253.15254,365.69491 256.40678,364.74576 259.66102,363.79661 272.94915,362.16949 275.79661,361.22034 278.64407,360.27119 282.0339,357.9661 283.79661,356.0678 285.55932,354.16949 287.72881,351.86441 288.81356,351.72881 289.89831,351.59322 291.66102,352.67797 292.61017,354.16949 293.55932,355.66102 294.64407,359.59322 294.64407,360.67797 294.64407,361.76271 293.9661,363.9322 293.42373,366.64407 292.88136,369.35593 290.44068,374.91525 289.35593,376.67797 288.27119,378.44068 287.45763,378.44068 286.1017,377.08475 284.74576,375.72881 284.20339,374.50847 277.9661,375.72881 271.72881,376.94915 259.38983,377.49153 253.9661,378.71186 248.54237,379.9322 245.15254,379.38983 237.01695,381.01695 228.88136,382.64407 223.86441,382.91525 218.84746,383.86441 213.83051,384.81356 212.17997,383.90581 210.35828,382.94702 208.53658,381.98823 204.60554,375.56435 204.50966,373.45501 204.41378,371.34567 204.22203,370.29101 204.7973,369.61985 205.37257,368.9487 209.783,372.68798 211.50882,372.87974 213.23464,373.07149 215.32203,372.74576 215.32203,372.74576 Z"
     id="path30"
     inkscape:connector-curvature="0" />
  <path
     style="fill:#000000;stroke:#000000;stroke-width:1px;stroke-linecap:butt;stroke-linejoin:miter;stroke-opacity:1"
     d="M 123.11864,418.57627 C 123.11864,418.57627 140.0678,416.27119 148.0678,415.05085 156.0678,413.83051 175.05085,410.57627 181.42373,409.35593 187.79661,408.13559 203.25424,406.50847 207.86441,405.83051 212.47458,405.15254 228.47938,404.04037 237.20436,403.08159 245.92934,402.1228 269.13203,399.8217 273.44658,398.95879 277.76113,398.09588 297.99158,396.17831 303.16904,395.89067 308.3465,395.60303 318.7973,395.12364 322.44069,395.3154 326.08409,395.50715 333.7544,396.08243 338.7401,395.41127 343.72581,394.74012 349.76618,395.50715 352.49872,395.12364 355.23127,394.74012 356.52564,394.11691 357.5803,393.0143 358.63497,391.9117 358.97055,390.95291 360.84019,391.33642 362.70983,391.71994 364.6274,391.86376 366.64086,392.77461 368.65432,393.68545 374.55087,399.34231 376.37257,401.02019 378.19427,402.69807 381.02269,404.47183 383.41966,406.96468 385.81664,409.45753 388.16567,412.14214 388.693,413.00505 389.22034,413.86796 390.5147,414.87469 390.7544,415.92936 390.9941,416.98402 391.80907,418.13457 390.94616,418.80572 390.08325,419.47688 386.29603,421.68209 383.22791,421.77797 380.15978,421.87385 377.71487,421.15476 375.5576,421.34651 373.40032,421.53827 369.90074,422.11354 367.93522,422.40118 365.96971,422.68882 364.29183,423.12027 361.36752,422.73676 358.44321,422.35324 353.36163,420.38772 350.38939,419.76451 347.41714,419.1413 327.32203,413.15254 322.84746,413.42373 318.37288,413.69492 299.66102,412.61017 294.37288,412.61017 289.08475,412.61017 278.37288,412.61017 272.67797,412.74576 266.98305,412.88136 259.25424,410.71186 245.9661,412.20339 232.67797,413.69492 218.30509,415.32203 210.30509,416.81356 202.30509,418.30508 196.88136,418.30508 186.57627,421.83051 176.27119,425.35593 168.81356,428.47458 164.88136,431.18644 160.94915,433.8983 156.94915,436.74576 155.9322,437.35593 154.91525,437.9661 153.83051,438.91525 151.79661,438.37288 149.76271,437.83051 145.9661,435.79661 143.9322,434.64407 141.89831,433.49153 137.9661,430.71186 136.47458,430.16949 134.98305,429.62712 127.25424,425.55932 125.76271,424.88136 124.27119,424.20339 120.33898,422.30508 120,421.55932 119.66102,420.81356 119.11864,419.25424 119.86441,418.91525 120.61017,418.57627 123.11864,418.57627 123.11864,418.57627 Z"
     id="path32"
     inkscape:connector-curvature="0" />
</svg>
