<?xml version="1.0" encoding="UTF-8" standalone="no"?>
<!-- Created with Inkscape (http://www.inkscape.org/) -->

<svg
   xmlns:dc="http://purl.org/dc/elements/1.1/"
   xmlns:cc="http://creativecommons.org/ns#"
   xmlns:rdf="http://www.w3.org/1999/02/22-rdf-syntax-ns#"
   xmlns:svg="http://www.w3.org/2000/svg"
   xmlns="http://www.w3.org/2000/svg"
   xmlns:sodipodi="http://sodipodi.sourceforge.net/DTD/sodipodi-0.dtd"
   xmlns:inkscape="http://www.inkscape.org/namespaces/inkscape"
   version="1.1"
   id="svg3713"
   width="512"
   height="512"
   viewBox="0 0 512 512"
   sodipodi:docname="U+6B4C.svg"
   inkscape:version="0.92.4 (5da689c313, 2019-01-14)">
  <metadata
     id="metadata3719">
    <rdf:RDF>
      <cc:Work
         rdf:about="">
        <dc:format>image/svg+xml</dc:format>
        <dc:type
           rdf:resource="http://purl.org/dc/dcmitype/StillImage" />
        <dc:title></dc:title>
      </cc:Work>
    </rdf:RDF>
  </metadata>
  <defs
     id="defs3717" />
  <sodipodi:namedview
     pagecolor="#ffffff"
     bordercolor="#666666"
     borderopacity="1"
     objecttolerance="10"
     gridtolerance="10"
     guidetolerance="10"
     inkscape:pageopacity="0"
     inkscape:pageshadow="2"
     inkscape:window-width="1920"
     inkscape:window-height="1017"
     id="namedview3715"
     showgrid="false"
     inkscape:zoom="1.1683835"
     inkscape:cx="291.01837"
     inkscape:cy="247.94091"
     inkscape:window-x="-8"
     inkscape:window-y="-8"
     inkscape:window-maximized="1"
     inkscape:current-layer="svg3713" />
  <path
     style="fill:#000000;stroke:#000000;stroke-width:1px;stroke-linecap:butt;stroke-linejoin:miter;stroke-opacity:1"
     d="m 127.8487,106.96927 c 0,0 7.56501,0.7565 21.33333,-1.96691 13.76832,-2.7234 50.98818,-9.078011 58.40189,-11.196214 7.41372,-2.118203 36.31206,-8.624113 44.63357,-9.985815 8.32152,-1.361703 24.35934,-5.598109 30.86525,-2.420804 6.50591,3.177305 12.25532,9.380614 10.43972,11.347517 -1.8156,1.966904 -15.43263,5.144209 -24.35934,5.295509 -8.92671,0.1513 -40.69976,1.361702 -51.29078,4.236407 -10.59102,2.8747 -34.19385,9.22931 -37.37116,10.28842 -3.1773,1.0591 -15.43262,2.1182 -20.27423,9.07801 -4.84161,6.95981 -7.56501,9.07801 -19.36643,4.99291 -11.80142,-4.08511 -22.69504,-11.19622 -23.30024,-13.46572 -0.6052,-2.26951 -2.12301,-7.07528 1.08655,-7.18226 3.20957,-0.10699 9.20187,0.97895 9.20187,0.97895 z"
     id="path3723"
     inkscape:connector-curvature="0" />
  <path
     style="fill:#000000;stroke:#000000;stroke-width:1px;stroke-linecap:butt;stroke-linejoin:miter;stroke-opacity:1"
     d="m 226.8091,123.001 c 0,0 15.19193,9.20075 18.82943,12.19634 3.63751,2.99559 13.05222,9.62869 10.69854,17.54561 -2.35368,7.91692 -6.20515,24.1787 -8.7728,30.8118 -2.56765,6.6331 -13.05222,33.37945 -15.4059,38.94269 -2.35368,5.56325 -4.92133,10.48458 -6.41913,10.91252 -1.49779,0.42794 -1.49779,-18.18752 0.21397,-28.03018 1.71177,-9.84266 7.27501,-39.15667 7.70295,-43.00814 0.42795,-3.85148 2.52351,-11.374 -2.6207,-19.99812 -5.14421,-8.62411 -11.04492,-14.22222 -12.10402,-16.34042 -1.0591,-2.11821 -0.52955,-2.49646 0.52955,-3.70686 1.0591,-1.2104 7.34811,0.67476 7.34811,0.67476 z"
     id="path3725"
     inkscape:connector-curvature="0" />
  <path
     style="fill:#000000;stroke:#000000;stroke-width:1px;stroke-linecap:butt;stroke-linejoin:miter;stroke-opacity:1"
     d="m 134.95981,156.89834 c 0,0 13.76832,2.57211 24.20804,-1.3617 10.43972,-3.9338 23.30024,-6.95981 25.26714,-10.43971 1.9669,-3.47991 6.50591,-6.35461 12.70922,-2.87471 6.20331,3.47991 16.64302,9.22932 17.70213,12.70922 1.0591,3.47991 2.7234,8.62412 -4.38771,17.55083 -7.11111,8.92671 -6.80851,13.61702 -7.71631,17.24823 -0.9078,3.6312 -3.42848,10.51398 -4.92627,13.72354 -1.4978,3.20956 -3.63751,5.45626 -4.70736,5.24228 -1.06986,-0.21397 -2.99559,-7.59596 -2.99559,-14.657 0,-7.06104 0.85588,-21.61105 -0.7489,-23.85775 -1.60478,-2.24669 -1.4978,-5.02831 -9.94965,-2.03272 -8.45184,2.99559 -22.46693,9.62869 -26.53238,7.80994 -4.06545,-1.81876 -12.51729,-7.59597 -15.61987,-10.27061 -3.10258,-2.67463 -5.67023,-6.20515 -5.8842,-7.38199 -0.21397,-1.17684 3.58171,-1.40785 3.58171,-1.40785 z"
     id="path3727"
     inkscape:connector-curvature="0" />
  <path
     style="fill:#000000;stroke:#000000;stroke-width:1px;stroke-linecap:butt;stroke-linejoin:miter;stroke-opacity:1"
     d="m 113.29756,167.39995 c 0,0 19.36436,5.24229 22.25297,12.08935 2.88861,6.84707 5.8842,14.12208 6.09817,20.64819 0.21397,6.52611 0.85588,11.34046 0.7489,15.4059 -0.10699,4.06545 0.64191,13.80112 0.21397,14.33605 -0.42794,0.53493 -9.5217,-7.382 -10.59156,-11.23347 -1.06985,-3.85148 -1.81875,-15.51289 -4.60037,-19.89929 -2.78162,-4.3864 -7.382,-14.22906 -10.59156,-17.43862 -3.20956,-3.20957 -6.74008,-6.09817 -10.05663,-7.80994 -3.31655,-1.71177 -2.46066,-4.49339 -2.03272,-6.74008 0.42794,-2.24669 5.67023,-1.17684 6.52611,-0.64191 0.85588,0.53492 2.03272,1.28382 2.03272,1.28382 z"
     id="path3731"
     inkscape:connector-curvature="0" />
  <path
     style="fill:#000000;stroke:#000000;stroke-width:1px;stroke-linecap:butt;stroke-linejoin:miter;stroke-opacity:1"
     d="m 139.72577,208.94563 c 9.30496,-0.1513 17.02128,-1.21041 22.16548,-2.11821 5.14421,-0.9078 18.76123,-3.25295 22.24114,-5.06856 3.4799,-1.8156 11.19622,-4.31205 16.79432,-3.10165 5.59811,1.2104 13.08747,2.2695 12.40662,4.16076 -0.68085,1.89125 -1.6643,6.80851 -4.6903,7.03546 -3.02601,0.22695 -6.43026,-0.4539 -13.69268,1.28605 -7.26241,1.73995 -19.44208,4.00946 -23.60283,4.91726 -4.16076,0.9078 -16.11348,2.2695 -18.91253,2.49645 -2.79906,0.22695 -8.39716,0.22695 -9.53192,-0.22695 -1.13475,-0.4539 -2.7234,-1.43735 -3.7825,-3.1773 -1.0591,-1.73996 -1.96691,-1.96691 -1.96691,-3.55556 0,-1.58865 0,-2.19385 0.52956,-2.49645 0.52955,-0.3026 1.43735,-0.22695 2.04255,-0.1513 z"
     id="path3733"
     inkscape:connector-curvature="0" />
  <path
     style="fill:#000000;stroke:#000000;stroke-width:1px;stroke-linecap:butt;stroke-linejoin:miter;stroke-opacity:1"
     d="m 27.602239,268.28721 c 8.130892,2.46066 14.122076,4.3864 24.606648,0 10.484571,-4.38641 39.691592,-13.58715 44.184979,-14.44304 4.493384,-0.85588 36.482034,-9.30773 45.468804,-11.44744 8.98678,-2.13971 53.81367,-12.08935 61.40963,-13.58715 7.59597,-1.49779 52.74382,-10.2706 58.735,-10.16361 5.99119,0.10698 25.78349,0.32096 28.6721,4.17243 2.8886,3.85148 -2.67464,7.06104 -7.27501,7.27501 -4.60038,0.21397 -27.06732,3.95846 -34.34232,1.60478 -7.27501,-2.35368 -33.70041,4.70736 -41.29638,5.34927 -7.59596,0.64191 -40.22652,5.77721 -50.6041,9.73568 -10.37759,3.95846 -33.91438,9.41471 -41.08241,13.1592 -7.16802,3.74449 -29.207016,12.08936 -33.700404,14.76399 -4.493388,2.67464 -16.582741,8.98678 -20.969143,10.69854 -4.386402,1.71177 -10.805528,7.91692 -23.750764,-0.32095 -12.945236,-8.23788 -17.973551,-12.08936 -18.93642,-14.87098 -0.962869,-2.78162 1.604781,-4.81434 3.530519,-3.95846 1.925738,0.85589 5.349271,2.03273 5.349271,2.03273 z"
     id="path3735"
     inkscape:connector-curvature="0" />
  <path
     style="fill:#000000;stroke:#000000;stroke-width:1px;stroke-linecap:butt;stroke-linejoin:miter;stroke-opacity:1"
     d="m 134.05201,275.66903 c 5.66708,1.0278 5.17961,2.2404 11.95272,0 11.72276,-3.87764 22.54373,-3.78251 25.72104,-7.11111 3.1773,-3.32861 6.05201,-7.41371 11.19622,-9.38062 5.1442,-1.9669 11.80141,-3.4799 17.39952,-1.9669 5.59811,1.513 22.08984,6.05201 20.27423,12.55792 -1.8156,6.50591 -6.052,10.43972 -10.89361,20.27423 -4.84161,9.83452 -8.01891,19.82033 -8.77542,22.69504 -0.7565,2.8747 -3.6312,8.17021 -5.90071,13.16312 -2.2695,4.99291 -9.53191,14.07092 -9.38061,1.6643 0.1513,-12.40662 4.53901,-32.52955 4.84161,-38.73286 0.3026,-6.20331 3.3286,-14.07092 -3.32861,-12.55792 -6.65721,1.513 -22.39243,10.59102 -25.41844,11.80142 -3.026,1.2104 -14.52482,6.65721 -19.66903,2.4208 -5.14421,-4.2364 -11.19622,-8.77541 -11.80142,-11.04491 -0.6052,-2.26951 1.81561,-4.53901 2.26951,-4.53901 0.4539,0 0.95819,0.65588 1.513,0.7565 z"
     id="path3737"
     inkscape:connector-curvature="0"
     sodipodi:nodetypes="ssccscsccssscccss" />
  <path
     style="fill:#000000;stroke:#000000;stroke-width:1px;stroke-linecap:butt;stroke-linejoin:miter;stroke-opacity:1"
     d="m 100.88725,284.54899 c 0,0 15.40591,-1.39081 21.50407,4.49339 6.09817,5.8842 9.09377,8.7728 10.37759,15.94083 1.28383,7.16802 5.1353,17.75958 5.1353,24.07172 0,6.31214 1.17684,17.65259 1.39081,19.57833 0.21397,1.92574 0.21397,10.2706 -4.3864,6.41912 -4.60037,-3.85147 -10.16362,-15.72685 -11.7684,-22.03899 -1.60478,-6.31214 -4.81434,-17.01069 -6.31214,-20.96915 -1.49779,-3.95846 -4.17243,-11.87538 -8.98677,-15.08494 -4.81435,-3.20956 -9.949648,-4.92133 -11.340458,-6.74008 -1.390811,-1.81875 -3.102577,-4.3864 -0.106986,-5.24229 2.995592,-0.85588 4.493384,-0.42794 4.493384,-0.42794 z"
     id="path3739"
     inkscape:connector-curvature="0" />
  <path
     style="fill:#000000;stroke:#000000;stroke-width:1px;stroke-linecap:butt;stroke-linejoin:miter;stroke-opacity:1"
     d="m 136.77541,332.55792 c 0,0 13.16312,-3.02601 19.06383,-4.84161 5.90071,-1.8156 19.97163,-5.90071 21.33334,-6.20331 1.3617,-0.3026 6.35461,-2.7234 8.47281,-4.539 2.1182,-1.81561 7.86761,-2.57211 14.82742,-1.05911 6.95981,1.51301 16.18913,4.23641 15.43263,5.14421 -0.7565,0.9078 -1.3617,3.78251 -5.90071,5.59811 -4.53901,1.8156 -18.30733,6.95981 -24.20804,8.62411 -5.90071,1.66431 -16.03782,5.44681 -22.84634,7.11111 -6.80851,1.66431 -16.49172,4.38771 -20.72813,4.38771 -4.2364,0 -7.56501,-4.2364 -10.13711,-6.65721 -2.57211,-2.4208 -3.32861,-2.7234 -3.32861,-5.14421 0,-2.4208 2.1182,-3.026 4.08511,-3.026 1.9669,0 3.9338,0.6052 3.9338,0.6052 z"
     id="path3741"
     inkscape:connector-curvature="0" />
  <path
     style="fill:#000000;stroke:#000000;stroke-width:1px;stroke-linecap:butt;stroke-linejoin:miter;stroke-opacity:1"
     d="m 222.86525,237.23877 c 0,0 8.92671,4.38771 12.55792,7.41371 3.6312,3.02601 7.71631,8.32151 8.92671,10.43972 1.2104,2.1182 4.84161,4.84161 1.96691,11.04492 -2.87471,6.20331 -4.23641,5.9007 -4.08511,14.37352 0.1513,8.47281 -1.2104,30.56265 -1.6643,37.52246 -0.4539,6.95981 -3.02601,41.75886 -2.42081,44.93617 0.6052,3.1773 0.3026,22.39243 1.2104,29.80614 0.90781,7.41372 2.87471,16.64303 0.75651,24.51064 -2.11821,7.86761 -3.93381,18.91253 -5.29551,22.08984 -1.3617,3.1773 -5.29551,9.98581 -13.01182,3.026 -7.71632,-6.95981 -26.32624,-22.08983 -31.01655,-25.41844 -4.69031,-3.3286 -13.61702,-14.37352 -15.28133,-17.55083 -1.6643,-3.1773 -7.71631,-9.83451 3.78251,-5.4468 11.49882,4.3877 23.45154,12.10401 29.35225,11.19621 5.90071,-0.9078 18.15602,4.69031 18.30732,-10.43971 0.15131,-15.13003 2.57211,-52.04728 2.26951,-58.40189 -0.3026,-6.35461 0,-46.90308 0.3026,-53.40899 0.3026,-6.50591 1.2104,-14.37352 1.9669,-16.18912 0.7565,-1.81561 0.3026,-6.20331 -1.8156,-9.53192 -2.1182,-3.3286 -6.95981,-11.04492 -11.49882,-14.97872 -4.53901,-3.93381 -6.35461,-4.53901 -8.62411,-5.59811 -2.26951,-1.0591 -3.32861,-3.17731 -2.11821,-3.63121 1.21041,-0.4539 9.38062,1.05911 10.74232,1.36171 1.3617,0.3026 4.69031,2.8747 4.69031,2.8747 z"
     id="path3743"
     inkscape:connector-curvature="0" />
  <path
     style="fill:#000000;stroke:#000000;stroke-width:1px;stroke-linecap:butt;stroke-linejoin:miter;stroke-opacity:1"
     d="m 320.10039,111.66055 c 0,0 4.49338,11.76839 7.48898,13.26619 2.99559,1.49779 5.1353,4.70736 10.69854,6.41912 5.56324,1.71177 15.83384,4.27942 18.18752,12.19634 2.35368,7.91692 6.41913,11.98237 2.56765,21.39709 -3.85147,9.41471 -10.48457,23.53679 -14.55002,30.16989 -4.06544,6.63309 -15.83384,25.24856 -18.82943,29.314 -2.99559,4.06545 -16.26179,17.75958 -20.5412,22.25297 -4.27942,4.49339 -15.61987,17.11767 -18.82944,18.82943 -3.20956,1.71177 -10.05663,4.06545 -16.47575,1.4978 -6.41913,-2.56765 -8.55884,-1.92574 2.13971,-10.05663 10.69854,-8.13089 32.09562,-30.16989 38.30078,-41.29637 6.20515,-11.12649 20.5412,-34.23534 22.46694,-45.14785 1.92573,-10.91251 5.77721,-15.83384 -1.71177,-25.03459 -7.48898,-9.20075 -16.04781,-20.11326 -16.47576,-27.81621 -0.42794,-7.70295 1.06986,-12.19634 2.13971,-11.98237 1.06986,0.21397 3.42354,5.99119 3.42354,5.99119 z"
     id="path3745"
     inkscape:connector-curvature="0" />
  <path
     style="fill:#000000;stroke:#000000;stroke-width:1px;stroke-linecap:butt;stroke-linejoin:miter;stroke-opacity:1"
     d="m 355.40426,180.04728 c 12.25531,1.9669 20.87943,0.6052 27.53664,-0.7565 6.65721,-1.3617 24.51064,-3.93381 26.02364,-4.53901 1.513,-0.6052 11.34752,-1.513 14.22222,-8.92671 2.87471,-7.41371 4.08511,-14.07092 10.43972,-12.25532 6.35461,1.8156 10.28841,5.90071 13.01182,10.28842 2.7234,4.3877 7.56501,11.49881 4.84161,15.13002 -2.72341,3.6312 -20.87944,9.83451 -24.81324,14.82742 -3.93381,4.99291 -13.46572,17.39953 -17.55083,23.45154 -4.08511,6.05201 -14.67612,18.00473 -17.70213,21.63593 -3.026,3.63121 -8.47281,9.53192 -18.15603,11.34752 -9.68321,1.8156 -13.76832,1.513 -16.34042,0 -2.57211,-1.513 -5.97636,-2.4208 -4.23641,-3.93381 1.73995,-1.513 17.85343,-9.00236 22.84634,-13.61702 4.99291,-4.61465 17.75123,-17.47732 21.28175,-25.60822 3.53051,-8.13089 5.34927,-11.44744 5.56324,-12.62428 0.21397,-1.17684 1.39081,-4.70735 -2.99559,-1.71176 -4.38641,2.99559 -31.13276,2.78162 -33.91438,1.28382 -2.78163,-1.49779 -8.55884,-4.92133 -10.2706,-6.74008 -1.71177,-1.81875 -4.17244,-3.74449 -4.27942,-4.70736 -0.10699,-0.96287 1.39081,-3.20956 2.56765,-3.10258 1.17684,0.10699 1.92442,0.55798 1.92442,0.55798 z"
     id="path3747"
     inkscape:connector-curvature="0" />
  <path
     style="fill:#000000;stroke:#000000;stroke-width:1px;stroke-linecap:butt;stroke-linejoin:miter;stroke-opacity:1"
     d="m 328.01731,226.34892 c 0,0 6.84706,4.92133 7.91692,12.19634 1.06985,7.27501 2.56765,19.25737 0.85588,25.46253 -1.71176,6.20515 -5.56324,20.75517 -7.70295,27.60224 -2.13971,6.84707 -10.2706,28.88606 -14.12207,35.9471 -3.85148,7.06104 -12.62428,22.89488 -18.4015,27.60224 -5.77721,4.70736 -14.33604,13.9081 -18.61546,14.12208 -4.27942,0.21397 -6.84707,1.71176 -12.41031,-4.06545 -5.56324,-5.77721 -12.19634,-11.7684 -9.62869,-1.71177 2.56765,10.05663 9.84266,16.47576 12.41031,18.61547 2.56765,2.1397 6.20516,8.13089 14.97796,3.20956 8.77281,-4.92133 24.60665,-20.11326 28.03018,-24.82062 3.42354,-4.70736 18.82944,-29.52798 18.82944,-30.38386 0,-0.85588 11.12648,-27.38827 13.48016,-36.80299 2.35368,-9.41471 11.34045,-35.9471 11.98237,-42.58019 0.64191,-6.6331 0.85588,-14.55002 -8.77281,-19.89929 -9.62869,-5.34927 -16.70962,-7.97706 -18.29828,-8.27966 -1.58865,-0.3026 -3.026,0.6052 -2.4208,1.6643 0.6052,1.0591 1.88965,2.12197 1.88965,2.12197 z"
     id="path3749"
     inkscape:connector-curvature="0" />
  <path
     style="fill:#000000;stroke:#000000;stroke-width:1px;stroke-linecap:butt;stroke-linejoin:miter;stroke-opacity:1"
     d="m 360.75485,295.24753 c 14.76399,5.34927 27.60224,9.84266 35.30519,12.62428 7.70295,2.78162 28.67209,12.19634 33.16548,14.76399 4.49339,2.56765 29.74195,20.11326 35.30519,23.96474 5.56324,3.85147 22.46694,14.97795 27.38827,20.96914 4.92133,5.99118 12.19633,16.9037 0.21397,13.48016 -11.98237,-3.42353 -36.16108,-9.62869 -39.79858,-10.91251 -3.6375,-1.28383 -6.41913,-4.27942 -2.35368,-6.84707 4.06545,-2.56765 -1.4978,-4.92133 -13.69413,-10.69854 -12.19634,-5.77721 -33.59343,-17.54561 -44.29197,-25.03459 -10.69854,-7.48898 -24.39268,-16.47575 -29.10003,-20.75517 -4.70736,-4.27942 -8.34487,-7.48898 -8.55884,-9.62869 -0.21397,-2.13971 -0.21397,-4.49339 1.28383,-4.70736 1.49779,-0.21397 5.1353,2.78162 5.1353,2.78162 z"
     id="path3751"
     inkscape:connector-curvature="0" />
</svg>
