<?xml version="1.0" encoding="UTF-8" standalone="no"?>
<!-- Created with Inkscape (http://www.inkscape.org/) -->

<svg
   xmlns:dc="http://purl.org/dc/elements/1.1/"
   xmlns:cc="http://creativecommons.org/ns#"
   xmlns:rdf="http://www.w3.org/1999/02/22-rdf-syntax-ns#"
   xmlns:svg="http://www.w3.org/2000/svg"
   xmlns="http://www.w3.org/2000/svg"
   xmlns:sodipodi="http://sodipodi.sourceforge.net/DTD/sodipodi-0.dtd"
   xmlns:inkscape="http://www.inkscape.org/namespaces/inkscape"
   version="1.1"
   id="svg3713"
   width="512"
   height="512"
   viewBox="0 0 512 512"
   sodipodi:docname="U+6F54.svg"
   inkscape:version="0.92.4 (5da689c313, 2019-01-14)">
  <metadata
     id="metadata3719">
    <rdf:RDF>
      <cc:Work
         rdf:about="">
        <dc:format>image/svg+xml</dc:format>
        <dc:type
           rdf:resource="http://purl.org/dc/dcmitype/StillImage" />
        <dc:title></dc:title>
      </cc:Work>
    </rdf:RDF>
  </metadata>
  <defs
     id="defs3717" />
  <sodipodi:namedview
     pagecolor="#ffffff"
     bordercolor="#666666"
     borderopacity="1"
     objecttolerance="10"
     gridtolerance="10"
     guidetolerance="10"
     inkscape:pageopacity="0"
     inkscape:pageshadow="2"
     inkscape:window-width="1920"
     inkscape:window-height="1017"
     id="namedview3715"
     showgrid="false"
     inkscape:zoom="1.1683835"
     inkscape:cx="198.1264"
     inkscape:cy="156.9477"
     inkscape:window-x="-8"
     inkscape:window-y="-8"
     inkscape:window-maximized="1"
     inkscape:current-layer="svg3713" />
  <path
     style="fill:#000000;stroke:#000000;stroke-width:1px;stroke-linecap:butt;stroke-linejoin:miter;stroke-opacity:1"
     d="m 113.83249,105.02745 c 11.34046,-2.88861 20.32723,-5.777213 27.28128,-4.17243 6.95406,1.60478 20.5412,4.92133 23.00187,7.59596 2.46066,2.67464 2.88861,9.62869 -0.32096,13.37318 -3.20956,3.74449 -9.5217,6.31214 -14.01509,4.92133 -4.49339,-1.39081 -14.657,-4.92133 -20.22024,-6.31214 -5.56324,-1.39081 -15.83385,-3.10258 -19.25738,-4.70736 -3.42353,-1.60478 -8.98677,-3.95846 -3.85147,-6.95405 5.1353,-2.99559 7.38199,-3.74449 7.38199,-3.74449 z"
     id="path3764"
     inkscape:connector-curvature="0" />
  <path
     style="fill:#000000;stroke:#000000;stroke-width:1px;stroke-linecap:butt;stroke-linejoin:miter;stroke-opacity:1"
     d="m 59.055954,192.22057 c 0,0 14.229061,1.06985 19.899288,-1.28383 5.670228,-2.35367 17.010683,-3.53051 22.680908,-0.32095 5.67023,3.20956 13.90811,10.59156 14.55002,15.08494 0.64191,4.49339 1.81875,8.45185 -0.42794,12.30333 -2.2467,3.85147 -6.52611,8.7728 -11.12649,6.95405 -4.60037,-1.81875 -6.419121,-5.1353 -10.484567,-7.16802 -4.065447,-2.03273 -8.023907,-2.9956 -14.97796,-4.49339 -6.954052,-1.4978 -17.224653,-6.84707 -19.471347,-8.55884 -2.246694,-1.71176 -5.381081,-3.8868 -5.834982,-6.68585 -0.4539,-2.79906 -0.22695,-4.99291 1.134752,-5.59811 1.361702,-0.6052 4.058318,-0.23333 4.058318,-0.23333 z"
     id="path3766"
     inkscape:connector-curvature="0" />
  <path
     style="fill:#000000;stroke:#000000;stroke-width:1px;stroke-linecap:butt;stroke-linejoin:miter;stroke-opacity:1"
     d="m 82.485761,311.83027 c 0,0 6.954053,8.66582 8.66582,10.59156 1.711766,1.92574 3.744489,4.06545 4.921329,5.02831 1.17684,0.96287 5.34927,9.84266 11.55443,-6.95405 6.20515,-16.79671 13.26619,-25.56951 16.15479,-31.02577 2.88861,-5.45626 5.8842,-11.34046 6.6331,-11.7684 0.7489,-0.42794 1.39081,0.64192 0.85588,11.87538 -0.53492,11.23347 -0.74889,21.71805 -0.85588,27.1743 -0.10698,5.45626 -0.32096,17.22466 1.39081,20.86216 1.71177,3.6375 3.10258,5.77721 -1.17684,12.94524 -4.27942,7.16802 -14.12207,16.90369 -18.61546,19.36436 -4.49339,2.46066 -13.801121,7.48898 -18.080538,0.96287 -4.279417,-6.52611 -7.48898,-24.07172 -6.954053,-27.81621 0.534927,-3.74449 -2.353679,-7.48898 -4.600373,-12.62428 -2.246694,-5.1353 -3.316548,-11.7684 -3.637504,-13.90811 -0.320957,-2.13971 -0.641913,-5.1353 -0.05349,-5.67023 0.58842,-0.53492 3.797982,0.96287 3.797982,0.96287 z"
     id="path3768"
     inkscape:connector-curvature="0" />
  <path
     style="fill:#000000;stroke:#000000;stroke-width:1px;stroke-linecap:butt;stroke-linejoin:miter;stroke-opacity:1"
     d="m 200.69976,123.08274 c 0,0 16.94563,-5.44681 20.80379,-7.03546 3.85815,-1.58865 28.59574,-10.13712 32.07565,-11.80142 3.4799,-1.6643 7.33806,-2.49645 11.27186,-5.900707 3.93381,-3.404255 12.10402,-3.252955 17.47518,-0.378251 5.37116,2.874708 9.00237,5.598108 3.17731,8.397168 -5.82506,2.79905 -13.16312,4.8416 -19.13948,6.73286 -5.97636,1.89125 -17.62648,5.06855 -21.40899,6.58156 -3.7825,1.513 -17.70212,6.05201 -21.33333,8.01891 -3.63121,1.9669 -11.04492,5.44681 -15.88653,4.46336 -4.8416,-0.98346 -11.65011,-2.34516 -12.33096,-3.25296 -0.68086,-0.9078 -2.11821,-2.7234 -1.13476,-3.55555 0.98346,-0.83216 4.91726,-1.81561 5.29551,-1.81561 0.37825,0 1.13475,-0.4539 1.13475,-0.4539 z"
     id="path3770"
     inkscape:connector-curvature="0" />
  <path
     style="fill:#000000;stroke:#000000;stroke-width:1px;stroke-linecap:butt;stroke-linejoin:miter;stroke-opacity:1"
     d="m 198.35097,158.62715 c 0,0 8.66582,10.59155 18.82944,6.52611 10.16361,-4.06545 23.53679,-6.84707 27.70922,-6.09817 4.17244,0.7489 18.08054,2.24669 17.75958,5.67023 -0.32095,3.42353 -2.56765,8.7728 -7.70295,12.08935 -5.1353,3.31655 -17.65259,7.70295 -20.5412,8.87979 -2.8886,1.17684 -13.05222,5.34927 -16.36877,6.41912 -3.31655,1.06986 -9.5217,5.02832 -16.1548,-2.35367 -6.63309,-7.382 -7.27501,-15.29892 -10.91251,-17.6526 -3.6375,-2.35368 -8.66582,-5.56324 -5.67023,-7.91692 2.9956,-2.35368 4.06545,-2.2467 5.45626,-5.56324 1.39081,-3.31655 3.6375,-4.27942 5.1353,-2.78162 1.4978,1.49779 2.46066,2.78162 2.46066,2.78162 z"
     id="path3772"
     inkscape:connector-curvature="0" />
  <path
     style="fill:#000000;stroke:#000000;stroke-width:1px;stroke-linecap:butt;stroke-linejoin:miter;stroke-opacity:1"
     d="m 175.81087,242.83688 c 0,0 11.19622,4.08511 21.33334,1.0591 10.13711,-3.026 28.44444,-14.37352 32.98345,-16.03782 4.53901,-1.66431 25.41844,-10.43972 29.50355,-12.70922 4.0851,-2.26951 16.64302,-8.32152 18.00472,-9.38062 1.36171,-1.0591 3.78251,-2.4208 3.93381,-1.3617 0.1513,1.0591 -6.80851,11.19622 -10.89362,14.82742 -4.0851,3.63121 -19.51773,15.58393 -24.81324,19.21513 -5.2955,3.63121 -21.48463,17.85343 -26.17494,21.03074 -4.6903,3.1773 -17.85342,13.16312 -28.74704,8.01891 -10.89362,-5.14421 -18.15603,-10.43972 -20.72813,-14.97873 -2.57211,-4.539 -2.57211,-7.26241 -1.66431,-9.38061 0.9078,-2.1182 7.26241,-0.3026 7.26241,-0.3026 z"
     id="path3774"
     inkscape:connector-curvature="0" />
  <path
     style="fill:#000000;stroke:#000000;stroke-width:1px;stroke-linecap:butt;stroke-linejoin:miter;stroke-opacity:1"
     d="m 224.52955,20.879432 c 0,0 14.82742,6.05201 21.48463,14.524823 6.65721,8.472813 13.31443,12.70922 9.07802,22.997636 -4.23641,10.288416 -10.28842,29.654846 -10.89362,39.338062 -0.6052,9.683217 -5.14421,28.747047 -6.05201,37.825057 -0.9078,9.07802 -3.9338,32.68085 -3.6312,42.36407 0.3026,9.68321 3.026,41.45626 3.6312,47.50827 0.6052,6.05201 2.42081,20.57683 1.2104,26.32624 -1.2104,5.74941 -6.35461,16.03783 -9.38061,8.47282 -3.02601,-7.56502 -8.17021,-34.49646 -7.56501,-44.48227 0.6052,-9.98582 2.7234,-54.46809 3.6312,-61.4279 0.9078,-6.95981 5.14421,-44.48227 7.26241,-53.56028 2.11821,-9.078017 5.74941,-27.536646 5.44681,-36.91726 -0.3026,-9.380615 2.11821,-9.683216 -7.26241,-22.089835 -9.38061,-12.406619 -16.55564,-18.147322 -15.27182,-20.501002 1.28383,-2.353679 2.67464,-2.995592 4.49339,-2.353679 1.81875,0.641913 3.81862,1.975248 3.81862,1.975248 z"
     id="path3776"
     inkscape:connector-curvature="0" />
  <path
     style="fill:#000000;stroke:#000000;stroke-width:1px;stroke-linecap:butt;stroke-linejoin:miter;stroke-opacity:1"
     d="m 325.8776,100.10612 c 0,0 2.56765,2.99559 16.04781,0.21397 13.48017,-2.78162 38.30078,-6.847066 43.43608,-7.702949 5.1353,-0.855883 29.31401,-3.423534 33.16549,-4.92133 3.85147,-1.497796 6.84706,-2.781621 13.05222,-0.855883 6.20515,1.925738 17.33164,6.633096 19.89929,10.484572 2.56765,3.85147 10.48457,13.05222 4.70735,18.61546 -5.77721,5.56325 -22.68091,22.68091 -26.31841,35.09122 -3.6375,12.41031 -7.48898,20.11326 -10.91251,30.38386 -3.42354,10.2706 -13.48017,41.51035 -15.4059,48.78536 -1.92574,7.275 -7.06104,19.25737 -7.70295,23.10885 -0.64192,3.85147 -2.78163,9.62868 -4.49339,11.98236 -1.71177,2.35368 -1.71177,2.35368 -1.71177,2.35368 0,0 -10.05663,3.20957 -8.98677,-9.84266 1.06985,-13.05222 3.42353,-17.33163 1.06985,-24.1787 -2.35368,-6.84707 -5.1353,-13.48016 0.64191,-16.26179 5.77722,-2.78162 13.05222,-1.92573 17.11767,-14.97795 4.06545,-13.05223 11.55443,-38.08682 14.33605,-46.21771 2.78162,-8.13089 15.4059,-33.59342 16.68972,-35.73313 1.28383,-2.13971 4.49339,-8.34486 1.06986,-11.12648 -3.42354,-2.78162 -9.41472,-8.55884 -15.83385,-7.91692 -6.41912,0.64191 -22.25296,4.06544 -28.67209,6.63309 -6.41912,2.56765 -28.03018,10.2706 -32.52357,12.19634 -4.49339,1.92574 -19.25737,13.48016 -26.31841,5.1353 -7.06104,-8.34486 -10.91251,-16.68973 -11.34046,-20.75517 -0.42794,-4.06545 -1.92573,-9.200748 2.78162,-7.488981 4.70736,1.711766 6.20516,2.995591 6.20516,2.995591 z"
     id="path3778"
     inkscape:connector-curvature="0" />
  <path
     style="fill:#000000;stroke:#000000;stroke-width:1px;stroke-linecap:butt;stroke-linejoin:miter;stroke-opacity:1"
     d="m 354.49645,126.7896 c 0,0 11.19622,12.25532 13.91963,16.03782 2.7234,3.78251 9.07801,7.41371 5.90071,15.43263 -3.17731,8.01891 -8.17022,17.39952 -10.28842,22.24113 -2.1182,4.84161 -17.85343,29.04965 -21.63593,33.89125 -3.78251,4.84161 -13.31443,18.76123 -22.39244,26.32625 -9.07801,7.56501 -20.42553,13.91962 -24.81324,16.03782 -4.38771,2.1182 -9.68321,4.84161 -10.74232,5.14421 -1.0591,0.3026 -0.7565,-2.72341 3.47991,-6.20331 4.23641,-3.47991 19.51773,-14.22222 22.54374,-17.39953 3.026,-3.1773 11.49881,-11.65012 13.76832,-16.94562 2.2695,-5.29551 10.59101,-24.05674 11.65012,-26.93145 1.0591,-2.8747 -0.60521,0.6052 1.2104,-3.3286 1.8156,-3.93381 10.74231,-19.06383 11.34751,-23.45154 0.60521,-4.38771 1.51301,-18.76123 1.66431,-23.14893 0.1513,-4.38771 1.0591,-9.98582 0.9078,-12.25532 -0.1513,-2.26951 -0.7565,-4.38771 -0.4539,-5.90071 0.3026,-1.51301 0.9078,-2.26951 1.9669,-1.51301 1.0591,0.75651 1.9669,1.96691 1.9669,1.96691 z"
     id="path3780"
     inkscape:connector-curvature="0" />
  <path
     style="fill:#000000;stroke:#000000;stroke-width:1px;stroke-linecap:butt;stroke-linejoin:miter;stroke-opacity:1"
     d="m 317.63972,180.2382 c 0,0 10.2706,1.60478 16.68973,3.53052 6.41912,1.92574 19.7923,7.70295 21.07613,8.02391 1.28382,0.32095 8.66582,2.24669 12.73126,5.45625 4.06545,3.20957 8.77281,7.16803 5.56324,10.27061 -3.20956,3.10257 -8.0239,5.24228 -11.76839,3.95846 -3.74449,-1.28383 -18.93642,-6.52611 -23.85775,-8.98678 -4.92133,-2.46066 -9.09376,-5.45626 -11.7684,-7.16802 -2.67463,-1.71177 -12.30332,-8.23788 -13.80112,-9.84266 -1.49779,-1.60478 -4.81434,-4.70736 -4.06544,-5.34927 0.74889,-0.64192 4.3864,-0.7489 5.45625,-0.53493 1.06986,0.21397 3.74449,0.64191 3.74449,0.64191 z"
     id="path3782"
     inkscape:connector-curvature="0" />
  <path
     style="fill:#000000;stroke:#000000;stroke-width:1px;stroke-linecap:butt;stroke-linejoin:miter;stroke-opacity:1"
     d="m 266.07275,245.49931 c 0,0 8.34486,4.17243 13.1592,8.45185 4.81435,4.27942 7.91693,7.70295 6.52612,11.7684 -1.39081,4.06544 -5.45626,7.06103 -8.1309,8.66581 -2.67463,1.60479 -9.84266,6.20516 -11.98236,7.48898 -2.13971,1.28383 -5.8842,3.31655 -8.98678,5.77722 -3.10258,2.46066 -6.41912,6.20515 -7.27501,7.27501 -0.85588,1.06985 -5.1353,5.02831 1.71177,5.99118 6.84707,0.96287 18.18752,0.7489 20.75517,1.60478 2.56765,0.85588 9.84266,2.56765 10.91251,4.06545 1.06986,1.49779 2.46067,6.41912 0.96287,8.23787 -1.49779,1.81876 -4.92133,5.67023 -6.95405,6.20516 -2.03272,0.53493 -8.13089,0.53493 -8.66582,0 -0.53493,-0.53493 -1.06985,-3.74449 -5.8842,-3.53052 -4.81434,0.21397 -20.96914,2.67464 -26.53238,3.53052 -5.56324,0.85588 -18.61547,2.46066 -21.71804,2.67463 -3.10258,0.21398 -12.19634,-1.28382 -15.4059,-4.49338 -3.20957,-3.20957 -2.2467,-12.08936 -0.32096,-15.08495 1.92574,-2.99559 5.56324,-9.20074 11.7684,-6.52611 6.20515,2.67464 8.7728,5.02832 13.9081,0.53493 5.1353,-4.49339 17.86657,-17.33164 21.07613,-20.96914 3.20956,-3.63751 11.98237,-13.15921 13.15921,-14.44304 1.17684,-1.28382 2.99559,-4.27941 2.46066,-9.73567 -0.53493,-5.45626 -0.7489,-8.87979 0,-9.41472 0.7489,-0.53492 5.45626,1.92574 5.45626,1.92574 z"
     id="path3784"
     inkscape:connector-curvature="0" />
  <path
     style="fill:#000000;stroke:#000000;stroke-width:1px;stroke-linecap:butt;stroke-linejoin:miter;stroke-opacity:1"
     d="m 329.5151,263.04492 c 3.74449,6.95405 4.49339,8.98678 4.38641,11.87538 -0.10699,2.88861 -1.4978,9.20075 -4.06545,10.80553 -2.56765,1.60478 -7.91692,2.03272 -12.08935,5.24229 -4.17243,3.20956 -10.91252,9.30773 -14.12208,11.98236 -3.20956,2.67464 -27.06731,22.46694 -28.99305,24.82062 -1.92574,2.35368 -13.69413,10.69854 -17.43862,14.44303 -3.74449,3.74449 -15.4059,13.90811 -2.56765,10.48457 12.83825,-3.42353 31.23974,-7.70295 36.48203,-9.5217 5.24228,-1.81875 18.37729,-6.53397 22.765,-7.29048 4.38771,-0.7565 11.19622,-2.4208 12.70922,-1.73995 1.513,0.68085 5.06856,1.89125 3.10166,3.78251 -1.96691,1.89125 -9.15367,5.29551 -12.33097,6.65721 -3.17731,1.3617 -18.76123,8.85106 -22.99764,10.51536 -4.23641,1.66431 -23.30024,9.15367 -27.00709,10.66667 -3.70686,1.513 -25.11584,7.56501 -27.68795,8.54846 -2.5721,0.98346 -13.31442,4.76596 -17.62647,7.11112 -4.31206,2.34515 -12.63357,4.9929 -14.07092,5.1442 -1.43736,0.1513 -6.50591,0.4539 -9.91017,-2.19385 -3.40426,-2.64775 -6.12766,-8.09456 -6.88416,-10.43972 -0.7565,-2.34515 -0.68085,-5.37115 0.1513,-7.48936 0.83215,-2.1182 2.2695,-4.61465 5.06856,-5.52246 2.79905,-0.9078 14.52482,-1.43735 18.76123,-2.49645 4.2364,-1.0591 7.71631,1.13475 18.15602,-7.64066 10.43972,-8.77542 28.3688,-23.67849 29.95745,-25.34279 1.58865,-1.6643 22.01419,-23.75414 23.60284,-25.94799 1.58865,-2.19386 13.23877,-12.02837 17.62648,-16.18913 4.3877,-4.16075 12.25532,-8.24586 13.91962,-13.16312 1.6643,-4.91726 4.16075,-8.62411 5.59811,-9.15366 1.43735,-0.52955 3.1773,-0.22695 4.00945,0.37825 0.83215,0.6052 1.49619,1.67376 1.49619,1.67376 z"
     id="path3786"
     inkscape:connector-curvature="0" />
  <path
     style="fill:#000000;stroke:#000000;stroke-width:1px;stroke-linecap:butt;stroke-linejoin:miter;stroke-opacity:1"
     d="m 312.13239,316.06619 c 0,0 13.16312,0.7565 19.82033,1.51301 6.65721,0.7565 17.09693,3.3286 21.93853,6.20331 4.84161,2.8747 13.31442,8.62411 14.22223,11.49881 0.9078,2.87471 2.8747,7.86762 -4.84161,8.47282 -7.71631,0.6052 -20.27423,-3.32861 -24.35934,-5.44681 -4.08511,-2.1182 -18.60993,-11.04492 -21.18203,-13.01182 -2.57211,-1.9669 -7.56502,-4.23641 -8.92672,-6.05201 -1.3617,-1.8156 -2.45102,-3.61524 -0.0973,-3.56175 2.35368,0.0535 3.42595,0.38444 3.42595,0.38444 z"
     id="path3788"
     inkscape:connector-curvature="0" />
  <path
     style="fill:#000000;stroke:#000000;stroke-width:1px;stroke-linecap:butt;stroke-linejoin:miter;stroke-opacity:1"
     d="m 188.67139,401.39953 c -0.4539,4.9929 -1.6643,9.22931 -1.2104,14.37352 0.4539,5.14421 1.81561,14.07092 2.57211,15.58392 0.7565,1.51301 1.8156,7.56502 0.7565,10.74232 -1.0591,3.17731 -4.53901,11.95272 -5.44681,12.25532 -0.9078,0.3026 -9.38061,-1.0591 -12.86052,-5.44681 -3.47991,-4.38771 -9.83452,-13.61702 -10.28842,-16.49172 -0.4539,-2.87471 0,-9.83452 1.51301,-11.04492 1.513,-1.2104 6.50591,-6.95981 8.01891,-8.32151 1.513,-1.36171 6.05201,-6.05201 6.95981,-7.56502 0.9078,-1.513 4.08511,-6.20331 5.14421,-6.80851 1.0591,-0.6052 4.2364,-0.4539 4.2364,-0.4539 z"
     id="path3790"
     inkscape:connector-curvature="0" />
  <path
     style="fill:#000000;stroke:#000000;stroke-width:1px;stroke-linecap:butt;stroke-linejoin:miter;stroke-opacity:1"
     d="m 274.63158,369.28145 c 0,0 14.33605,3.10257 17.54561,8.34486 3.20956,5.24228 4.60037,7.80993 4.49339,14.33605 -0.10699,6.52611 -1.02992,33.79651 -1.02992,39.39461 0,5.59811 -1.2104,31.01655 -1.3617,37.21986 -0.1513,6.20331 -2.79905,18.98818 -3.78251,21.71159 -0.98345,2.7234 -4.91725,9.60756 -10.81796,4.3877 -5.90071,-5.21986 -7.56501,-9.53191 -8.39717,-12.10402 -0.83215,-2.5721 -3.026,-8.62411 -5.1442,-10.59101 -2.11821,-1.96691 -6.20331,-6.27896 -6.65721,-7.94327 -0.4539,-1.6643 0.22695,-4.6903 1.58865,-4.61465 1.3617,0.0756 7.71631,2.95035 8.85106,3.85815 1.13475,0.90781 5.90071,4.00946 6.65721,4.08511 0.7565,0.0756 3.10166,1.513 3.85816,-6.50591 0.7565,-8.01891 2.64844,-34.8768 2.43447,-45.36137 -0.21397,-10.48457 0.89413,-19.62208 -2.13187,-26.58189 -3.02601,-6.95981 -8.39716,-14.07092 -9.68322,-15.65958 -1.28605,-1.58865 -1.8156,-4.00945 -1.2104,-4.8416 0.6052,-0.83216 4.78761,0.86537 4.78761,0.86537 z"
     id="path3792"
     inkscape:connector-curvature="0" />
  <path
     style="fill:#000000;stroke:#000000;stroke-width:1px;stroke-linecap:butt;stroke-linejoin:miter;stroke-opacity:1"
     d="m 351.34013,383.72448 c 0,0 22.46694,5.34927 27.9232,9.62869 5.45625,4.27941 12.30332,12.73126 13.48016,18.93642 1.17684,6.20515 3.74449,13.9081 4.17243,20.86215 0.42794,6.95406 0.21397,15.51289 -0.53493,16.36877 -0.74889,0.85589 -7.70295,0.64192 -11.0195,-2.03272 -3.31654,-2.67464 -9.73567,-15.72686 -11.66141,-18.08054 -1.92573,-2.35368 -12.73126,-24.28569 -15.08494,-27.81621 -2.35368,-3.53052 -7.48898,-9.30773 -9.41472,-11.34045 -1.92574,-2.03272 -4.97482,-3.90497 -5.29578,-5.1353 -0.32095,-1.23033 -1.23033,-2.40717 0.10699,-3.04909 1.33732,-0.64191 3.58401,-0.37445 5.08181,0.37445 1.49779,0.7489 2.40717,1.55129 2.40717,1.55129 z"
     id="path3794"
     inkscape:connector-curvature="0" />
</svg>
