<?xml version="1.0" encoding="UTF-8" standalone="no"?>
<!-- Created with Inkscape (http://www.inkscape.org/) -->

<svg
   xmlns:dc="http://purl.org/dc/elements/1.1/"
   xmlns:cc="http://creativecommons.org/ns#"
   xmlns:rdf="http://www.w3.org/1999/02/22-rdf-syntax-ns#"
   xmlns:svg="http://www.w3.org/2000/svg"
   xmlns="http://www.w3.org/2000/svg"
   xmlns:sodipodi="http://sodipodi.sourceforge.net/DTD/sodipodi-0.dtd"
   xmlns:inkscape="http://www.inkscape.org/namespaces/inkscape"
   version="1.1"
   id="svg10"
   width="512"
   height="512"
   viewBox="0 0 512 512"
   sodipodi:docname="U+71ED.svg"
   inkscape:version="0.92.4 (5da689c313, 2019-01-14)">
  <metadata
     id="metadata16">
    <rdf:RDF>
      <cc:Work
         rdf:about="">
        <dc:format>image/svg+xml</dc:format>
        <dc:type
           rdf:resource="http://purl.org/dc/dcmitype/StillImage" />
        <dc:title></dc:title>
      </cc:Work>
    </rdf:RDF>
  </metadata>
  <defs
     id="defs14" />
  <sodipodi:namedview
     pagecolor="#ffffff"
     bordercolor="#666666"
     borderopacity="1"
     objecttolerance="10"
     gridtolerance="10"
     guidetolerance="10"
     inkscape:pageopacity="0"
     inkscape:pageshadow="2"
     inkscape:window-width="1920"
     inkscape:window-height="1017"
     id="namedview12"
     showgrid="false"
     inkscape:zoom="1.1683835"
     inkscape:cx="447.54754"
     inkscape:cy="178.5941"
     inkscape:window-x="-8"
     inkscape:window-y="-8"
     inkscape:window-maximized="1"
     inkscape:current-layer="svg10" />
  <path
     style="fill:#000000;stroke:#000000;stroke-width:1px;stroke-linecap:butt;stroke-linejoin:miter;stroke-opacity:1"
     d="m 67.177305,186.70449 c 0,0 12.406619,11.49882 17.550827,11.19622 5.144208,-0.3026 15.130024,-1.513 15.735228,5.74941 0.6052,7.26241 0.6052,15.43262 4.539,19.06383 3.93381,3.6312 9.38062,9.98581 7.56502,11.19622 -1.81561,1.2104 -13.919626,0.3026 -17.248231,-2.11821 -3.328605,-2.4208 -21.484634,-16.03782 -26.023641,-23.90544 -4.539007,-7.86761 -3.631205,-10.59101 -6.65721,-16.03782 -3.026005,-5.44681 -2.420804,-4.00946 -3.026005,-5.37116 -0.605201,-1.3617 -0.3026,-4.31206 2.723404,-2.79905 3.026005,1.513 4.841608,3.026 4.841608,3.026 z"
     id="path20"
     inkscape:connector-curvature="0" />
  <path
     style="fill:#000000;stroke:#000000;stroke-width:1px;stroke-linecap:butt;stroke-linejoin:miter;stroke-opacity:1"
     d="m 203.48628,138.62087 c 0,0 6.20515,7.70295 14.55001,7.70295 8.34487,0 10.05663,-1.71176 11.12649,3.85148 1.06985,5.56324 -3.63751,22.039 -5.56325,25.46253 -1.92573,3.42353 -8.98677,12.41031 -14.33604,16.26178 -5.34927,3.85148 -14.33605,7.91692 -18.82944,9.84266 -4.49338,1.92574 -11.98236,4.27942 -15.61987,3.42354 -3.6375,-0.85589 -7.27501,-1.71177 -1.06985,-4.92133 6.20515,-3.20957 12.19634,-5.34927 16.26178,-17.75958 4.06545,-12.41031 6.41913,-21.82503 5.1353,-23.75077 -1.28382,-1.92574 -2.13971,-4.49339 -8.34486,-7.91692 -6.20516,-3.42353 5.1353,-11.55442 6.41912,-11.7684 1.28383,-0.21397 3.42354,0.85589 7.06104,-0.21397 3.63751,-1.06985 3.20957,-0.21397 3.20957,-0.21397 z"
     id="path22"
     inkscape:connector-curvature="0" />
  <path
     style="fill:#000000;stroke:#000000;stroke-width:1px;stroke-linecap:butt;stroke-linejoin:miter;stroke-opacity:1"
     d="m 120.25162,105.66936 c 0,0 10.69854,-14.977957 19.0434,-10.484569 8.34486,4.493388 13.05222,8.986779 13.48016,20.755169 0.42795,11.7684 0,24.82062 -0.21397,32.3096 -0.21397,7.48898 -3.20956,68.04273 -5.34927,81.73686 -2.13971,13.69414 -10.69854,57.77213 -14.97796,72.32215 -4.27941,14.55002 -19.25737,58.20007 -25.24856,67.61479 -5.99118,9.41472 -32.095624,32.95151 -55.204475,37.65887 -23.108852,4.70736 -33.058496,2.35368 -34.877248,1.39081 -1.818752,-0.96287 -7.9169214,-2.78162 2.781621,-4.27942 10.698542,-1.4978 34.770262,-11.7684 42.580198,-17.22465 7.809936,-5.45626 32.448432,-20.4146 41.829044,-43.41223 9.38062,-22.99764 20.87944,-51.13948 24.51064,-72.01892 3.63121,-20.87943 9.38062,-40.85106 10.28842,-62.63829 0.9078,-21.78724 3.6312,-51.44208 2.1182,-61.4279 -1.513,-9.98581 -0.32599,-18.44452 -4.07048,-22.61695 -3.74449,-4.17243 -15.29891,-5.24229 -17.33164,-7.48898 -2.03272,-2.24669 -2.78162,-2.88861 -2.24669,-5.56324 0.53493,-2.67464 2.88861,-6.6331 2.88861,-6.6331 z"
     id="path24"
     inkscape:connector-curvature="0" />
  <path
     style="fill:#000000;stroke:#000000;stroke-width:1px;stroke-linecap:butt;stroke-linejoin:miter;stroke-opacity:1"
     d="m 158.44541,263.47286 c 0,0 17.33164,9.62869 21.82503,14.01509 4.49339,4.3864 14.55002,15.83384 14.76399,16.36877 0.21397,0.53493 3.74449,7.06104 1.28382,13.80112 -2.46066,6.74008 -4.92133,11.44744 -11.12648,5.24229 -6.20516,-6.20516 -16.36877,-18.61547 -18.61547,-21.82503 -2.24669,-3.20956 -7.38199,-12.83825 -8.87979,-15.4059 -1.49779,-2.56765 -6.09817,-7.70295 -5.88419,-10.2706 0.21397,-2.56765 3.74449,-2.78162 4.70735,-2.78162 0.96287,0 1.92574,0.85588 1.92574,0.85588 z"
     id="path26"
     inkscape:connector-curvature="0" />
  <path
     style="fill:#000000;stroke:#000000;stroke-width:1px;stroke-linecap:butt;stroke-linejoin:miter;stroke-opacity:1"
     d="m 271.13002,91.990543 c 0,0 4.84161,3.328605 21.93854,-1.059101 17.09692,-4.387707 51.13948,-12.55792 58.70449,-13.314421 7.56501,-0.756501 51.89598,-5.144208 55.82979,-6.959811 3.9338,-1.815603 8.17021,-5.144208 10.89361,-6.20331 2.72341,-1.059101 12.40662,-0.3026 15.88653,1.815603 3.4799,2.118203 17.24823,16.643026 17.24823,21.635934 0,4.992908 -3.78251,9.683215 -5.59811,10.893617 -1.81561,1.210406 -12.25532,4.539006 -16.18913,9.985816 -3.9338,5.44681 -9.53191,8.47281 -12.40662,15.43262 -2.8747,6.95981 -3.9338,9.68322 -5.74941,12.86052 -1.8156,3.17731 -3.9338,8.47282 -8.47281,6.95981 -4.53901,-1.513 -5.44681,-19.21513 -2.4208,-27.68794 3.026,-8.47281 6.50591,-20.728131 7.41371,-26.931441 0.9078,-6.203309 7.41371,-13.617021 -7.86761,-10.137116 -15.28133,3.479906 -52.50119,12.860521 -60.2175,15.432625 -7.71631,2.572104 -38.88416,16.491722 -47.35697,17.399522 -8.47282,0.90781 -10.89362,1.21041 -16.34043,-3.4799 -5.44681,-4.69031 -12.55792,-10.893618 -13.16312,-13.465722 -0.6052,-2.572104 1.6643,-3.631205 4.23641,-3.631205 2.5721,0 3.6312,0.4539 3.6312,0.4539 z"
     id="path28"
     inkscape:connector-curvature="0" />
  <path
     style="fill:#000000;stroke:#000000;stroke-width:1px;stroke-linecap:butt;stroke-linejoin:miter;stroke-opacity:1"
     d="m 239.21941,111.44658 c 0,0 23.32282,7.06103 26.53238,14.76398 3.20956,7.70295 8.55884,22.89488 8.98678,27.60224 0.42794,4.70736 3.42353,14.97796 1.28382,20.75518 -2.13971,5.77721 -5.99118,5.1353 -10.48457,1.06985 -4.49339,-4.06545 -10.2706,-26.31841 -11.7684,-29.74195 -1.49779,-3.42353 -7.275,-16.68972 -11.34045,-19.47135 -4.06545,-2.78162 -8.66582,-5.99118 -9.09376,-8.87979 -0.42794,-2.8886 0.53493,-4.70735 2.03272,-5.45625 1.4978,-0.7489 3.85148,-0.64191 3.85148,-0.64191 z"
     id="path30"
     inkscape:connector-curvature="0" />
  <path
     style="fill:#000000;stroke:#000000;stroke-width:1px;stroke-linecap:butt;stroke-linejoin:miter;stroke-opacity:1"
     d="m 299.72577,110.44917 c 0,0 5.74941,1.2104 3.7825,7.41371 -1.9669,6.20331 -9.53191,25.41844 -9.38061,27.68795 0.1513,2.2695 1.513,2.7234 3.63121,4.9929 2.1182,2.26951 7.56501,4.38771 9.38061,3.63121 1.8156,-0.7565 4.38771,-7.71631 6.20331,-11.34752 1.8156,-3.6312 7.71631,-15.58392 8.17021,-16.79432 0.4539,-1.21041 2.87471,-7.56502 2.11821,-12.55792 -0.75651,-4.99291 -4.38771,-10.59102 -6.80851,-12.70922 -2.42081,-2.118206 -17.85343,3.1773 -17.39953,5.14421 0.4539,1.9669 0.3026,4.539 0.3026,4.539 z"
     id="path32"
     inkscape:connector-curvature="0" />
  <path
     style="fill:#000000;stroke:#000000;stroke-width:1px;stroke-linecap:butt;stroke-linejoin:miter;stroke-opacity:1"
     d="m 343.53019,94.649864 c 0,0 4.60038,15.726856 7.27501,20.327226 2.67464,4.60038 4.70736,10.59156 7.80994,11.55443 3.10258,0.96287 9.5217,1.06985 11.0195,-1.71177 1.49779,-2.78162 3.6375,-4.81434 1.60478,-8.87979 -2.03272,-4.06544 -8.77281,-10.05663 -11.12649,-13.05222 -2.35367,-2.995591 -9.09376,-10.698541 -9.62868,-11.982366 -0.53493,-1.283825 -5.99119,-1.283825 -6.52611,0.213971 -0.53493,1.497796 -0.42795,3.530519 -0.42795,3.530519 z"
     id="path34"
     inkscape:connector-curvature="0" />
  <path
     style="fill:#000000;stroke:#000000;stroke-width:1px;stroke-linecap:butt;stroke-linejoin:miter;stroke-opacity:1"
     d="m 271.74298,160.12494 c 0,0 20.11325,-3.53052 27.17429,-4.70736 7.06104,-1.17684 61.83758,-12.94523 66.11699,-14.12207 4.27942,-1.17684 18.29451,-3.74449 21.18312,-4.06545 2.8886,-0.32095 5.02831,-0.64191 8.0239,-4.70736 2.9956,-4.06544 21.82503,-1.71176 30.59784,1.71177 8.7728,3.42353 14.55001,6.52611 15.4059,7.80994 0.85588,1.28382 -1.71177,4.81434 -12.08936,5.34927 -10.37758,0.53492 -53.59969,2.24669 -63.97728,3.31655 -10.37759,1.06985 -40.65446,5.88419 -46.9666,7.80993 -6.31214,1.92574 -14.44303,2.78162 -20.11326,5.67023 -5.67023,2.88861 -14.87097,2.88861 -17.54561,2.35368 -2.67463,-0.53493 -7.16802,-1.71177 -8.34486,-3.20956 -1.17684,-1.4978 0.53493,-3.20957 0.53493,-3.20957 z"
     id="path36"
     inkscape:connector-curvature="0" />
  <path
     style="fill:#000000;stroke:#000000;stroke-width:1px;stroke-linecap:butt;stroke-linejoin:miter;stroke-opacity:1"
     d="m 319.88642,172.00032 c 0,0 12.94523,1.71177 16.36877,6.74009 3.42353,5.02831 4.92132,10.91251 0.64191,13.80112 -4.27942,2.8886 -22.039,16.79671 -25.89047,19.7923 -3.85148,2.99559 -5.45626,6.74008 -13.05223,8.98677 -7.59596,2.2467 -11.23347,3.42354 -12.73126,3.10258 -1.4978,-0.32095 -0.7489,-0.85588 2.67463,-4.49339 3.42354,-3.6375 17.43863,-15.72685 20.11326,-20.96914 2.67464,-5.24228 9.41472,-14.97796 6.95406,-19.57833 -2.46067,-4.60037 -2.2467,-7.91692 -0.7489,-8.13089 1.49779,-0.21397 5.67023,0.74889 5.67023,0.74889 z"
     id="path38"
     inkscape:connector-curvature="0" />
  <path
     style="fill:#000000;stroke:#000000;stroke-width:1px;stroke-linecap:butt;stroke-linejoin:miter;stroke-opacity:1"
     d="m 353.58682,194.78822 c 0,0 7.48898,1.92574 26.96033,-0.85588 19.47135,-2.78162 49.32028,-5.34927 51.67396,-5.34927 2.35368,0 4.49339,-1.71177 7.48898,-5.02832 2.99559,-3.31655 9.84266,-3.31655 14.44303,-0.32096 4.60038,2.9956 15.29892,13.90811 18.72245,18.08054 3.42353,4.17243 6.84707,9.41472 2.88861,13.37318 -3.95846,3.95846 -8.66582,5.99118 -9.73568,12.19634 -1.06985,6.20515 -15.1538,72.69062 -18.4824,87.51804 -3.32861,14.82742 -10.59102,47.81088 -13.01182,55.37589 -2.4208,7.56501 -14.22222,42.66666 -16.94563,50.23168 -2.7234,7.56501 -10.18816,14.74706 -14.36059,18.49155 -4.17243,3.74449 -9.73567,4.81435 -14.657,1.39081 -4.92133,-3.42353 -25.35555,-21.39708 -28.77908,-24.60664 -3.42353,-3.20957 -8.77281,-9.62869 -9.5217,-11.44744 -0.7489,-1.81876 -3.20957,-6.74008 3.53051,-4.81435 6.74009,1.92574 17.86657,7.06104 23.10886,8.1309 5.24228,1.06985 15.4059,4.17243 19.7923,3.10257 4.3864,-1.06985 13.80112,-5.8842 16.26178,-12.51729 2.46067,-6.6331 14.55002,-46.2177 17.75958,-62.69346 3.20957,-16.47576 8.98678,-54.3486 10.2706,-63.33537 1.28383,-8.98678 4.06545,-33.80739 5.34928,-43.00814 1.28382,-9.20075 2.48896,-16.80662 1.05161,-19.37872 -1.43735,-2.57211 -5.44681,-5.06856 -12.55792,-4.53901 -7.11111,0.52955 -26.09929,1.0591 -32.9078,2.34515 -6.80851,1.28606 -12.93617,1.73996 -20.72813,5.82506 -7.79197,4.08511 -10.13712,6.88416 -18.30733,0.83215 -8.17022,-6.05201 -15.96218,-12.63357 -16.79433,-14.67612 -0.83215,-2.04255 -0.98345,-3.70686 2.04255,-3.70686 3.02601,0 5.44498,-0.61603 5.44498,-0.61603 z"
     id="path40"
     inkscape:connector-curvature="0" />
  <path
     style="fill:#000000;stroke:#000000;stroke-width:1px;stroke-linecap:butt;stroke-linejoin:miter;stroke-opacity:1"
     d="m 262.7562,256.30484 c 0,0 13.9081,2.13971 19.89929,1.06985 5.99118,-1.06985 32.09563,-5.56324 36.58901,-7.27501 4.49339,-1.71176 15.19193,-3.85147 17.75958,-5.1353 2.56765,-1.28382 6.20516,-2.1397 9.41472,-7.27501 3.20956,-5.1353 8.55883,-9.84265 14.12208,-4.70735 5.56324,5.1353 14.33604,10.05663 7.48898,15.61987 -6.84707,5.56324 -14.33605,22.89488 -17.33164,27.1743 -2.99559,4.27941 -8.13089,10.91251 -9.41472,15.19193 -1.28382,4.27941 -1.28382,8.98677 -6.20515,7.91692 -4.92133,-1.06986 -5.56325,-2.35368 -2.35368,-13.69414 3.20956,-11.34045 7.70295,-22.89488 7.91692,-25.46253 0.21397,-2.56765 -1.92574,-7.91692 -6.41913,-5.77721 -4.49339,2.13971 -35.09122,10.69854 -40.86843,13.05222 -5.77721,2.35368 -16.26178,7.70295 -23.32282,3.63751 -7.06104,-4.06545 -13.26619,-9.41472 -12.83825,-11.7684 0.42794,-2.35368 5.56324,-2.56765 5.56324,-2.56765 z"
     id="path42"
     inkscape:connector-curvature="0" />
  <path
     style="fill:#000000;stroke:#000000;stroke-width:1px;stroke-linecap:butt;stroke-linejoin:miter;stroke-opacity:1"
     d="m 228.73483,265.29161 c 0,0 8.55884,-2.35368 13.90811,1.71177 5.34927,4.06545 10.91251,10.05663 13.05222,19.04341 2.13971,8.98677 9.62869,29.314 8.77281,36.80298 -0.85589,7.48898 -1.92574,9.62869 -3.42354,10.2706 -1.49779,0.64191 -8.98677,-15.83384 -11.34045,-22.46694 -2.35368,-6.63309 -9.20075,-22.68091 -13.48017,-29.314 -4.27941,-6.6331 -10.63516,-10.89026 -11.08906,-12.17631 -0.4539,-1.28605 -0.22695,-3.10165 0.22695,-3.40426 0.4539,-0.3026 3.37313,-0.46725 3.37313,-0.46725 z"
     id="path44"
     inkscape:connector-curvature="0" />
  <path
     style="fill:#000000;stroke:#000000;stroke-width:1px;stroke-linecap:butt;stroke-linejoin:miter;stroke-opacity:1"
     d="m 266.28842,311.82979 c 0,0 15.58392,-4.23641 21.33333,-5.90071 5.74941,-1.6643 31.16785,-8.32152 35.10165,-11.19622 3.93381,-2.8747 9.53192,-4.99291 16.94563,-2.8747 7.41371,2.1182 13.31442,5.2955 14.07092,6.20331 0.7565,0.9078 -0.6052,2.7234 -2.5721,3.4799 -1.9669,0.7565 -17.85343,4.38771 -25.56974,6.95981 -7.71631,2.57211 -40.39716,8.77542 -43.72577,10.43972 -3.3286,1.6643 -10.59102,3.9338 -15.73522,1.8156 -5.14421,-2.1182 -8.17022,-5.59811 -5.90071,-7.41371 2.2695,-1.8156 6.05201,-1.513 6.05201,-1.513 z"
     id="path46"
     inkscape:connector-curvature="0" />
  <path
     style="fill:#000000;stroke:#000000;stroke-width:1px;stroke-linecap:butt;stroke-linejoin:miter;stroke-opacity:1"
     d="m 281.87234,234.36407 c 0,0 22.08984,10.28841 24.51064,16.18912 2.4208,5.90071 -0.7565,13.76832 -0.7565,21.48463 0,7.71632 -0.3026,21.33334 -0.9078,29.80615 -0.6052,8.47281 -1.96691,20.72813 -2.26951,28.59575 -0.3026,7.86761 -1.6643,18.76123 -2.4208,21.03073 -0.7565,2.2695 -4.69031,5.74941 -6.80851,1.513 -2.1182,-4.23641 1.0591,-14.37352 0.1513,-22.69503 -0.9078,-8.32152 -2.42081,-33.58866 -3.02601,-45.39008 -0.6052,-11.80141 -1.2104,-29.80614 -4.0851,-34.49645 -2.87471,-4.69031 -7.56501,-12.86052 -8.77542,-13.76832 -1.2104,-0.9078 -1.3617,-4.08511 0.75651,-3.63121 2.1182,0.4539 3.6312,1.36171 3.6312,1.36171 z"
     id="path48"
     inkscape:connector-curvature="0" />
  <path
     style="fill:#000000;stroke:#000000;stroke-width:1px;stroke-linecap:butt;stroke-linejoin:miter;stroke-opacity:1"
     d="m 230.4043,363.62954 c 1.37281,0.14418 1.14931,0.74417 20.60279,-3.38368 20.74816,-4.40257 50.23168,-12.10402 56.73759,-13.16312 6.50591,-1.0591 24.66194,-3.9338 27.99054,-3.4799 3.32861,0.4539 11.49882,0.4539 3.32861,3.4799 -8.17021,3.02601 -34.34515,11.80142 -39.03546,13.01182 -4.69031,1.2104 -8.77541,2.26951 -16.79433,6.65721 -8.01891,4.38771 -27.83924,13.16312 -32.68085,14.37353 -4.84161,1.2104 -10.74232,2.2695 -16.34042,-1.51301 -5.59811,-3.7825 -12.86052,-14.07092 -11.19622,-14.97872 1.6643,-0.9078 4.91612,-1.26362 7.38775,-1.00403 z"
     id="path52"
     inkscape:connector-curvature="0"
     sodipodi:nodetypes="sssscscccss" />
  <path
     style="fill:#000000;stroke:#000000;stroke-width:1px;stroke-linecap:butt;stroke-linejoin:miter;stroke-opacity:1"
     d="m 334.75177,323.10165 c 15.20568,6.58156 17.24823,5.82506 23.45154,12.63357 6.20331,6.80851 9.75887,12.33097 10.59102,14.44918 0.83215,2.1182 0.1513,6.43026 -0.6052,7.64066 -0.75651,1.2104 -0.83216,3.70685 -6.95982,1.28605 -6.12765,-2.4208 -14.44917,-11.87707 -16.56737,-14.44917 -2.1182,-2.57211 -10.21277,-11.19622 -12.40662,-13.91962 -2.19385,-2.72341 -4.99291,-5.59811 -3.17731,-7.03546 1.81561,-1.43736 5.67376,-0.60521 5.67376,-0.60521 z"
     id="path54"
     inkscape:connector-curvature="0" />
</svg>
