<?xml version="1.0" encoding="UTF-8" standalone="no"?>
<!-- Created with Inkscape (http://www.inkscape.org/) -->

<svg
   xmlns:dc="http://purl.org/dc/elements/1.1/"
   xmlns:cc="http://creativecommons.org/ns#"
   xmlns:rdf="http://www.w3.org/1999/02/22-rdf-syntax-ns#"
   xmlns:svg="http://www.w3.org/2000/svg"
   xmlns="http://www.w3.org/2000/svg"
   xmlns:sodipodi="http://sodipodi.sourceforge.net/DTD/sodipodi-0.dtd"
   xmlns:inkscape="http://www.inkscape.org/namespaces/inkscape"
   version="1.1"
   id="svg10"
   width="512"
   height="512"
   viewBox="0 0 512 512"
   sodipodi:docname="U+714C.svg"
   inkscape:version="0.92.4 (5da689c313, 2019-01-14)">
  <metadata
     id="metadata16">
    <rdf:RDF>
      <cc:Work
         rdf:about="">
        <dc:format>image/svg+xml</dc:format>
        <dc:type
           rdf:resource="http://purl.org/dc/dcmitype/StillImage" />
        <dc:title></dc:title>
      </cc:Work>
    </rdf:RDF>
  </metadata>
  <defs
     id="defs14" />
  <sodipodi:namedview
     pagecolor="#ffffff"
     bordercolor="#666666"
     borderopacity="1"
     objecttolerance="10"
     gridtolerance="10"
     guidetolerance="10"
     inkscape:pageopacity="0"
     inkscape:pageshadow="2"
     inkscape:window-width="1920"
     inkscape:window-height="1017"
     id="namedview12"
     showgrid="false"
     inkscape:zoom="0.82617188"
     inkscape:cx="420.54544"
     inkscape:cy="106.83629"
     inkscape:window-x="-8"
     inkscape:window-y="-8"
     inkscape:window-maximized="1"
     inkscape:current-layer="svg10" />
  <path
     style="fill:#000000;stroke:#000000;stroke-width:1px;stroke-linecap:butt;stroke-linejoin:miter;stroke-opacity:1"
     d="m 126.45677,97.3245 c 0,0 17.75958,14.33605 23.10885,22.68091 5.34927,8.34486 18.82944,23.96473 11.7684,39.58461 -7.06104,15.61987 -9.41472,49.64123 -10.05663,56.4883 -0.64191,6.84707 -4.92133,50.71109 -3.63751,59.26992 1.28383,8.55884 2.13971,21.39709 3.85148,27.38827 1.71177,5.99119 -7.06104,24.17871 -9.94964,30.59783 -2.88861,6.41913 -16.58275,37.23093 -24.49967,48.14344 -7.91692,10.91252 -29.741945,32.73754 -39.798574,39.79858 -10.05663,7.06104 -30.597831,19.89929 -39.584607,22.46694 -8.986776,2.56765 -13.753432,2.21415 -14.812533,1.00374 -1.059102,-1.2104 0.529551,-3.4799 1.739952,-4.0851 1.210402,-0.6052 15.659575,-7.56501 30.184398,-19.97163 14.524822,-12.40662 23.114702,-18.8853 34.027215,-34.71914 10.912513,-15.83384 27.388269,-41.72431 32.309599,-54.13462 4.92133,-12.41031 14.12207,-40.65446 15.83384,-54.3486 1.71177,-13.69413 1.28383,-47.07358 0.64191,-58.62801 -0.64191,-11.55443 4.06545,-46.85962 3.42354,-52.20889 -0.64191,-5.34927 -2.13971,-14.76398 -8.34487,-28.88606 -6.20515,-14.12208 -10.05662,-30.16989 -10.2706,-35.30519 -0.21397,-5.1353 -0.0535,-5.723721 0.48144,-6.68659 0.53493,-0.962868 3.58401,1.55129 3.58401,1.55129 z"
     id="path20"
     inkscape:connector-curvature="0" />
  <path
     style="fill:#000000;stroke:#000000;stroke-width:1px;stroke-linecap:butt;stroke-linejoin:miter;stroke-opacity:1"
     d="m 74.288416,224.68085 c 0,0 14.222222,10.74232 18.761229,15.88653 4.539008,5.1442 8.018915,8.92671 9.985815,13.46572 1.9669,4.539 3.93381,7.11111 2.4208,10.89361 -1.513,3.78251 -1.0591,9.68322 -3.3286,10.89362 -2.269504,1.2104 -13.314421,-2.1182 -15.735225,-4.38771 -2.420804,-2.2695 -12.70922,-20.72813 -13.314421,-24.81323 -0.605201,-4.08511 -5.446808,-13.91963 -5.598108,-16.34043 -0.151301,-2.4208 -0.302601,-8.32151 2.723404,-7.41371 3.026004,0.9078 4.085106,1.8156 4.085106,1.8156 z"
     id="path22"
     inkscape:connector-curvature="0" />
  <path
     style="fill:#000000;stroke:#000000;stroke-width:1px;stroke-linecap:butt;stroke-linejoin:miter;stroke-opacity:1"
     d="m 192.1513,174.22222 c 0,0 4.08511,1.43735 10.74232,-2.64775 6.65721,-4.08511 22.39243,9.45626 25.72104,16.86997 3.3286,7.41372 1.8156,16.56738 0.3026,21.25769 -1.513,4.6903 -11.49882,13.16312 -15.43263,15.73522 -3.9338,2.57211 -21.33333,6.80851 -26.02364,10.28842 -4.6903,3.4799 -14.67612,8.77541 -20.42553,9.22931 -5.74941,0.4539 -3.026,-5.44681 -1.3617,-6.80851 1.6643,-1.3617 15.28132,-9.98581 19.51773,-21.78723 4.23641,-11.80142 9.68321,-21.78724 7.86761,-29.20095 -1.8156,-7.41371 -5.03222,-8.41798 -4.87174,-10.34372 0.16048,-1.92574 3.96394,-2.59245 3.96394,-2.59245 z"
     id="path24"
     inkscape:connector-curvature="0" />
  <path
     style="fill:#000000;stroke:#000000;stroke-width:1px;stroke-linecap:butt;stroke-linejoin:miter;stroke-opacity:1"
     d="m 154.93144,281.11584 c 0,0 16.34043,-1.0591 27.68795,3.3286 11.34751,4.38771 26.47754,12.55792 29.50354,16.49173 3.02601,3.93381 6.65721,9.22931 4.84161,14.07092 -1.8156,4.84161 -3.17731,9.83452 -10.43972,9.53192 -7.26241,-0.3026 -27.08274,-15.13003 -29.95744,-17.85343 -2.87471,-2.72341 -11.49882,-13.01182 -15.13003,-15.58393 -3.6312,-2.5721 -8.92671,-5.4468 -9.53191,-6.65721 -0.6052,-1.2104 3.026,-3.3286 3.026,-3.3286 z"
     id="path26"
     inkscape:connector-curvature="0" />
  <path
     style="fill:#000000;stroke:#000000;stroke-width:1px;stroke-linecap:butt;stroke-linejoin:miter;stroke-opacity:1"
     d="m 326.41253,59.451659 c 0,0 3.6375,2.460665 12.19633,0.641913 8.55884,-1.818752 13.80112,-0.748898 18.08054,4.172431 4.27942,4.92133 15.51289,20.862158 17.01068,23.964735 1.4978,3.102578 3.53052,9.414718 -2.03272,12.410312 -5.56324,2.99559 -15.61987,7.38199 -20.11326,13.37318 -4.49339,5.99118 -16.68973,18.08053 -19.89929,21.82502 -3.20956,3.74449 -9.5217,9.20075 -12.08935,10.91251 -2.56765,1.71177 -8.45185,4.06545 -9.5217,4.60038 -1.06986,0.53493 -0.7489,-3.63751 1.60478,-8.02391 2.35368,-4.3864 5.8842,-8.13089 10.91251,-18.29451 5.02832,-10.16361 11.12649,-21.93201 13.37318,-26.853337 2.24669,-4.92133 4.92133,-8.237878 2.67463,-13.694135 -2.24669,-5.456256 -3.10257,-12.410309 -8.45184,-15.619871 -5.34927,-3.209563 -9.73568,-5.135301 -9.62869,-7.381995 0.10698,-2.246693 3.95846,-2.781621 4.60037,-2.781621 0.64191,0 1.28383,0.748898 1.28383,0.748898 z"
     id="path28"
     inkscape:connector-curvature="0" />
  <path
     style="fill:#000000;stroke:#000000;stroke-width:1px;stroke-linecap:butt;stroke-linejoin:miter;stroke-opacity:1"
     d="m 282.47754,129.513 c 0,0 20.72813,5.59811 25.72104,9.07802 4.99291,3.4799 11.19622,12.25532 13.61702,18.00472 2.42081,5.74941 3.47991,9.83452 4.23641,18.60993 0.7565,8.77542 1.513,18.45863 1.9669,24.81324 0.4539,6.35461 0.9078,21.33334 0.7565,24.66194 -0.1513,3.32861 0.4539,6.80851 -1.3617,10.28842 -1.8156,3.4799 -3.6312,8.62411 -4.69031,7.11111 -1.0591,-1.513 -5.9007,-28.74705 -8.01891,-38.43026 -2.1182,-9.68322 -5.90071,-34.34516 -10.74231,-41.30497 -4.84161,-6.95981 -9.07802,-13.16312 -18.15603,-19.97163 -9.07802,-6.80851 -10.74232,-11.80142 -10.43972,-13.16312 0.3026,-1.3617 7.11111,0.3026 7.11111,0.3026 z"
     id="path30"
     inkscape:connector-curvature="0" />
  <path
     style="fill:#000000;stroke:#000000;stroke-width:1px;stroke-linecap:butt;stroke-linejoin:miter;stroke-opacity:1"
     d="m 348.44444,173.69267 c 0,0 5.59811,1.0591 13.61703,-2.8747 8.01891,-3.93381 27.23404,-12.25532 32.37825,-11.19622 5.1442,1.0591 17.55082,3.6312 17.39952,5.29551 -0.1513,1.6643 -4.6903,8.77541 -7.86761,9.98581 -3.1773,1.2104 -16.79432,4.99291 -20.72813,6.20331 -3.93381,1.2104 -18.91253,4.38771 -22.69504,4.53901 -3.7825,0.1513 -8.47281,-1.8156 -11.49881,-5.44681 -3.02601,-3.6312 -2.76123,-4.91726 -2.64776,-5.59811 0.11348,-0.68085 2.04255,-0.9078 2.04255,-0.9078 z"
     id="path32"
     inkscape:connector-curvature="0" />
  <path
     style="fill:#000000;stroke:#000000;stroke-width:1px;stroke-linecap:butt;stroke-linejoin:miter;stroke-opacity:1"
     d="m 390.65721,114.38298 c 8.62411,-0.9078 13.01182,-1.3617 20.72813,-3.47991 7.71632,-2.1182 19.36643,-3.026 21.78724,-4.0851 2.4208,-1.05911 1.8156,2.4208 6.35461,-6.05201 4.539,-8.472816 21.48463,0.4539 23.60283,4.2364 2.11821,3.78251 2.26951,6.35461 8.47282,7.71632 6.20331,1.3617 14.37352,4.0851 15.28132,6.35461 0.9078,2.2695 -0.6052,9.53191 -6.35461,13.16312 -5.74941,3.6312 -9.53191,2.5721 -11.80142,10.89361 -2.2695,8.32152 -8.32151,24.81324 -9.68321,30.86525 -1.3617,6.05201 -5.59811,18.00473 -6.80851,21.63594 -1.2104,3.6312 -4.69031,11.49881 -6.05201,14.52482 -1.3617,3.026 -3.32861,6.05201 -5.59811,6.50591 -2.2695,0.4539 -5.90071,-0.9078 -7.41371,-3.32861 -1.51301,-2.4208 0.1513,-20.87943 0.7565,-27.53664 0.6052,-6.65721 6.95981,-27.83924 6.80851,-32.83215 -0.1513,-4.99291 1.513,-19.21513 -0.1513,-23.45154 -1.6643,-4.2364 -1.6643,-8.77541 -9.68322,-6.35461 -8.01891,2.42081 -18.00472,6.65721 -22.84633,7.41371 -4.84161,0.7565 -10.28842,0.90781 -14.82743,-2.7234 -4.539,-3.63121 -8.77541,-5.90071 -8.47281,-9.53192 0.3026,-3.6312 5.90071,-3.9338 5.90071,-3.9338 z"
     id="path34"
     inkscape:connector-curvature="0" />
  <path
     style="fill:#000000;stroke:#000000;stroke-width:1px;stroke-linecap:butt;stroke-linejoin:miter;stroke-opacity:1"
     d="m 292.76596,239.50827 c 0,0 27.23404,-1.9669 42.81796,-5.2955 15.58393,-3.32861 81.24823,-16.18913 89.11584,-18.00473 7.86762,-1.81561 22.24114,-3.63121 26.17494,0.7565 3.93381,4.38771 2.87471,6.20331 -2.4208,7.86761 -5.29551,1.6643 -40.85106,5.90071 -55.22459,9.38062 -14.37352,3.4799 -45.54137,7.86761 -56.43498,11.49881 -10.89362,3.63121 -19.21513,5.14421 -22.99764,7.71632 -3.78251,2.5721 -11.34752,2.5721 -19.06383,-3.02601 -7.71631,-5.59811 -8.01891,-8.62411 -7.86761,-10.13711 0.1513,-1.51301 5.90071,-0.75651 5.90071,-0.75651 z"
     id="path36"
     inkscape:connector-curvature="0" />
  <path
     style="fill:#000000;stroke:#000000;stroke-width:1px;stroke-linecap:butt;stroke-linejoin:miter;stroke-opacity:1"
     d="m 291.10166,288.52955 c 0,0 125.27659,-23.60284 133.5981,-24.51064 8.32152,-0.9078 11.34752,-0.9078 12.55792,-2.7234 1.21041,-1.8156 9.68322,-0.6052 13.01182,1.89125 3.32861,2.49645 7.03547,5.29551 8.54847,6.43026 1.513,1.13475 3.55555,3.85816 -4.76596,5.59811 -8.32151,1.73995 -15.20567,-1.6643 -23.22459,-1.0591 -8.01891,0.6052 -61.0858,8.89516 -74.35199,12.74664 -13.26619,3.85147 -34.87725,7.06104 -41.0824,10.48457 -6.20516,3.42353 -16.04782,2.78162 -21.39709,0.21397 -5.34927,-2.56765 -7.97041,-5.93769 -7.22151,-7.75644 0.7489,-1.81875 4.32723,-1.31522 4.32723,-1.31522 z"
     id="path38"
     inkscape:connector-curvature="0" />
  <path
     style="fill:#000000;stroke:#000000;stroke-width:1px;stroke-linecap:butt;stroke-linejoin:miter;stroke-opacity:1"
     d="m 304.80147,343.28399 c 0,0 16.58274,0.21397 22.89488,-1.06986 6.31214,-1.28382 53.27874,-11.23347 59.80485,-13.80112 6.52611,-2.56765 11.23347,-5.02831 19.57834,-3.53052 8.34486,1.4978 16.68972,4.27942 17.75958,5.77722 1.06985,1.49779 3.42353,2.46066 -6.31214,5.1353 -9.73568,2.67463 -69.96847,13.69413 -73.07105,14.97796 -3.10258,1.28382 -16.1548,4.3864 -21.93201,5.99118 -5.77721,1.60478 -14.76399,1.17684 -19.25738,-1.17684 -4.49338,-2.35368 -10.2706,-8.34486 -9.73567,-9.94964 0.53493,-1.60478 4.70736,-2.03273 6.52611,-2.03273 1.81875,0 3.74449,-0.32095 3.74449,-0.32095 z"
     id="path40"
     inkscape:connector-curvature="0" />
  <path
     style="fill:#000000;stroke:#000000;stroke-width:1px;stroke-linecap:butt;stroke-linejoin:miter;stroke-opacity:1"
     d="m 235.57447,408.66194 c 0.7565,0 12.25532,2.4208 33.89125,-0.7565 21.63594,-3.17731 90.47754,-13.61702 99.70686,-14.67613 9.22931,-1.0591 45.08747,-4.2364 56.13238,-5.7494 11.04492,-1.51301 28.29315,-6.95982 35.40426,-6.05201 7.11111,0.9078 24.20804,6.65721 28.14184,11.34751 3.93381,4.69031 8.92672,12.40662 3.02601,14.52483 -5.90071,2.1182 -28.14184,3.7825 -37.06856,2.7234 -8.92671,-1.0591 -45.08747,-5.90071 -65.9669,-3.78251 -20.87943,2.11821 -27.53665,0.60521 -52.34988,7.26242 -24.81324,6.65721 -49.62648,14.37352 -56.43499,18.15602 -6.80851,3.78251 -14.07092,9.07802 -22.99764,3.17731 -8.92671,-5.90071 -20.87943,-14.37352 -23.90544,-17.85343 -3.026,-3.4799 -6.23758,-7.26151 -4.90026,-8.33137 1.33732,-1.06985 2.72813,-1.23033 4.01195,-0.85588 1.28383,0.37445 3.30912,0.86574 3.30912,0.86574 z"
     id="path42"
     inkscape:connector-curvature="0" />
  <path
     style="fill:#000000;stroke:#000000;stroke-width:1px;stroke-linecap:butt;stroke-linejoin:miter;stroke-opacity:1"
     d="m 339.51773,294.12766 c 1.43174,2.71334 11.95272,8.62411 16.94563,11.19622 4.99291,2.5721 14.07092,6.20331 17.39952,8.92671 3.32861,2.72341 6.65721,6.35461 8.17022,13.61702 1.513,7.26241 0.7565,15.73523 -0.4539,19.97163 -1.21041,4.23641 -1.21041,20.27424 -3.02601,24.96454 -1.8156,4.69031 -2.5721,13.46572 -3.7825,16.94563 -1.21041,3.4799 -4.23641,7.86761 -6.50591,7.11111 -2.26951,-0.7565 -8.17022,-7.26241 -9.83452,-17.09693 -1.6643,-9.83451 -2.4208,-45.69267 -3.47991,-49.92907 -1.0591,-4.23641 -13.46572,-15.88653 -18.15602,-18.30733 -4.69031,-2.42081 -6.65721,-9.83452 -13.61702,-11.19622 -6.95982,-1.3617 -10.43972,-0.9078 -10.43972,-2.87471 0,-1.9669 9.53191,-5.2955 12.55792,-6.20331 3.026,-0.9078 11.19622,-2.2695 11.95272,-0.6052 0.7565,1.66431 1.72612,2.45013 2.2695,3.47991 z"
     id="path44"
     inkscape:connector-curvature="0"
     sodipodi:nodetypes="scsccsccscsssccs" />
</svg>
