<?xml version="1.0" encoding="UTF-8" standalone="no"?>
<!-- Created with Inkscape (http://www.inkscape.org/) -->

<svg
   xmlns:dc="http://purl.org/dc/elements/1.1/"
   xmlns:cc="http://creativecommons.org/ns#"
   xmlns:rdf="http://www.w3.org/1999/02/22-rdf-syntax-ns#"
   xmlns:svg="http://www.w3.org/2000/svg"
   xmlns="http://www.w3.org/2000/svg"
   xmlns:sodipodi="http://sodipodi.sourceforge.net/DTD/sodipodi-0.dtd"
   xmlns:inkscape="http://www.inkscape.org/namespaces/inkscape"
   version="1.1"
   id="svg2"
   width="512"
   height="512"
   viewBox="0 0 512 512"
   sodipodi:docname="U+7152.svg"
   inkscape:version="0.92.4 (5da689c313, 2019-01-14)">
  <metadata
     id="metadata8">
    <rdf:RDF>
      <cc:Work
         rdf:about="">
        <dc:format>image/svg+xml</dc:format>
        <dc:type
           rdf:resource="http://purl.org/dc/dcmitype/StillImage" />
        <dc:title></dc:title>
      </cc:Work>
    </rdf:RDF>
  </metadata>
  <defs
     id="defs6" />
  <sodipodi:namedview
     pagecolor="#ffffff"
     bordercolor="#666666"
     borderopacity="1"
     objecttolerance="10"
     gridtolerance="10"
     guidetolerance="10"
     inkscape:pageopacity="0"
     inkscape:pageshadow="2"
     inkscape:window-width="1366"
     inkscape:window-height="705"
     id="namedview4"
     showgrid="false"
     inkscape:zoom="0.921875"
     inkscape:cx="453.00194"
     inkscape:cy="250.43046"
     inkscape:window-x="-8"
     inkscape:window-y="-8"
     inkscape:window-maximized="1"
     inkscape:current-layer="svg2" />
  <path
     style="fill:#000000;stroke:#000000;stroke-width:1px;stroke-linecap:butt;stroke-linejoin:miter;stroke-opacity:1"
     d="M 153.76271,93.966101 C 153.76271,93.966101 174.1017,107.9322 177.22034,114.16949 180.33898,120.40678 184.40678,121.62712 179.9322,135.59322 175.45763,149.55932 175.18644,162.44068 174.64407,175.72881 174.1017,189.01695 167.32203,233.76271 161.62712,253.01695 155.9322,272.27119 141.28814,309.42373 132.88136,325.42373 124.47458,341.42373 87.864407,375.86441 72.135593,384.27119 56.40678,392.67797 38.159797,398.09588 34.516399,397.90413 30.873001,397.71237 35.091672,391.00085 35.091672,391.00085 35.091672,391.00085 81.305295,355.71742 90.701426,343.25316 100.09756,330.78891 124.25904,301.06645 133.46341,278.43903 142.66778,255.81162 154.0339,223.18644 156.74576,200.40678 159.45763,177.62712 165.15254,147.52542 164.0678,136.94915 162.98305,126.37288 164.47458,123.9322 158.91525,115.66102 153.35593,107.38983 145.83051,97.966101 145.49153,96.406779 145.15254,94.847457 144.40678,91.050846 145.76271,90.847457 147.11864,90.644067 153.76271,93.966101 153.76271,93.966101 Z"
     id="path12"
     inkscape:connector-curvature="0" />
  <path
     style="fill:#000000;stroke:#000000;stroke-width:1px;stroke-linecap:butt;stroke-linejoin:miter;stroke-opacity:1"
     d="M 101.69492,170.30508 C 101.69492,170.30508 122.57627,172.74576 125.28814,177.35593 128,181.9661 127.72881,184.81356 121.08475,193.62712 114.44068,202.44068 103.45763,210.30508 100.61017,211.11864 97.762712,211.9322 99.254237,203.66102 99.525424,199.18644 99.79661,194.71186 101.42373,182.64407 98.440678,179.79661 95.457627,176.94915 94.101695,174.50847 94.644068,173.15254 95.186441,171.79661 101.69492,170.30508 101.69492,170.30508 Z"
     id="path14"
     inkscape:connector-curvature="0" />
  <path
     style="fill:#000000;stroke:#000000;stroke-width:1px;stroke-linecap:butt;stroke-linejoin:miter;stroke-opacity:1"
     d="M 201.76271,135.59322 C 201.76271,135.59322 216.94915,137.49152 222.1017,142.50847 227.25424,147.52542 235.66102,154.84746 236.61017,159.18644 237.55932,163.52542 235.25424,170.0339 229.15254,174.37288 223.05085,178.71186 206.77966,186.30508 199.72881,188.47458 192.67797,190.64407 191.86441,190.64407 191.59322,189.01695 191.32203,187.38983 205.69492,162.0339 205.42373,157.15254 205.15254,152.27119 205.15254,146.30508 201.49153,143.45763 197.83051,140.61017 193.76271,139.9322 194.0339,138.30508 194.30509,136.67797 199.05085,135.59322 200,135.45763 200.94915,135.32203 201.76271,135.59322 201.76271,135.59322 Z"
     id="path16"
     inkscape:connector-curvature="0" />
  <path
     style="fill:#000000;stroke:#000000;stroke-width:1px;stroke-linecap:butt;stroke-linejoin:miter;stroke-opacity:1"
     d="M 185.62712,242.98305 C 185.62712,242.98305 194.84746,244.61017 199.18644,247.86441 203.52542,251.11864 210.0339,255.86441 212.33898,260.0678 214.64407,264.27119 217.76271,268.61017 217.76271,272.54237 217.76271,276.47458 215.45763,284.61017 213.9661,285.15254 212.47458,285.69491 205.9661,285.55932 199.18644,278.64407 192.40678,271.72881 186.84746,262.23729 185.22034,259.9322 183.59322,257.62712 181.49153,255.66102 179.05085,255.32203 176.61017,254.98305 175.32203,252.0678 176.74576,248.13559 178.16949,244.20339 182.1017,242.23729 182.98305,242.23729 183.86441,242.23729 185.62712,242.98305 185.62712,242.98305 Z"
     id="path18"
     inkscape:connector-curvature="0" />
  <path
     style="fill:#000000;stroke:#000000;stroke-width:1px;stroke-linecap:butt;stroke-linejoin:miter;stroke-opacity:1"
     d="M 273.62712,90.57627 C 273.62712,90.57627 286.23729,96.542372 298.16949,93.830508 310.1017,91.118643 355.66102,76.745762 360.67797,74.98305 365.69492,73.220338 379.66102,69.694914 383.05085,64.542372 386.44068,59.38983 388.47458,52.745762 393.62712,53.966101 398.77966,55.18644 406.77966,56.677965 411.79661,62.37288 416.81356,68.067796 425.76271,74.57627 425.76271,78.508474 425.76271,82.440677 422.91526,85.423728 418.57627,88.135592 414.23729,90.847457 400.81356,91.932203 399.05085,93.830508 397.28814,95.728813 393.22034,107.11864 392.13559,110.64407 391.05085,114.16949 388.88136,119.59322 387.9322,121.62712 386.98305,123.66102 382.91526,127.18644 380.47458,127.05085 378.0339,126.91525 372.61017,123.79661 373.42373,120.40678 374.23729,117.01695 376.81356,95.864406 377.62712,91.932203 378.44068,87.999999 382.1017,74.440677 376,77.152541 369.89831,79.864406 345.89831,90.440677 341.15254,93.288135 336.40678,96.135592 318.77966,102.77966 315.66102,104.67797 312.54237,106.57627 301.69492,111.45763 297.49153,112.40678 293.28814,113.35593 284.47458,111.32203 280,109.01695 275.52542,106.71186 265.22034,96.677965 264.54237,95.050847 263.86441,93.423728 263.32203,89.627118 264.27119,88.949152 265.22034,88.271186 269.55932,88.677965 270.37288,89.220338 271.18644,89.762711 273.62712,90.57627 273.62712,90.57627 Z"
     id="path20"
     inkscape:connector-curvature="0" />
  <path
     style="fill:#000000;stroke:#000000;stroke-width:1px;stroke-linecap:butt;stroke-linejoin:miter;stroke-opacity:1"
     d="M 311.18644,45.288135 C 311.18644,45.288135 332.0678,52.067796 336.94915,56.135592 341.83051,60.203389 346.16949,61.016948 342.1017,72.271186 338.0339,83.525423 338.71187,105.62712 338.44068,109.9661 338.16949,114.30508 337.08475,121.62712 335.86441,127.72881 334.64407,133.83051 331.9322,145.8983 330.44068,148.61017 328.94915,151.32203 326.91525,153.76271 324.0678,149.55932 321.22034,145.35593 318.50848,116.0678 318.50848,112.94915 318.50848,109.83051 316.47458,81.627118 316.20339,77.694914 315.9322,73.762711 317.42373,68.881355 310.1017,62.508474 302.77966,56.135592 295.11864,51.661016 295.9322,48.813558 296.74576,45.9661 301.28814,44.338982 303.59322,44.406778 305.89831,44.474575 311.18644,45.288135 311.18644,45.288135 Z"
     id="path22"
     inkscape:connector-curvature="0" />
  <path
     style="fill:#000000;stroke:#000000;stroke-width:1px;stroke-linecap:butt;stroke-linejoin:miter;stroke-opacity:1"
     d="M 274.84746,145.08474 C 274.84746,145.08474 300.20339,139.11864 306.84746,137.35593 313.49153,135.59322 355.11864,125.01695 362.0339,123.52542 368.94915,122.0339 388.88136,118.77966 396.74576,118.77966 404.61017,118.77966 416.40678,119.9322 419.11865,122.91525 421.83051,125.8983 424.61017,127.59322 423.72881,129.9661 422.84746,132.33898 416.40678,134.57627 413.83051,134.91525 411.25424,135.25424 405.15254,132.94915 401.01695,132.61017 396.88136,132.27119 385.62712,129.55932 377.35593,132 369.08475,134.44068 339.69889,141.04459 329.34397,144.59211 318.98905,148.13963 309.20941,147.75611 298.95037,153.41297 288.69133,159.06982 281.21277,160.41213 274.88477,158.20691 268.55676,156.0017 266.73506,153.7006 268.365,149.86545 269.99494,146.03029 274.84746,145.08474 274.84746,145.08474 Z"
     id="path24"
     inkscape:connector-curvature="0" />
  <path
     style="fill:#000000;stroke:#000000;stroke-width:1px;stroke-linecap:butt;stroke-linejoin:miter;stroke-opacity:1"
     d="M 295.72881,176.54237 C 295.72881,176.54237 312.81356,176 316.88136,174.77966 320.94915,173.55932 341.69492,168.94915 345.08475,167.59322 348.47458,166.23729 364.38771,163.38437 366.16147,163.09673 367.93522,162.8091 372.68123,163.95964 373.92765,159.50128 375.17408,155.04291 379.29687,151.97478 382.89233,151.39951 386.48779,150.82424 397.99326,153.89236 401.73253,158.78218 405.47181,163.67201 408.06054,169.04123 404.6089,172.7805 401.15726,176.51978 398.76029,174.41044 396.17156,180.83433 393.58283,187.25821 389.26828,196.75022 388.30949,199.24307 387.3507,201.73593 384.1867,207.68042 382.94027,208.83096 381.69384,209.98151 378.05045,212.2826 377.09166,211.22794 376.13287,210.17327 375.26996,197.42138 375.17408,193.96974 375.0782,190.5181 376.03699,177.95796 376.32463,175.84863 376.61226,173.73929 379.20099,166.35662 369.22959,170.67117 359.25819,174.98572 342.57526,178.82087 335.09671,182.17663 327.61815,185.53239 317.45499,192.91507 308.44238,189.65519 299.42976,186.3953 291.18418,184.86124 290.03363,182.94366 288.88308,181.02609 288.59545,179.39615 289.2666,178.14972 289.93775,176.90329 291.47181,176.32802 292.71824,176.32802 293.96466,176.32802 295.72881,176.54237 295.72881,176.54237 Z"
     id="path26"
     inkscape:connector-curvature="0" />
  <path
     style="fill:#000000;stroke:#000000;stroke-width:1px;stroke-linecap:butt;stroke-linejoin:miter;stroke-opacity:1"
     d="M 262.99578,181.889 C 262.99578,181.889 277.66525,186.29942 283.13035,190.42222 288.59545,194.54501 290.03363,195.69556 291.28006,202.3112 292.52648,208.92684 293.86879,215.83012 294.34818,219.47352 294.82757,223.11692 296.074,231.65014 297.22455,233.47184 298.37509,235.29354 297.99158,237.59463 297.03279,240.95039 296.074,244.30615 295.88224,249.38773 293.96466,249.00422 292.04709,248.6207 283.60974,242.77209 283.51387,240.37512 283.41799,237.97814 282.74683,227.62322 280.82926,221.87049 278.91168,216.11776 279.87047,208.73508 274.40537,204.32466 268.94027,199.91423 267.31033,195.31204 263.09166,192.43567 258.87299,189.55931 257.24305,186.8747 257.05129,185.24476 256.85954,183.61482 257.62657,181.60136 258.01008,181.50548 258.3936,181.4096 262.99578,181.889 262.99578,181.889 Z"
     id="path28"
     inkscape:connector-curvature="0" />
  <path
     style="fill:#000000;stroke:#000000;stroke-width:1px;stroke-linecap:butt;stroke-linejoin:miter;stroke-opacity:1"
     d="M 269.15254,230.64407 C 269.15254,230.64407 271.32203,232.94915 290.57627,226.84746 309.83051,220.74576 337.89831,212.47458 350.1017,210.98305 362.30509,209.49152 373.01695,207.59322 375.45763,205.42373 377.89831,203.25424 381.9661,201.35593 387.11864,202.44068 392.27119,203.52542 401.35593,205.9661 402.30509,207.05085 403.25424,208.13559 396.20339,212.0678 389.9661,213.42373 383.72881,214.77966 360.94915,218.0339 353.08475,220.20339 345.22034,222.37288 328.27119,227.11864 319.18644,229.42373 310.1017,231.72881 292.47458,238.10169 286.77966,238.23729 281.08475,238.37288 271.32203,236.47458 270.64407,235.52542 269.9661,234.57627 267.66102,232.13559 268.0678,231.59322 268.47458,231.05085 269.15254,230.64407 269.15254,230.64407 Z"
     id="path30"
     inkscape:connector-curvature="0" />
  <path
     style="fill:#000000;stroke:#000000;stroke-width:1px;stroke-linecap:butt;stroke-linejoin:miter;stroke-opacity:1"
     d="M 249.09335,270.00169 C 249.09335,270.00169 260.02354,276.52146 275.36416,271.91927 290.70478,267.31708 324.07063,259.0715 328.86458,257.53744 333.65852,256.00338 359.73758,248.71658 368.36668,245.64846 376.99578,242.58033 396.93859,233.95123 406.71823,236.44408 416.49788,238.93693 418.2237,241.8133 417.26491,243.92264 416.30612,246.03197 414.96382,251.59295 402.88308,251.97646 390.80234,252.35998 388.50125,252.16822 374.11941,256.77041 359.73758,261.37259 324.64591,270.00169 316.78384,272.6863 308.92177,275.37091 286.86963,283.23298 279.96635,287.25989 273.06307,291.2868 263.47518,296.65602 256.18838,289.36923 248.90159,282.08243 244.39528,274.508 244.01176,272.6863 243.62825,270.8646 243.24473,269.33054 244.49116,268.94702 245.73758,268.56351 249.09335,270.00169 249.09335,270.00169 Z"
     id="path32"
     inkscape:connector-curvature="0" />
  <path
     style="fill:#000000;stroke:#000000;stroke-width:1px;stroke-linecap:butt;stroke-linejoin:miter;stroke-opacity:1"
     d="M 274.98305,288.54237 C 274.98305,288.54237 281.62712,288.67797 282.57627,292.20339 283.52542,295.72881 285.01695,299.38983 285.55932,306.0339 286.1017,312.67797 287.45763,316.20339 286.37288,319.45763 285.28814,322.71186 283.79661,326.91525 284.74576,327.59322 285.69492,328.27119 298.30509,324.20339 298.84746,323.38983 299.38983,322.57627 305.22034,307.11864 305.35593,305.62712 305.49153,304.13559 304.67797,300.33898 300.47458,294.37288 296.27119,288.40678 294.23729,283.66102 293.69492,282.0339 293.15254,280.40678 285.55932,281.08475 282.44068,283.52542 279.32203,285.9661 274.98305,288.54237 274.98305,288.54237 Z"
     id="path34"
     inkscape:connector-curvature="0" />
  <path
     style="fill:#000000;stroke:#000000;stroke-width:1px;stroke-linecap:butt;stroke-linejoin:miter;stroke-opacity:1"
     d="M 191.37426,339.41801 C 191.37426,339.41801 196.74347,343.25316 206.90664,340.56855 217.0698,337.88394 264.24221,326.76199 269.99494,325.61145 275.74768,324.4609 315.24978,316.21532 321.19427,314.87301 327.13876,313.53071 373.16062,304.51809 384.28257,303.17579 395.40452,301.83348 412.20339,302.91525 419.59322,297.01695 426.98305,291.11864 433.35593,285.9661 446.98305,292.0678 460.61017,298.16949 471.91588,303.75106 471.91588,307.01094 471.91588,310.27082 469.03951,317.36586 467.12193,317.74938 465.20435,318.13289 453.12361,320.24223 446.79561,318.13289 440.4676,316.02356 426.66104,310.46258 415.15558,311.42137 403.65011,312.38016 329.05634,323.31035 316.40032,326.37848 303.74431,329.4466 279.96635,335.00758 262.13287,340.95207 244.2994,346.89656 227.99999,351.88226 221.28847,356.86796 214.57695,361.85366 209.783,365.68882 199.14045,358.88142 188.49789,352.07402 182.5534,346.99244 181.97813,344.40371 181.40285,341.81498 182.36164,339.03449 184.08746,338.17158 185.81328,337.30867 191.37426,339.41801 191.37426,339.41801 Z"
     id="path36"
     inkscape:connector-curvature="0" />
  <path
     style="fill:#000000;stroke:#000000;stroke-width:1px;stroke-linecap:butt;stroke-linejoin:miter;stroke-opacity:1"
     d="M 333.01695,243.9322 C 333.01695,243.9322 357.69492,249.49152 360.94915,256.81356 364.20339,264.13559 367.18644,271.45763 366.50848,279.72881 365.83051,288 365.01695,297.8983 365.15254,302.91525 365.28814,307.9322 365.49031,361.27839 365.49031,368.18167 365.49031,375.08495 368.94195,437.59798 370.0925,446.41884 371.24305,455.2397 372.29771,464.53995 370.95541,467.22456 369.6131,469.90917 368.65432,472.97729 367.12025,473.64845 365.58619,474.3196 361.36752,477.67536 352.93018,459.93777 344.49284,442.20017 341.0412,435.39277 340.46592,431.84525 339.89065,428.29773 340.08241,425.709 344.01344,426.1884 347.94448,426.66779 351.10848,428.10597 352.93018,428.77713 354.75188,429.44828 356.76533,430.40707 356.76533,419.76451 356.76533,409.12196 355.25424,340.33898 353.89831,331.66102 352.54237,322.98305 347.9322,284.74576 346.30509,279.86441 344.67797,274.98305 343.72581,267.2212 338.35659,261.85199 332.98737,256.48277 324.64591,250.63416 324.35827,247.75779 324.07063,244.88142 324.26239,242.58033 327.23464,242.86797 330.20688,243.1556 333.01695,243.9322 333.01695,243.9322 Z"
     id="path38"
     inkscape:connector-curvature="0" />
</svg>
