<?xml version="1.0" encoding="UTF-8" standalone="no"?>
<!-- Created with Inkscape (http://www.inkscape.org/) -->

<svg
   xmlns:dc="http://purl.org/dc/elements/1.1/"
   xmlns:cc="http://creativecommons.org/ns#"
   xmlns:rdf="http://www.w3.org/1999/02/22-rdf-syntax-ns#"
   xmlns:svg="http://www.w3.org/2000/svg"
   xmlns="http://www.w3.org/2000/svg"
   xmlns:sodipodi="http://sodipodi.sourceforge.net/DTD/sodipodi-0.dtd"
   xmlns:inkscape="http://www.inkscape.org/namespaces/inkscape"
   version="1.1"
   id="svg2"
   width="512"
   height="512"
   viewBox="0 0 512 512"
   sodipodi:docname="U+7791.svg"
   inkscape:version="0.92.4 (5da689c313, 2019-01-14)">
  <metadata
     id="metadata8">
    <rdf:RDF>
      <cc:Work
         rdf:about="">
        <dc:format>image/svg+xml</dc:format>
        <dc:type
           rdf:resource="http://purl.org/dc/dcmitype/StillImage" />
        <dc:title></dc:title>
      </cc:Work>
    </rdf:RDF>
  </metadata>
  <defs
     id="defs6" />
  <sodipodi:namedview
     pagecolor="#ffffff"
     bordercolor="#666666"
     borderopacity="1"
     objecttolerance="10"
     gridtolerance="10"
     guidetolerance="10"
     inkscape:pageopacity="0"
     inkscape:pageshadow="2"
     inkscape:window-width="1920"
     inkscape:window-height="1017"
     id="namedview4"
     showgrid="false"
     inkscape:zoom="0.92187498"
     inkscape:cx="52.714434"
     inkscape:cy="292.36056"
     inkscape:window-x="-8"
     inkscape:window-y="-8"
     inkscape:window-maximized="1"
     inkscape:current-layer="svg2" />
  <path
     style="fill:#000000;stroke:#000000;stroke-width:1px;stroke-linecap:butt;stroke-linejoin:miter;stroke-opacity:1"
     d="M 34.132883,147.08496 C 34.132883,147.08496 49.665263,148.81078 54.842723,154.18 60.020182,159.54922 68.265767,167.21953 69.991587,171.24644 71.717407,175.27335 75.552562,185.053 74.593773,191.95628 73.634984,198.85956 73.826742,209.21448 73.251469,215.35073 72.676195,221.48698 73.634984,240.85451 73.251469,247.94955 72.867953,255.04459 72.484438,265.78302 72.484438,274.02861 72.484438,282.27419 71.525649,284.19177 72.676195,292.24559 73.826742,300.29942 75.169046,304.13458 74.593773,309.12028 74.0185,314.10598 72.676195,318.22877 71.525649,318.89992 70.375102,319.57108 67.690493,319.95459 66.348189,318.9958 65.005885,318.03701 57.814968,309.59967 55.322117,304.13458 52.829266,298.66948 50.144657,293.20438 48.322958,287.45165 46.50126,281.69892 49.491526,264 50.847458,255.05085 52.20339,246.10169 54.915254,231.05085 56.949153,221.83051 58.983051,212.61017 61.152543,202.30508 61.288136,195.66102 61.423729,189.01695 61.627119,182.10169 60.677966,179.72881 59.728814,177.35593 58.508475,173.35593 56.20339,172.33898 53.898305,171.32203 42.983051,168.0678 40.542373,166.91525 38.101695,165.76271 34.305085,164.13559 32.40678,161.49152 30.508475,158.84746 27.322034,156.67797 26.711864,154.91525 26.101695,153.15254 25.694915,151.45763 26.440678,150.16949 27.186441,148.88135 28.881356,147.66102 29.966102,147.32203 31.050848,146.98305 34.132883,147.08496 34.132883,147.08496 Z"
     id="path12"
     inkscape:connector-curvature="0" />
  <path
     style="fill:#000000;stroke:#000000;stroke-width:1px;stroke-linecap:butt;stroke-linejoin:miter;stroke-opacity:1"
     d="M 65.005885,120.81415 C 65.005885,120.81415 79.579475,117.74602 88.208575,114.86966 96.837675,111.99329 109.68545,108.34989 112.94533,106.81583 116.20521,105.28177 124.25904,103.17243 127.1354,102.4054 130.01177,101.63837 132.1211,100.67958 136.72329,100.67958 141.32548,100.67958 149.3793,100.67958 153.59797,104.51474 157.81665,108.34989 163.76114,111.22626 167.21278,117.36251 170.66442,123.49875 174.49957,125.03282 174.88309,133.47016 175.2666,141.9075 172.39024,148.61902 171.04793,152.45418 169.70563,156.28933 164.71993,170.09589 163.56938,177.57445 162.41883,185.053 161.46004,192.53155 160.69301,200.77714 159.92598,209.02272 156.85786,228.00674 156.6661,237.21111 156.47434,246.41549 154.94028,257.92095 155.13204,266.93357 155.32379,275.94618 154.36501,284.76704 155.32379,293.77966 156.28258,302.79227 158.58368,330.21363 159.35071,338.45922 160.11774,346.7048 160.50125,361.66191 160.69301,367.6064 160.88477,373.55089 161.26829,376.61901 161.46004,381.02944 161.6518,385.43987 161.26829,393.87721 160.69301,395.02776 160.11774,396.17831 157.81665,396.75358 155.13204,395.41127 152.44743,394.06897 146.40706,387.83684 144.29772,385.05636 142.18839,382.27587 137.39444,376.61901 135.18923,373.16737 132.98401,369.71573 129.76271,366.37288 129.22034,363.79661 128.67797,361.22034 128.54237,358.50847 128.61017,357.62712 128.67797,356.74576 129.22034,355.72881 130.50847,356.27119 131.79661,356.81356 137.20269,359.74433 138.83263,359.88815 140.46257,360.03197 142.5719,360.70312 143.14718,359.84021 143.72245,358.9773 146.55088,354.08747 147.26997,351.45081 147.98906,348.81414 149.3793,339.94534 149.18755,336.63752 148.99579,333.3297 148.75609,320.72162 148.46845,318.32465 148.18082,315.92768 146.74263,308.30531 146.6947,305.6207 146.64676,302.93609 145.59209,296.12869 145.59209,293.30026 145.59209,290.47183 145.49621,282.84946 145.68797,280.06898 145.87972,277.28849 145.06475,268.27587 144.58536,263.29017 144.10597,258.30447 142.85954,246.89488 142.85954,242.19682 142.85954,237.49875 144.27119,219.9322 144.27119,212.33898 144.27119,204.74576 143.72881,189.55932 143.72881,182.50847 143.72881,175.45763 143.45763,154.30508 143.72881,148.33898 144,142.37288 145.73591,134.04543 145.54415,131.26494 145.35239,128.48446 145.25651,125.03282 142.09251,123.78639 138.92851,122.53997 131.06644,121.96469 125.98486,124.07403 120.90328,126.18336 108.91841,130.88143 103.74095,133.66192 98.563495,136.4424 92.714883,138.55174 90.030274,140.0858 87.345665,141.61986 84.277541,144.59211 78.141292,142.96217 72.005043,141.33223 67.690493,138.83938 65.293521,136.82592 62.896549,134.81246 58.965515,131.74434 58.390241,130.21028 57.814968,128.67621 58.067797,126.23729 58.440678,124.94915 58.81356,123.66102 58.915254,122.71186 59.593221,121.9322 60.271187,121.15254 61.389831,121.08474 62.677966,120.94915 63.966102,120.81356 65.005885,120.81415 65.005885,120.81415 Z"
     id="path14"
     inkscape:connector-curvature="0" />
  <path
     style="fill:#000000;stroke:#000000;stroke-width:1px;stroke-linecap:butt;stroke-linejoin:miter;stroke-opacity:1"
     d="m 72.292681,211.13205 c 0,0 9.012616,-4.9857 14.381834,-7.09504 5.369217,-2.10933 15.724135,-6.13625 20.901595,-7.67031 5.17746,-1.53406 12.84777,-4.02691 17.06644,-2.10933 4.21868,1.91757 -1.72582,11.88898 -4.21867,14.38183 -2.49285,2.49285 -13.80656,8.24558 -18.21699,9.77965 -4.410425,1.53406 -17.641711,1.15054 -23.586202,1.72582 -5.944491,0.57527 -9.196958,-0.55146 -9.603737,-2.17858 -0.40678,-1.62711 0.406779,-4.94915 1.220339,-5.76271 0.813559,-0.81356 2.055391,-1.07133 2.055391,-1.07133 z"
     id="path24"
     inkscape:connector-curvature="0" />
  <path
     style="fill:#000000;stroke:#000000;stroke-width:1px;stroke-linecap:butt;stroke-linejoin:miter;stroke-opacity:1"
     d="m 67.932205,274.03389 c 0,0 11.118644,-4.47457 15.457627,-7.59322 4.338984,-3.11864 16.40678,-10.98305 17.762708,-13.42373 1.35594,-2.44067 5.01695,-8.13559 5.96611,-9.35593 0.94915,-1.22034 4.06779,-1.83051 8,-0.47458 3.9322,1.35594 12.33898,3.72882 14.16949,5.28814 1.83051,1.55932 3.66102,4.20339 2.37288,6.37288 -1.28814,2.16949 -5.15254,7.86441 -7.45763,9.55932 -2.30508,1.69492 -12.13559,6.71187 -16.20339,8.74577 -4.06779,2.0339 -14.422205,6.43704 -15.380994,7.68346 -0.958789,1.24643 -1.246426,3.11607 -4.650126,2.25316 -3.403701,-0.86291 -6.280068,-1.8217 -11.313709,-1.86964 -5.033642,-0.0479 -8.868797,-0.91085 -9.683768,-1.8217 -0.81497,-0.91085 -2.013456,-1.96552 -1.67788,-3.06813 0.335576,-1.1026 2.638682,-2.2958 2.638682,-2.2958 z"
     id="path26"
     inkscape:connector-curvature="0" />
  <path
     style="fill:#000000;stroke:#000000;stroke-width:1px;stroke-linecap:butt;stroke-linejoin:miter;stroke-opacity:1"
     d="m 23.202691,346.89656 c 0,0 16.587047,-6.32801 23.969722,-8.53323 7.382674,-2.20521 21.57275,-7.57443 25.887299,-9.39613 4.31455,-1.8217 15.53238,-5.27334 18.025231,-6.51976 2.492851,-1.24643 9.492007,-5.36922 14.957107,-6.32801 5.4651,-0.95879 17.06644,-5.46509 19.94281,-6.42388 2.87637,-0.95879 5.94449,-1.91758 8.72498,-0.76703 2.78049,1.15054 6.8074,1.24642 4.9857,4.02691 -1.8217,2.78049 -6.23213,7.38267 -9.49201,9.01261 -3.25988,1.62995 -11.98486,4.88983 -16.20353,6.90328 -4.21867,2.01346 -21.380994,8.14971 -25.407908,10.06729 -4.026913,1.91758 -21.189234,7.19091 -25.695542,9.01261 -4.506307,1.8217 -12.847771,6.51977 -15.820016,8.14971 -2.972246,1.62994 -4.506308,3.25988 -8.341463,2.78049 -3.835156,-0.4794 -7.76619,-2.58873 -10.259041,-2.97225 -2.492851,-0.38351 -8.149706,-2.20521 -9.012616,-3.06812 -0.86291,-0.86291 -2.780488,-4.1228 -0.86291,-4.88983 1.917578,-0.76703 4.602187,-1.05466 4.602187,-1.05466 z"
     id="path28"
     inkscape:connector-curvature="0" />
  <path
     style="fill:#000000;stroke:#000000;stroke-width:1px;stroke-linecap:butt;stroke-linejoin:miter;stroke-opacity:1"
     d="m 235.28679,125.22457 c 0,0 8.05383,2.87636 18.40875,0.76703 10.35492,-2.10934 38.92683,-6.90328 42.76198,-8.43734 3.83516,-1.53407 12.65601,-3.6434 16.87469,-3.06813 4.21867,0.57527 8.6291,-2.49285 14.9571,-7.47855 6.32801,-4.9857 13.80656,-7.862071 18.60051,-3.83516 4.79394,4.02692 11.3137,9.58789 13.23128,11.12195 1.91758,1.53407 7.67031,3.83516 10.9302,4.98571 3.25988,1.15054 9.39613,4.79394 8.05382,8.6291 -1.3423,3.83515 -2.87636,6.71152 -9.58789,9.01261 -6.71152,2.30109 -20.90159,7.67031 -23.01093,11.12195 -2.10934,3.45164 -6.32801,14.95711 -6.90328,17.44996 -0.57527,2.49285 -4.79394,10.16316 -8.82086,13.23129 -4.02691,3.06812 -6.51976,6.51976 -8.6291,4.79394 -2.10933,-1.72582 -5.36921,-9.39613 -4.41043,-14.95711 0.95879,-5.56097 1.72582,-15.53238 2.3011,-19.55929 0.57527,-4.02691 2.49285,-9.01261 2.10933,-11.31371 -0.38351,-2.30109 2.68461,-7.09504 -3.64339,-6.51976 -6.32801,0.57527 -11.88899,3.83515 -16.29942,4.79394 -4.41042,0.95879 -21.09335,6.13625 -25.31202,7.09504 -4.21867,0.95879 -13.99832,1.91758 -17.06644,1.72582 -3.06813,-0.19176 -11.12196,7.86207 -13.03953,9.39613 -1.91758,1.53406 -5.56098,2.30109 -8.05383,0.95879 -2.49285,-1.3423 -7.09504,-4.41043 -9.58789,-13.03953 -2.49285,-8.6291 -3.6434,-14.19007 -1.72582,-15.72414 1.91758,-1.53406 7.86207,-1.15054 7.86207,-1.15054 z"
     id="path30"
     inkscape:connector-curvature="0" />
  <path
     style="fill:#000000;stroke:#000000;stroke-width:1px;stroke-linecap:butt;stroke-linejoin:miter;stroke-opacity:1"
     d="m 228.88136,199.59321 c 11.52543,-4.06779 24.13559,-9.49152 31.59322,-10.84745 7.45763,-1.35594 26.0339,-3.93221 32.40678,-5.55933 6.37288,-1.62712 18.16949,-5.15254 20.74577,-6.50847 2.57627,-1.35593 11.9322,-5.83051 18.30508,-5.69492 6.37288,0.1356 14.91526,2.0339 18.16949,3.11865 3.25424,1.08474 7.05085,2.0339 8.1356,3.9322 1.08474,1.89831 3.25423,3.66102 0.40678,5.15254 -2.84746,1.49153 -5.96611,3.52543 -10.57628,3.38983 -4.61017,-0.13559 -9.35593,-0.13559 -11.52542,-0.54237 -2.16949,-0.40678 -5.9661,-0.94915 -11.9322,1.49153 -5.9661,2.44067 -17.89831,5.9661 -22.23729,7.18644 -4.33898,1.22034 -13.42373,2.16949 -19.93221,4.06779 -6.50847,1.89831 -11.11864,1.49153 -20.61017,5.15255 -9.49152,3.66101 -14.10169,7.18644 -20.61017,5.42373 -6.50847,-1.76272 -12.74576,-2.30509 -15.18644,-4.47458 -2.44067,-2.16949 -3.25423,-3.25424 -1.49152,-3.9322 1.76271,-0.67797 4.33898,-1.35594 4.33898,-1.35594 z"
     id="path32"
     inkscape:connector-curvature="0" />
  <path
     style="fill:#000000;stroke:#000000;stroke-width:1px;stroke-linecap:butt;stroke-linejoin:miter;stroke-opacity:1"
     d="m 201.72918,137.49706 c 0,0 11.31371,7.86207 18.02523,14.5736 6.71152,6.71152 18.40875,13.80656 16.29941,21.66862 -2.10933,7.86207 -5.56097,16.10766 -5.75273,24.16148 -0.19176,8.05383 -2.87637,28.57191 -2.49285,36.05047 0.38351,7.47855 -1.91758,28.18839 -1.91758,34.5164 0,6.328 -2.68461,29.14718 -3.45164,33.36585 -0.76703,4.21867 -5.36922,25.12027 -6.90328,32.2153 -1.53406,7.09504 -1.53406,12.2725 -3.06812,12.2725 -1.53407,0 -3.45164,-5.17746 -3.45164,-10.35492 0,-5.17746 -0.38352,-37.00925 0.38351,-45.25483 0.76703,-8.24559 -1.15055,-45.25484 -1.53406,-48.51472 -0.38352,-3.25988 -2.10934,-28.57191 -1.72582,-36.24222 0.38351,-7.67031 0.19176,-21.47687 -1.34231,-31.06476 -1.53406,-9.58789 -4.9857,-24.73675 -7.67031,-28.38015 -2.68461,-3.6434 -3.45164,-8.6291 -1.53406,-9.39613 1.91758,-0.76703 6.13625,0.38351 6.13625,0.38351 z"
     id="path34"
     inkscape:connector-curvature="0" />
  <path
     style="fill:#000000;stroke:#000000;stroke-width:1px;stroke-linecap:butt;stroke-linejoin:miter;stroke-opacity:1"
     d="m 187.11865,354.98305 c 3.63525,0.9694 1.62712,4.06779 18.16949,-5.28814 16.54237,-9.35593 28.74576,-17.49152 36.74576,-21.69491 8,-4.20339 20.0678,-10.98306 24.81356,-12.74577 4.74577,-1.76271 11.25424,-1.62712 13.42373,-0.13559 2.16949,1.49153 5.9661,2.71186 -0.54237,9.62712 -6.50847,6.91525 -13.01695,12.20339 -17.89831,16.13559 -4.88135,3.93221 -14.50847,10.98305 -19.11864,14.50848 -4.61017,3.52542 -15.59322,11.66101 -21.55932,16.13559 -5.9661,4.47458 -10.98305,10.0339 -15.18644,10.71187 -4.20339,0.67796 -15.59322,-1.76272 -18.98305,-5.28814 -3.38984,-3.52542 -10.30509,-9.35593 -8.67797,-14.91526 1.62712,-5.55932 4.74576,-8.13559 8.81356,-7.05084 z"
     id="path36"
     inkscape:connector-curvature="0"
     sodipodi:nodetypes="ssssssccsccss" />
  <path
     style="fill:#000000;stroke:#000000;stroke-width:1px;stroke-linecap:butt;stroke-linejoin:miter;stroke-opacity:1"
     d="m 251.52543,247.18643 c 0,0 15.32203,-2.57627 20.88136,-3.79661 5.55932,-1.22033 23.72881,-3.52542 30.10169,-5.01694 6.37288,-1.49153 29.42373,-7.32204 35.38983,-8.94916 5.9661,-1.62712 15.18644,-6.77966 22.37288,-7.59322 7.18645,-0.81356 18.30509,0.94915 22.37289,2.44068 4.06779,1.49153 8,2.98305 4.61017,6.37288 -3.38983,3.38983 -11.25424,8.67797 -20.47458,7.86441 -9.22034,-0.81356 -25.22034,2.16949 -32,4.88135 -6.77966,2.71187 -20.0678,6.37289 -26.44068,8.54238 -6.37288,2.16949 -15.05085,3.79661 -20.33898,6.91525 -5.28814,3.11865 -8.67797,6.1017 -12.20339,10.16949 -3.52543,4.0678 -10.84746,6.37289 -15.05085,3.11865 -4.20339,-3.25424 -13.42373,-12.20339 -15.18644,-14.50848 -1.76271,-2.30508 -5.55932,-5.28813 -2.98305,-7.45762 2.57627,-2.1695 8.94915,-2.98306 8.94915,-2.98306 z"
     id="path38"
     inkscape:connector-curvature="0" />
  <path
     style="fill:#000000;stroke:#000000;stroke-width:1px;stroke-linecap:butt;stroke-linejoin:miter;stroke-opacity:1"
     d="m 264.62573,179.30026 c 0,0 20.51808,9.77965 26.65433,17.83347 6.13625,8.05383 17.83347,20.51808 21.66863,26.65433 3.83516,6.13625 9.01262,19.75105 14.19007,30.68125 5.17746,10.93019 19.75106,33.17409 25.69555,40.65265 5.94449,7.47855 15.91589,22.81917 27.42136,32.59882 11.50547,9.77964 36.62573,28.18839 43.72077,32.79058 7.09504,4.60218 23.77797,16.68292 29.91421,18.79226 6.13625,2.10933 16.68293,4.21867 18.79227,-2.10934 2.10933,-6.328 4.9857,-8.6291 10.93019,3.83516 5.94449,12.46425 11.69722,19.55929 12.65601,27.42136 0.95879,7.86207 2.87637,15.9159 -10.73843,10.16316 -13.6148,-5.75273 -30.29773,-22.81917 -49.08999,-32.59882 -18.79227,-9.77965 -49.47351,-32.59882 -64.43062,-47.17241 -14.9571,-14.57359 -33.36585,-32.40707 -43.33725,-46.40538 -9.97141,-13.99832 -21.86039,-31.06476 -26.27082,-35.66695 -4.41043,-4.60219 -21.47687,-33.74937 -24.73675,-40.46089 -3.25988,-6.71152 -17.06644,-24.35324 -20.51808,-30.10597 -3.45164,-5.75273 -5.82514,-8.10185 -6.36751,-9.45779 -0.54238,-1.35593 -0.40678,-2.16949 -0.1356,-2.64406 0.27119,-0.47458 3.32204,0.13559 4.40678,0.61017 1.08475,0.47457 7.11865,3.59322 7.45763,3.79661 0.33898,0.20339 2.11725,0.79179 2.11725,0.79179 z"
     id="path40"
     inkscape:connector-curvature="0" />
</svg>
