<?xml version="1.0" encoding="UTF-8" standalone="no"?>
<!-- Created with Inkscape (http://www.inkscape.org/) -->

<svg
   xmlns:dc="http://purl.org/dc/elements/1.1/"
   xmlns:cc="http://creativecommons.org/ns#"
   xmlns:rdf="http://www.w3.org/1999/02/22-rdf-syntax-ns#"
   xmlns:svg="http://www.w3.org/2000/svg"
   xmlns="http://www.w3.org/2000/svg"
   xmlns:sodipodi="http://sodipodi.sourceforge.net/DTD/sodipodi-0.dtd"
   xmlns:inkscape="http://www.inkscape.org/namespaces/inkscape"
   version="1.1"
   id="svg10"
   width="512"
   height="512"
   viewBox="0 0 512 512"
   sodipodi:docname="U+7C43.svg"
   inkscape:version="0.92.4 (5da689c313, 2019-01-14)">
  <metadata
     id="metadata16">
    <rdf:RDF>
      <cc:Work
         rdf:about="">
        <dc:format>image/svg+xml</dc:format>
        <dc:type
           rdf:resource="http://purl.org/dc/dcmitype/StillImage" />
        <dc:title></dc:title>
      </cc:Work>
    </rdf:RDF>
  </metadata>
  <defs
     id="defs14" />
  <sodipodi:namedview
     pagecolor="#ffffff"
     bordercolor="#666666"
     borderopacity="1"
     objecttolerance="10"
     gridtolerance="10"
     guidetolerance="10"
     inkscape:pageopacity="0"
     inkscape:pageshadow="2"
     inkscape:window-width="1920"
     inkscape:window-height="1017"
     id="namedview12"
     showgrid="false"
     inkscape:zoom="0.82617188"
     inkscape:cx="371.27315"
     inkscape:cy="136.70495"
     inkscape:window-x="-8"
     inkscape:window-y="-8"
     inkscape:window-maximized="1"
     inkscape:current-layer="svg10" />
  <path
     style="fill:#000000;stroke:#000000;stroke-width:1px;stroke-linecap:butt;stroke-linejoin:miter;stroke-opacity:1"
     d="m 156.89835,146.60993 c 0,0 5.9007,3.026 15.73522,1.8156 9.83452,-1.2104 20.42553,-2.4208 21.63593,-2.7234 1.21041,-0.3026 12.40662,-1.2104 14.52483,-0.6052 2.1182,0.6052 7.86761,2.1182 8.01891,2.7234 0.1513,0.6052 -1.8156,2.1182 -4.53901,3.63121 -2.7234,1.513 -16.64302,7.11111 -20.12293,8.17021 -3.47991,1.0591 -10.59102,3.7825 -15.28132,3.6312 -4.69031,-0.1513 -13.16312,-2.1182 -17.70213,-6.50591 -4.53901,-4.3877 -8.32151,-8.92671 -8.62411,-10.13711 -0.30261,-1.2104 6.35461,0 6.35461,0 z"
     id="path20"
     inkscape:connector-curvature="0" />
  <path
     style="fill:#000000;stroke:#000000;stroke-width:1px;stroke-linecap:butt;stroke-linejoin:miter;stroke-opacity:1"
     d="m 197.29551,79.432624 c 0,0 11.65012,4.236406 16.94562,8.926714 5.29551,4.690307 11.65012,9.380614 12.10402,20.425532 0.4539,11.04492 0.90781,21.78723 0.90781,25.11584 0,3.3286 -0.45391,26.02364 -0.75651,29.50354 -0.3026,3.47991 -0.1513,10.74232 -0.7565,12.10402 -0.6052,1.36171 -1.9669,3.32861 -1.9669,3.32861 0,0 -4.69031,-6.35461 -6.50591,-14.82742 -1.8156,-8.47282 -4.69031,-23.90544 -5.44681,-32.07565 -0.7565,-8.17022 -3.4799,-21.63594 -4.53901,-24.51064 -1.0591,-2.87471 -7.11111,-13.768324 -10.13711,-17.39953 -3.02601,-3.631205 -5.74941,-8.926714 -5.90071,-9.834515 -0.1513,-0.907802 2.2695,-1.513003 3.3286,-1.513003 1.05911,0 2.72341,0.756502 2.72341,0.756502 z"
     id="path22"
     inkscape:connector-curvature="0" />
  <path
     style="fill:#000000;stroke:#000000;stroke-width:1px;stroke-linecap:butt;stroke-linejoin:miter;stroke-opacity:1"
     d="m 276.27423,47.508274 c 0,0 11.19622,5.446808 18.30733,10.439716 7.11111,4.992908 17.09693,12.406619 19.97163,20.274232 2.87471,7.867612 4.38771,13.314421 4.69031,15.281324 0.3026,1.966903 -4.99291,8.018914 -7.11111,15.583924 -2.11821,7.56501 -6.50591,31.77305 -7.26241,34.95035 -0.7565,3.17731 -3.78251,14.67613 -5.29551,18.00473 -1.513,3.32861 -6.20331,11.49882 -8.32151,12.70922 -2.11821,1.2104 -3.93381,1.2104 -3.93381,1.2104 0,0 2.2695,-7.41371 3.93381,-13.01182 1.6643,-5.5981 6.20331,-41.00236 5.5981,-46.44917 -0.6052,-5.44681 -0.3026,-23.148935 -1.9669,-27.234041 -1.6643,-4.085106 0.1513,-4.387707 -10.89362,-14.978723 -11.04491,-10.591017 -18.00472,-21.787234 -17.70212,-24.056738 0.3026,-2.269504 0.3026,-6.052009 1.2104,-6.808511 0.9078,-0.756501 8.77541,4.085107 8.77541,4.085107 z"
     id="path24"
     inkscape:connector-curvature="0" />
  <path
     style="fill:#000000;stroke:#000000;stroke-width:1px;stroke-linecap:butt;stroke-linejoin:miter;stroke-opacity:1"
     d="m 302.12684,134.23447 c 0,0 10.05663,0.10699 13.9081,-1.17684 3.85148,-1.28382 21.07613,-5.02831 24.82062,-6.41912 3.74449,-1.39082 13.58715,-4.38641 15.94083,-5.8842 2.35368,-1.4978 3.31654,-3.42354 8.23787,-2.56765 4.92133,0.85588 8.98678,1.49779 10.48458,2.8886 1.49779,1.39081 4.49338,2.56765 1.39081,5.45626 -3.10258,2.88861 -10.37759,4.70736 -14.01509,4.70736 -3.63751,0 -17.01069,2.35368 -22.46694,4.27942 -5.45626,1.92573 -16.47576,6.41912 -21.71804,7.275 -5.24229,0.85589 -13.69414,1.4978 -15.94083,0.21398 -2.2467,-1.28383 -3.31655,-1.92574 -4.06545,-4.60038 -0.7489,-2.67463 -1.60478,-4.17243 -0.42794,-4.27942 1.17684,-0.10698 3.85148,0.10699 3.85148,0.10699 z"
     id="path26"
     inkscape:connector-curvature="0" />
  <path
     style="fill:#000000;stroke:#000000;stroke-width:1px;stroke-linecap:butt;stroke-linejoin:miter;stroke-opacity:1"
     d="m 188.50832,195.43013 c 0,0 3.42353,0.64191 13.48016,-1.49779 10.05663,-2.13971 16.26178,-2.88861 18.08054,-3.53052 1.81875,-0.64191 7.22176,-3.12995 5.97353,-6.30726 -1.24822,-3.1773 -2.4208,-5.33333 0,-5.33333 2.42081,0 13.16312,2.60993 16.34043,3.85815 3.1773,1.24823 8.66194,1.89126 8.69976,3.82034 0.0378,1.92907 0.0378,6.58156 -1.70212,8.05673 -1.73996,1.47518 -34.15603,12.10402 -40.66194,12.78487 -6.50591,0.68085 -11.19622,1.73996 -15.43263,-0.6052 -4.2364,-2.34515 -7.18676,-5.29551 -7.48936,-7.18676 -0.3026,-1.89125 -0.7565,-3.10165 0,-3.85815 0.7565,-0.75651 2.71163,-0.20108 2.71163,-0.20108 z"
     id="path28"
     inkscape:connector-curvature="0" />
  <path
     style="fill:#000000;stroke:#000000;stroke-width:1px;stroke-linecap:butt;stroke-linejoin:miter;stroke-opacity:1"
     d="m 216.81324,205.54137 c 0,0 5.44681,4.38771 6.35461,6.95981 0.9078,2.57211 2.4208,4.00946 2.4208,8.32151 0,4.31206 0.4539,7.86762 0.3026,9.91017 -0.1513,2.04255 1.0591,3.93381 1.96691,4.91726 0.9078,0.98345 2.4208,-0.98345 2.79905,-2.19386 0.37825,-1.2104 1.9669,-6.05201 1.9669,-7.56501 0,-1.513 -0.83215,-7.18676 0.0756,-9.83451 0.90781,-2.64776 3.32861,-9.91017 4.16076,-12.17967 0.83215,-2.26951 4.00946,-4.31206 5.06856,-5.67376 1.0591,-1.3617 1.58865,-2.19385 -0.22695,-2.34515 -1.8156,-0.1513 -14.07092,1.8156 -18.68558,3.70685 -4.61466,1.89125 -7.48936,2.72341 -7.79196,3.70686 -0.3026,0.98345 1.58865,2.2695 1.58865,2.2695 z"
     id="path30"
     inkscape:connector-curvature="0" />
  <path
     style="fill:#000000;stroke:#000000;stroke-width:1px;stroke-linecap:butt;stroke-linejoin:miter;stroke-opacity:1"
     d="m 192.14582,238.11732 c 0,0 0.10699,2.1397 6.6331,0 6.52611,-2.13971 39.47762,-8.98678 43.54306,-10.16362 4.06545,-1.17684 8.34487,-3.20956 9.84266,-5.1353 1.4978,-1.92574 5.34927,-1.60478 7.16803,-0.53493 1.81875,1.06986 4.17243,3.63751 3.31654,5.45626 -0.85588,1.81875 -2.03272,8.34486 -5.24228,10.91251 -3.20956,2.56765 -6.09817,7.16803 -8.45185,14.76399 -2.35368,7.59597 -4.3864,15.29892 -5.02831,17.54561 -0.64192,2.2467 -3.20957,8.55884 -4.06545,8.87979 -0.85588,0.32096 -5.67023,-2.8886 -6.20516,-5.67023 -0.53492,-2.78162 2.03273,-8.23787 3.20957,-15.29891 1.17684,-7.06104 4.92133,-14.657 0.10698,-16.9037 -4.81434,-2.24669 -13.48016,0 -17.97355,2.88861 -4.49339,2.8886 -14.22906,8.98677 -18.08054,8.66582 -3.85147,-0.32096 -9.73567,-1.60478 -11.12648,-4.70736 -1.39081,-3.10258 -2.13971,-8.45185 -0.85588,-10.05663 1.28382,-1.60478 3.20956,-0.64191 3.20956,-0.64191 z"
     id="path32"
     inkscape:connector-curvature="0" />
  <path
     style="fill:#000000;stroke:#000000;stroke-width:1px;stroke-linecap:butt;stroke-linejoin:miter;stroke-opacity:1"
     d="m 181.56028,285.5792 c 0,0 39.41372,-7.41372 42.96927,-8.54847 3.55556,-1.13475 12.25532,-2.64775 13.54137,-3.85815 1.28605,-1.21041 4.23641,-3.40426 8.85107,-2.42081 4.61465,0.98345 13.39007,2.72341 12.78487,4.16076 -0.6052,1.43735 -2.57211,4.00946 -4.31206,4.53901 -1.73995,0.52955 -27.61229,6.58156 -33.6643,7.94326 -6.05201,1.3617 -15.81088,3.4799 -20.42554,5.37116 -4.61465,1.89125 -7.33806,3.70685 -14.14657,0.83215 -6.80851,-2.87471 -12.25532,-5.59811 -12.10402,-6.80851 0.1513,-1.2104 6.50591,-1.2104 6.50591,-1.2104 z"
     id="path34"
     inkscape:connector-curvature="0" />
  <path
     style="fill:#000000;stroke:#000000;stroke-width:1px;stroke-linecap:butt;stroke-linejoin:miter;stroke-opacity:1"
     d="m 217.07342,293.74974 c 0,0 12.73127,1.81875 13.69414,6.74008 0.96287,4.92133 2.35368,8.0239 1.28382,12.19634 -1.06985,4.17243 -2.13971,8.55883 -1.39081,11.76839 0.7489,3.20957 -14.657,6.31214 -16.58274,4.92133 -1.92574,-1.39081 -0.10698,-1.39081 0,-6.95405 0.10699,-5.56324 -2.24669,-15.29892 -2.13971,-18.29451 0.10699,-2.99559 -0.74889,-9.73567 0.32096,-10.80553 1.06985,-1.06985 4.81434,0.42795 4.81434,0.42795 z"
     id="path36"
     inkscape:connector-curvature="0" />
  <path
     style="fill:#000000;stroke:#000000;stroke-width:1px;stroke-linecap:butt;stroke-linejoin:miter;stroke-opacity:1"
     d="m 141.6487,189.43895 c 0,0 15.08495,8.13089 21.71804,13.58715 6.6331,5.45625 11.66141,5.24228 8.13089,15.94083 -3.53052,10.69854 -5.67257,34.30967 -6.58037,49.43969 -0.9078,15.13002 -3.02601,31.77305 -3.02601,39.94326 0,8.17021 -0.9078,16.34043 0,19.06383 0.9078,2.72341 2.72341,8.77542 10.59102,7.26241 7.86761,-1.513 25.41844,-5.74941 31.16785,-6.35461 5.74941,-0.6052 30.86525,-4.8416 36.61466,-5.14421 5.7494,-0.3026 20.57683,-3.1773 23.45153,2.42081 2.87471,5.59811 4.84161,9.53191 1.2104,10.89362 -3.6312,1.3617 -20.72813,-0.3026 -26.02364,-0.90781 -5.2955,-0.6052 -19.06383,-1.513 -27.83924,2.57211 -8.77541,4.0851 -26.17494,4.69031 -27.38534,4.84161 -1.2104,0.1513 -12.86052,3.026 -18.15603,5.1442 -5.29551,2.11821 -10.74232,3.78251 -19.06383,-0.1513 -8.32151,-3.9338 -14.97872,-6.50591 -11.95272,-8.77541 3.02601,-2.2695 12.70922,-1.6643 14.97872,-10.28842 2.26951,-8.62411 8.92672,-60.97399 9.07802,-73.22931 0.1513,-12.25532 1.513,-22.08984 -1.3617,-29.95745 -2.87471,-7.86761 -7.11112,-16.79432 -13.31443,-20.42553 -6.2033,-3.63121 -12.25531,-7.26241 -13.16312,-11.95272 -0.9078,-4.69031 -0.3026,-7.86761 2.26951,-7.11111 2.5721,0.7565 8.65579,3.18836 8.65579,3.18836 z"
     id="path38"
     inkscape:connector-curvature="0" />
  <path
     style="fill:#000000;stroke:#000000;stroke-width:1px;stroke-linecap:butt;stroke-linejoin:miter;stroke-opacity:1"
     d="m 292.92609,182.27093 c 0,0 13.69413,0.21397 19.0434,8.55883 5.34928,8.34486 8.55884,13.26619 5.34928,20.32723 -3.20957,7.06104 -11.98237,20.5412 -18.18753,24.82062 -6.20515,4.27941 -14.33604,10.69854 -16.47575,10.69854 -2.13971,0 -3.63751,0.64191 -2.35368,-3.85147 1.28382,-4.49339 4.06544,-11.7684 7.06104,-14.55002 2.99559,-2.78162 11.34045,-11.12649 11.98236,-16.47576 0.64192,-5.34927 1.92574,-10.48457 -2.1397,-15.61987 -4.06545,-5.1353 -7.70295,-6.84707 -8.77281,-10.48457 -1.06985,-3.63751 4.49339,-3.42353 4.49339,-3.42353 z"
     id="path40"
     inkscape:connector-curvature="0" />
  <path
     style="fill:#000000;stroke:#000000;stroke-width:1px;stroke-linecap:butt;stroke-linejoin:miter;stroke-opacity:1"
     d="m 304.48051,222.0695 c 0,0 13.73468,2.95706 15.83385,3.42354 2.88861,0.64191 12.83825,1.92573 21.71803,3.6375 12.19635,1.81875 25.56952,2.99559 29.20703,7.70295 3.6375,4.70736 12.62428,9.20075 -4.70736,9.41472 -17.33164,0.21397 -44.71991,-2.78162 -53.49271,-6.20516 -8.77281,-3.42353 -10.2706,-2.56765 -13.69414,-3.42353 -3.42353,-0.85588 -5.34927,-1.4978 -2.35368,-7.06104 2.9956,-5.56324 7.48898,-7.48898 7.48898,-7.48898 z"
     id="path42"
     inkscape:connector-curvature="0"
     sodipodi:nodetypes="csccscscc" />
  <path
     style="fill:#000000;stroke:#000000;stroke-width:1px;stroke-linecap:butt;stroke-linejoin:miter;stroke-opacity:1"
     d="m 288.00476,268.07324 c 0,0 9.84266,8.34486 26.74636,10.05662 16.90369,1.71177 32.09562,5.56325 38.30078,7.27501 6.20515,1.71177 15.19193,7.06104 4.49338,8.77281 -10.69854,1.71177 -37.87284,4.49339 -44.50593,4.70736 -6.6331,0.21397 -15.19193,-0.85589 -18.61547,-4.06545 -3.42353,-3.20956 -7.48897,-13.05222 -10.2706,-18.82943 -2.78162,-5.77722 -4.27941,-9.84266 3.85148,-7.91692 z"
     id="path44"
     inkscape:connector-curvature="0" />
  <path
     style="fill:#000000;stroke:#000000;stroke-width:1px;stroke-linecap:butt;stroke-linejoin:miter;stroke-opacity:1"
     d="m 161.76196,357.72702 c 0,0 10.69854,4.27942 14.97796,9.20075 4.27942,4.92133 11.55442,7.70295 13.69413,8.55883 2.13971,0.85588 7.27501,4.49339 6.6331,8.7728 -0.64191,4.27942 -6.41913,25.03459 -4.92133,29.10004 1.4978,4.06545 2.35368,9.84266 1.06985,14.97796 -1.28382,5.1353 0.42795,7.27501 -1.28382,11.98237 -1.71177,4.70736 -2.56765,9.20074 -6.6331,-1.71177 -4.06544,-10.91251 -7.06103,-33.16548 -8.34486,-36.58902 -1.28383,-3.42353 -7.27501,-17.75958 -9.41472,-20.11325 -2.13971,-2.35368 -6.41912,-8.55884 -9.41471,-11.55443 -2.9956,-2.99559 -3.20957,-6.20515 -2.35368,-8.98678 0.85588,-2.78162 5.99118,-3.6375 5.99118,-3.6375 z"
     id="path46"
     inkscape:connector-curvature="0" />
  <path
     style="fill:#000000;stroke:#000000;stroke-width:1px;stroke-linecap:butt;stroke-linejoin:miter;stroke-opacity:1"
     d="m 210.97525,361.79247 c 0,0 12.83826,-0.42795 25.67651,-3.42354 12.83825,-2.99559 37.87284,-7.91692 51.13903,-9.20074 13.26619,-1.28383 23.53679,-3.85148 25.6765,-2.35368 2.13971,1.49779 8.13089,-1.92574 17.33164,-5.77722 9.20075,-3.85147 21.61105,-7.27501 29.95592,-1.06985 8.34486,6.20515 10.69854,10.69854 3.6375,19.25738 -7.06104,8.55883 -12.62428,20.96914 -16.04781,32.52356 -3.42354,11.55443 -15.19193,46.43168 -17.54561,50.49712 -2.35368,4.06545 -10.91251,10.69855 -13.90811,9.84266 -2.99559,-0.85588 -6.63309,-8.34486 -7.48898,-12.41031 -0.85588,-4.06544 -5.34927,-23.10885 0,-20.5412 5.34928,2.56765 6.41913,8.98678 11.7684,-7.70295 5.34927,-16.68972 14.33605,-43.22211 15.4059,-46.64564 1.06986,-3.42354 6.41913,-11.98237 -8.13089,-11.12649 -14.55002,0.85589 -34.44931,2.9956 -46.00373,5.34927 -11.55443,2.35368 -46.85962,8.98678 -53.27874,10.69855 -6.41913,1.71176 -12.19634,2.99559 -20.5412,-0.42794 -8.34487,-3.42354 -10.05663,-4.92133 -5.77722,-5.99119 4.27942,-1.06985 8.13089,-1.49779 8.13089,-1.49779 z"
     id="path48"
     inkscape:connector-curvature="0" />
  <path
     style="fill:#000000;stroke:#000000;stroke-width:1px;stroke-linecap:butt;stroke-linejoin:miter;stroke-opacity:1"
     d="m 263.39811,365.216 c 0,0 6.6331,10.05663 7.70295,25.46253 1.06986,15.4059 2.56765,24.17871 4.49339,26.31841 1.92574,2.13971 7.27501,3.85148 7.91692,1.06986 0.64191,-2.78162 3.63751,-7.91692 3.63751,-11.7684 0,-3.85147 -1.92574,-19.47135 -4.27942,-22.46694 -2.35368,-2.99559 -8.13089,-6.84706 -10.05663,-12.83825 -1.92574,-5.99118 -1.71177,-6.63309 -1.92574,-9.84266 -0.21397,-3.20956 -6.20515,-5.1353 -7.70295,-3.20956 -1.49779,1.92574 0.21397,7.27501 0.21397,7.27501 z"
     id="path50"
     inkscape:connector-curvature="0" />
  <path
     style="fill:#000000;stroke:#000000;stroke-width:1px;stroke-linecap:butt;stroke-linejoin:miter;stroke-opacity:1"
     d="m 227.02307,385.54323 c 0,0 4.70736,10.48457 3.6375,19.47135 -1.06985,8.98677 -3.20956,18.18752 -7.91692,22.89488 -4.70736,4.70736 -11.98237,12.19634 -12.83825,12.62428 -0.85588,0.42794 1.28383,3.85147 5.56324,2.78162 4.27942,-1.06986 9.20075,-1.71177 9.41472,-4.27942 0.21397,-2.56765 -1.92574,-0.64191 4.27942,-8.13089 6.20515,-7.48898 16.68972,-25.03459 17.75958,-27.1743 1.06985,-2.13971 3.85147,-6.41912 1.28382,-11.76839 -2.56765,-5.34928 -14.33604,-6.6331 -16.68972,-6.84707 -2.35368,-0.21397 -4.49339,0.42794 -4.49339,0.42794 z"
     id="path52"
     inkscape:connector-curvature="0" />
  <path
     style="fill:#000000;stroke:#000000;stroke-width:1px;stroke-linecap:butt;stroke-linejoin:miter;stroke-opacity:1"
     d="m 68.470671,453.79993 c 0,0 5.563242,1.71177 22.68091,0.42794 17.117669,-1.28382 80.880979,-10.2706 84.304509,-10.48457 3.42354,-0.21397 102.70601,-10.69854 109.76705,-11.55443 7.06104,-0.85588 75.74568,-6.84706 83.6626,-7.70295 7.91692,-0.85588 27.60224,-2.35368 40.22652,-5.34927 12.62428,-2.99559 23.10885,-3.42353 34.23533,7.06104 11.12649,10.48457 21.39709,17.97355 13.69414,22.89488 -7.70295,4.92133 -14.97796,7.06104 -34.87725,1.4978 -19.89929,-5.56324 -36.80299,-10.91252 -78.5273,-11.12649 -41.72432,-0.21397 -104.2038,7.06104 -117.68397,10.2706 -13.48016,3.20957 -43.22211,5.56325 -64.83316,12.83825 -21.61106,7.27501 -52.20889,14.97796 -57.77213,18.18753 -5.563243,3.20956 -11.554427,7.48898 -16.689727,5.99118 -5.1353,-1.4978 -20.327231,-14.55002 -23.322822,-18.18752 -2.995592,-3.63751 -6.824733,-9.519 -5.614331,-11.78851 1.210402,-2.2695 3.933806,-4.16075 6.12766,-3.70685 2.193853,0.4539 4.621971,0.73137 4.621971,0.73137 z"
     id="path54"
     inkscape:connector-curvature="0" />
</svg>
