<?xml version="1.0" encoding="UTF-8" standalone="no"?>
<!-- Created with Inkscape (http://www.inkscape.org/) -->

<svg
   xmlns:dc="http://purl.org/dc/elements/1.1/"
   xmlns:cc="http://creativecommons.org/ns#"
   xmlns:rdf="http://www.w3.org/1999/02/22-rdf-syntax-ns#"
   xmlns:svg="http://www.w3.org/2000/svg"
   xmlns="http://www.w3.org/2000/svg"
   xmlns:sodipodi="http://sodipodi.sourceforge.net/DTD/sodipodi-0.dtd"
   xmlns:inkscape="http://www.inkscape.org/namespaces/inkscape"
   version="1.1"
   id="svg10"
   width="512"
   height="512"
   viewBox="0 0 512 512"
   sodipodi:docname="U+8C61.svg"
   inkscape:version="0.92.4 (5da689c313, 2019-01-14)">
  <metadata
     id="metadata16">
    <rdf:RDF>
      <cc:Work
         rdf:about="">
        <dc:format>image/svg+xml</dc:format>
        <dc:type
           rdf:resource="http://purl.org/dc/dcmitype/StillImage" />
        <dc:title></dc:title>
      </cc:Work>
    </rdf:RDF>
  </metadata>
  <defs
     id="defs14" />
  <sodipodi:namedview
     pagecolor="#ffffff"
     bordercolor="#666666"
     borderopacity="1"
     objecttolerance="10"
     gridtolerance="10"
     guidetolerance="10"
     inkscape:pageopacity="0"
     inkscape:pageshadow="2"
     inkscape:window-width="1920"
     inkscape:window-height="1017"
     id="namedview12"
     showgrid="false"
     inkscape:zoom="0.82617188"
     inkscape:cx="-298.08609"
     inkscape:cy="330.55671"
     inkscape:window-x="-8"
     inkscape:window-y="-8"
     inkscape:window-maximized="1"
     inkscape:current-layer="svg10" />
  <path
     style="fill:#000000;stroke:#000000;stroke-width:1px;stroke-linecap:butt;stroke-linejoin:miter;stroke-opacity:1"
     d="m 166.43026,15.886524 c 0,0 11.65012,4.841608 17.24823,14.373523 5.59811,9.531915 13.01182,23.300236 8.62411,32.22695 -4.38771,8.926714 -87.90544,70.052013 -96.832151,75.952723 -8.926714,5.90071 -22.846335,18.91253 -32.983451,16.64302 -10.137116,-2.2695 -20.122932,-4.3877 -16.945627,-13.31442 3.177305,-8.92671 7.413712,-18.15603 9.683215,-16.64302 2.269504,1.513 0.605201,4.2364 5.144208,4.6903 4.539007,0.4539 9.834516,0.9078 28.141844,-10.28841 18.307332,-11.19622 65.210402,-50.382982 69.749412,-56.586292 4.539,-6.20331 9.68321,-13.768322 6.95981,-23.451537 -2.72341,-9.683215 -4.84161,-16.189125 -6.05201,-20.425532 -1.2104,-4.236406 0,-6.35461 2.2695,-5.598108 2.26951,0.756501 4.99291,2.420803 4.99291,2.420803 z"
     id="path20"
     inkscape:connector-curvature="0" />
  <path
     style="fill:#000000;stroke:#000000;stroke-width:1px;stroke-linecap:butt;stroke-linejoin:miter;stroke-opacity:1"
     d="m 205.01182,40.699763 c 0,0 8.77541,3.933806 19.06383,4.841608 10.28842,0.907801 24.35934,2.572103 28.8227,2.723404 4.46335,0.1513 5.97635,1.891253 9.45626,-3.933806 3.47991,-5.82506 1.0591,-11.196218 5.82506,-10.893618 4.76596,0.302601 9.83451,1.664303 11.87707,4.841608 2.04255,3.177305 5.97636,8.548463 6.58156,11.877069 0.6052,3.328605 3.25295,8.170212 -0.6052,10.364066 -3.85816,2.193853 -20.95509,10.515366 -24.13239,12.70922 -3.17731,2.193853 -18.91253,11.877068 -19.59338,11.877068 -0.68085,0 2.1182,-0.983451 -1.0591,0.07565 -3.17731,1.059102 -6.05201,1.361703 -7.71631,0.680851 -1.66431,-0.680851 -3.70686,-4.085106 -1.51301,-4.614657 2.19386,-0.529551 4.08511,-1.513002 7.03546,-4.236406 2.95036,-2.723405 9.91017,-7.338062 4.00946,-7.489362 -5.90071,-0.1513 -30.26005,-10.288416 -32.3026,-11.725768 -2.04255,-1.437353 -6.05201,-7.867613 -8.47281,-11.423168 -2.42081,-3.555556 -3.17731,-5.97636 -2.04256,-6.27896 1.13475,-0.302601 4.76596,0.605201 4.76596,0.605201 z"
     id="path22"
     inkscape:connector-curvature="0" />
  <path
     style="fill:#000000;stroke:#000000;stroke-width:1px;stroke-linecap:butt;stroke-linejoin:miter;stroke-opacity:1"
     d="m 160.22695,115.74468 c 0,0 11.49882,4.23641 13.31442,4.08511 1.8156,-0.1513 13.31442,-2.26951 17.85343,-3.32861 4.53901,-1.0591 53.86288,-10.28841 66.2695,-11.04492 12.40662,-0.7565 57.79669,-4.9929 61.7305,-0.1513 3.93381,4.84161 6.65721,5.59811 6.80851,11.34752 0.1513,5.74941 1.3617,10.28842 -3.1773,14.22222 -4.53901,3.93381 -41.45627,41.45627 -46.44918,43.57447 -4.99291,2.11821 -8.92671,2.42081 -10.59101,0 -1.66431,-2.4208 -2.42081,-4.3877 0.4539,-8.47281 2.8747,-4.08511 23.60283,-27.38534 26.47754,-32.22695 2.8747,-4.84161 7.71631,-12.55792 9.07801,-16.18913 1.3617,-3.6312 -0.9078,-5.90071 -25.26714,-3.3286 -24.35934,2.5721 -39.79196,6.35461 -53.86288,9.98581 -14.07092,3.63121 -34.19386,11.49882 -40.24586,12.70922 -6.05201,1.21041 -13.61703,3.17731 -17.85343,-0.4539 -4.23641,-3.6312 -8.62412,-12.25532 -9.07802,-16.34042 -0.4539,-4.08511 -0.9078,-5.59811 0.6052,-5.74941 1.51301,-0.1513 3.93381,1.3617 3.93381,1.3617 z"
     id="path24"
     inkscape:connector-curvature="0" />
  <path
     style="fill:#000000;stroke:#000000;stroke-width:1px;stroke-linecap:butt;stroke-linejoin:miter;stroke-opacity:1"
     d="m 102.06409,146.96574 c 0,0 23.10886,4.27941 27.38827,11.55442 4.27942,7.27501 18.82944,37.4449 18.18752,44.078 -0.64191,6.63309 0.85589,9.84265 -4.49338,10.05663 -5.34927,0.21397 -7.48898,2.56765 -8.55884,-1.92574 -1.06985,-4.49339 -5.34927,-23.96474 -9.41471,-29.31401 -4.06545,-5.34927 -4.06545,-10.2706 -13.48017,-13.05222 -9.41472,-2.78162 -14.122074,-9.62869 -15.405899,-14.33605 -1.283825,-4.70735 -0.855883,-8.55883 1.711767,-8.13089 2.567652,0.42794 4.065442,1.06986 4.065442,1.06986 z"
     id="path26"
     inkscape:connector-curvature="0" />
  <path
     style="fill:#000000;stroke:#000000;stroke-width:1px;stroke-linecap:butt;stroke-linejoin:miter;stroke-opacity:1"
     d="m 192.14582,144.61206 c 0,0 12.83825,-3.85148 22.039,4.92133 9.20074,8.7728 13.9081,12.41031 8.55883,23.32282 -5.34927,10.91251 -7.27501,17.33164 -11.7684,20.11326 -4.49338,2.78162 -13.9081,5.56324 -14.55001,3.42353 -0.64192,-2.13971 1.92573,-6.41912 2.13971,-11.34045 0.21397,-4.92133 0.21397,-22.68091 -1.06986,-25.67651 -1.28382,-2.99559 -8.13089,-3.42353 -9.41472,-5.56324 -1.28382,-2.13971 -0.42794,-8.13089 1.06986,-8.7728 1.49779,-0.64191 2.99559,-0.42794 2.99559,-0.42794 z"
     id="path28"
     inkscape:connector-curvature="0" />
  <path
     style="fill:#000000;stroke:#000000;stroke-width:1px;stroke-linecap:butt;stroke-linejoin:miter;stroke-opacity:1"
     d="m 114.90234,214.15258 c 0,0 73.17803,-22.68091 80.88098,-23.32282 7.70296,-0.64191 38.9427,-6.84707 42.5802,-13.05222 3.63751,-6.20516 5.56324,-7.91692 9.41472,-5.77722 3.85148,2.13971 10.2706,6.6331 8.55883,8.77281 -1.71176,2.13971 -34.02136,30.59783 -45.78976,42.15226 -11.76839,11.55442 -48.99932,49.64123 -57.13021,55.84639 -8.1309,6.20515 -28.03018,25.03459 -40.65446,29.74194 -12.62428,4.70736 -18.401497,5.99119 -22.894884,4.70736 -4.493388,-1.28382 1.283825,-15.83384 9.200746,-19.68531 7.916918,-3.85148 29.100038,-14.12208 46.431678,-28.88607 17.33163,-14.76399 48.99932,-39.37063 59.05595,-49.21329 10.05663,-9.84266 19.47135,-19.04341 8.7728,-16.9037 -10.69854,2.13971 -48.35741,14.33605 -57.9861,18.82943 -9.62868,4.49339 -21.61105,6.6331 -31.23974,11.55443 -9.62869,4.92133 -14.12207,12.62428 -22.25297,8.34486 -8.130889,-4.27941 -15.405898,-7.91692 -16.261781,-12.19634 -0.855884,-4.27941 -0.855884,-6.84706 1.283825,-7.48897 2.139708,-0.64192 10.2706,-0.42795 16.047816,-1.4978 5.77721,-1.06985 11.98236,-1.92574 11.98236,-1.92574 z"
     id="path30"
     inkscape:connector-curvature="0" />
  <path
     style="fill:#000000;stroke:#000000;stroke-width:1px;stroke-linecap:butt;stroke-linejoin:miter;stroke-opacity:1"
     d="m 207.12378,242.18276 c 0,0 11.12648,0.21397 14.33605,5.99119 3.20956,5.77721 4.27941,10.91251 0.85588,13.69413 -3.42353,2.78162 -7.06104,2.56765 -11.34046,7.70295 -4.27941,5.1353 -38.51475,41.51035 -47.28755,49.64124 -8.77281,8.13089 -44.50594,38.30078 -54.77654,44.29196 -10.2706,5.99119 -16.689725,12.83825 -24.178705,11.55443 -7.488979,-1.28383 -15.405901,-5.99119 -8.130892,-10.69854 7.275009,-4.70736 71.038317,-42.15226 78.099357,-48.57139 7.06104,-6.41912 31.88166,-30.16989 40.65446,-41.0824 8.77281,-10.91251 12.62428,-16.68972 11.55443,-21.61105 -1.06986,-4.92133 -2.56765,-7.91693 -2.56765,-9.62869 0,-1.71177 2.78162,-1.28383 2.78162,-1.28383 z"
     id="path32"
     inkscape:connector-curvature="0" />
  <path
     style="fill:#000000;stroke:#000000;stroke-width:1px;stroke-linecap:butt;stroke-linejoin:miter;stroke-opacity:1"
     d="m 234.08411,265.71956 c 0,0 11.34045,0 14.76398,6.41912 3.42354,6.41913 1.92574,11.7684 -5.1353,19.04341 -7.06103,7.27501 -36.80298,51.353 -40.65446,55.20447 -3.85147,3.85148 -38.72872,45.14785 -48.99932,54.77654 -10.2706,9.62869 -41.29637,34.87725 -50.71109,40.65446 -9.414718,5.77722 -24.392678,16.9037 -33.379453,16.68973 -8.986776,-0.21397 -8.344863,0.85588 -13.266193,-4.49339 -4.921329,-5.34927 2.995592,-14.55002 6.847067,-16.04781 3.851476,-1.4978 45.147849,-19.68532 65.903019,-37.01696 20.75517,-17.33164 34.02137,-30.38386 48.57138,-44.71991 14.55002,-14.33604 31.23975,-32.52356 38.51476,-40.86843 7.27501,-8.34486 23.75076,-30.38386 19.89929,-35.9471 -3.85148,-5.56324 -10.05663,-11.7684 -7.06104,-12.83825 2.99559,-1.06986 4.70736,-0.85588 4.70736,-0.85588 z"
     id="path34"
     inkscape:connector-curvature="0" />
  <path
     style="fill:#000000;stroke:#000000;stroke-width:1px;stroke-linecap:butt;stroke-linejoin:miter;stroke-opacity:1"
     d="m 334.43643,187.6202 c 0,0 15.4059,2.99559 19.68532,10.05663 4.27942,7.06103 8.55883,7.27501 5.1353,11.55442 -3.42353,4.27942 -71.46626,57.34419 -79.59715,61.83758 -8.1309,4.49338 -14.76399,3.6375 -16.9037,2.56765 -2.13971,-1.06986 -6.84707,-0.85589 -1.92574,-5.1353 4.92133,-4.27942 44.29197,-30.38386 48.14344,-37.23093 3.85148,-6.84707 21.18312,-23.53679 21.18312,-31.45372 0,-7.91692 -2.13971,-12.4103 -1.71177,-13.69413 0.42794,-1.28382 5.99118,1.4978 5.99118,1.4978 z"
     id="path36"
     inkscape:connector-curvature="0" />
  <path
     style="fill:#000000;stroke:#000000;stroke-width:1px;stroke-linecap:butt;stroke-linejoin:miter;stroke-opacity:1"
     d="m 169.15366,269.01182 c 0,0 30.26005,12.10402 36.91726,18.15603 6.65721,6.05201 45.39007,31.47045 53.25769,34.19385 7.86761,2.72341 75.34751,31.47045 102.58156,32.07565 27.23404,0.6052 75.65011,9.07802 88.96453,12.70922 13.31443,3.63121 24.81324,8.17021 29.65485,9.38062 4.84161,1.2104 6.95981,2.4208 6.95981,2.4208 0,0 -14.22222,7.56501 -27.83924,8.17021 -13.61702,0.6052 -36.91726,-0.9078 -49.32388,6.95981 -12.40662,7.86762 -17.24823,13.31442 -39.03546,2.42081 -21.78723,-10.89362 -123.15839,-65.0591 -127.0922,-67.17731 -3.9338,-2.1182 -40.54846,-30.56264 -44.78487,-32.98345 -4.2364,-2.4208 -23.30023,-19.36643 -26.93144,-20.57683 -3.63121,-1.2104 -8.15266,-2.94351 -7.93869,-4.4413 0.21397,-1.4978 4.61008,-1.30811 4.61008,-1.30811 z"
     id="path38"
     inkscape:connector-curvature="0" />
  <path
     style="fill:#000000;stroke:#000000;stroke-width:1px;stroke-linecap:butt;stroke-linejoin:miter;stroke-opacity:1"
     d="m 264.32151,281.11584 c 0,0 12.10402,1.8156 15.58393,7.56501 3.4799,5.74941 6.50591,6.05201 1.9669,17.70213 -4.53901,11.65012 -10.43972,40.69976 -12.25532,46.44917 -1.8156,5.74941 -13.31442,39.94326 -16.03782,45.99527 -2.72341,6.05201 -17.55083,32.68085 -21.78724,38.43026 -4.2364,5.74941 -14.82742,19.97163 -23.30023,26.93145 -8.47282,6.95981 -13.13635,16.99907 -17.73672,5.55163 -4.60037,-11.44744 -4.17243,-15.29892 -12.83825,-21.18312 -8.66582,-5.88419 -18.18752,-14.657 -20.32723,-19.57833 -2.13971,-4.92133 -10.48457,-13.69413 0.10698,-9.41472 10.59156,4.27942 34.44931,11.66142 37.76586,12.30333 3.31655,0.64191 6.37215,6.90277 16.35796,-7.31946 9.98582,-14.22222 19.66903,-35.70685 27.23404,-48.11347 7.56502,-12.40662 16.64303,-29.35225 18.76123,-38.43026 2.11821,-9.07802 12.70922,-29.65485 7.86762,-41.75887 -4.84161,-12.10402 -7.11112,-15.58392 -7.11112,-16.79432 0,-1.21041 5.74941,1.6643 5.74941,1.6643 z"
     id="path40"
     inkscape:connector-curvature="0" />
</svg>
