<?xml version="1.0" encoding="UTF-8" standalone="no"?>
<!-- Created with Inkscape (http://www.inkscape.org/) -->

<svg
   xmlns:dc="http://purl.org/dc/elements/1.1/"
   xmlns:cc="http://creativecommons.org/ns#"
   xmlns:rdf="http://www.w3.org/1999/02/22-rdf-syntax-ns#"
   xmlns:svg="http://www.w3.org/2000/svg"
   xmlns="http://www.w3.org/2000/svg"
   xmlns:sodipodi="http://sodipodi.sourceforge.net/DTD/sodipodi-0.dtd"
   xmlns:inkscape="http://www.inkscape.org/namespaces/inkscape"
   version="1.1"
   id="svg10"
   width="512"
   height="512"
   viewBox="0 0 512 512"
   sodipodi:docname="U+9280.svg"
   inkscape:version="0.92.4 (5da689c313, 2019-01-14)">
  <metadata
     id="metadata16">
    <rdf:RDF>
      <cc:Work
         rdf:about="">
        <dc:format>image/svg+xml</dc:format>
        <dc:type
           rdf:resource="http://purl.org/dc/dcmitype/StillImage" />
        <dc:title></dc:title>
      </cc:Work>
    </rdf:RDF>
  </metadata>
  <defs
     id="defs14" />
  <sodipodi:namedview
     pagecolor="#ffffff"
     bordercolor="#666666"
     borderopacity="1"
     objecttolerance="10"
     gridtolerance="10"
     guidetolerance="10"
     inkscape:pageopacity="0"
     inkscape:pageshadow="2"
     inkscape:window-width="1920"
     inkscape:window-height="1017"
     id="namedview12"
     showgrid="false"
     inkscape:zoom="0.82617188"
     inkscape:cx="646.41398"
     inkscape:cy="136.73249"
     inkscape:window-x="-8"
     inkscape:window-y="-8"
     inkscape:window-maximized="1"
     inkscape:current-layer="svg10" />
  <path
     style="fill:#000000;stroke:#000000;stroke-width:1px;stroke-linecap:butt;stroke-linejoin:miter;stroke-opacity:1"
     d="m 191.3948,121.79669 c 0,0 15.43262,-2.4208 26.78014,2.2695 11.34752,4.69031 22.08984,11.49882 22.39244,15.43263 0.3026,3.9338 -0.75651,11.04491 -5.59811,11.95272 -4.84161,0.9078 -15.43263,-0.3026 -21.78724,-3.93381 -6.35461,-3.63121 -18.60993,-13.16312 -21.33333,-15.58392 -2.7234,-2.42081 -6.05201,-6.35461 -7.71631,-7.26242 -1.6643,-0.9078 -0.7565,-3.9338 1.513,-3.4799 2.2695,0.4539 5.74941,0.6052 5.74941,0.6052 z"
     id="path20"
     inkscape:connector-curvature="0" />
  <path
     style="fill:#000000;stroke:#000000;stroke-width:1px;stroke-linecap:butt;stroke-linejoin:miter;stroke-opacity:1"
     d="m 147.51773,82.156028 c 0,0 12.40662,6.35461 16.18913,21.635932 3.7825,15.28133 8.77541,22.08984 4.2364,28.14185 -4.539,6.05201 -49.83135,50.97903 -53.68283,55.25845 -3.85147,4.27941 -30.169887,34.66327 -36.375042,41.29637 -6.205154,6.63309 -18.829434,20.96914 -22.252968,23.75076 -3.423533,2.78162 -19.471347,15.83385 -25.676501,17.97355 -6.205155,2.13971 -8.130893,8.02391 -13.159208,-0.32095 -5.028314,-8.34487 -1.925737,-16.26179 -0.534927,-17.33164 1.390811,-1.06986 14.657003,0.96287 28.565108,-8.45185 13.908105,-9.41472 42.624645,-40.91228 50.340957,-50.4442 7.716311,-9.53191 25.569741,-29.80614 29.049641,-35.70685 3.47991,-5.90071 16.79433,-22.84634 20.12294,-32.83215 3.3286,-9.98582 7.56501,-19.97164 2.2695,-26.780147 -5.29551,-6.80851 -9.83452,-13.692671 -10.43972,-15.583924 -0.6052,-1.891253 -1.0591,-3.479906 0,-4.160757 1.0591,-0.680851 3.32861,-0.832151 4.91726,-0.07565 1.58865,0.756501 6.43026,3.631206 6.43026,3.631206 z"
     id="path22"
     inkscape:connector-curvature="0" />
  <path
     style="fill:#000000;stroke:#000000;stroke-width:1px;stroke-linecap:butt;stroke-linejoin:miter;stroke-opacity:1"
     d="m 133.51781,197.67683 c 0,0 10.59156,-0.53493 17.33164,-2.67464 6.74008,-2.13971 23.10885,-5.1353 25.6765,-5.8842 2.56765,-0.7489 19.89929,-4.81434 22.78789,-2.13971 2.88861,2.67464 6.95406,6.41913 5.8842,8.34487 -1.06985,1.92573 -3.10258,5.1353 -8.34486,6.20515 -5.24229,1.06986 -23.75077,3.63751 -29.10004,7.48898 -5.34927,3.85148 -9.84266,7.06104 -14.657,7.27501 -4.81434,0.21397 -14.22906,-2.56765 -18.93642,-6.95405 -4.70736,-4.3864 -6.20515,-8.55884 -5.24228,-10.59156 0.96286,-2.03272 4.60037,-1.06985 4.60037,-1.06985 z"
     id="path24"
     inkscape:connector-curvature="0" />
  <path
     style="fill:#000000;stroke:#000000;stroke-width:1px;stroke-linecap:butt;stroke-linejoin:miter;stroke-opacity:1"
     d="m 105.91557,265.29161 c 0,0 3.74449,1.92574 9.84266,0.85589 6.09817,-1.06986 20.00627,-5.24229 23.32282,-6.20516 3.31655,-0.96287 30.27688,-7.91692 33.48644,-9.41471 3.20956,-1.4978 8.87979,-2.13971 10.80553,-3.85148 1.92573,-1.71177 7.70295,-3.10258 11.44744,-1.92574 3.74449,1.17684 10.05663,3.85148 9.84265,4.92133 -0.21397,1.06986 -1.06985,6.84707 -2.1397,7.59597 -1.06986,0.7489 -5.56325,4.60037 -9.84266,4.06544 -4.27942,-0.53492 -12.08936,1.17684 -15.72686,2.78162 -3.6375,1.60479 -25.56952,6.74009 -27.70922,7.382 -2.13971,0.64191 -6.41913,-1.60478 -12.73127,2.99559 -6.31214,4.60037 -10.05663,7.91692 -13.58715,8.55883 -3.53052,0.64192 -10.59156,0.42795 -13.58715,-3.20956 -2.99559,-3.6375 -6.68659,-7.3285 -7.48898,-10.53806 -0.80239,-3.20957 -1.55129,-5.24229 0.16048,-5.24229 1.71177,0 3.90497,1.23033 3.90497,1.23033 z"
     id="path26"
     inkscape:connector-curvature="0" />
  <path
     style="fill:#000000;stroke:#000000;stroke-width:1px;stroke-linecap:butt;stroke-linejoin:miter;stroke-opacity:1"
     d="m 146.99797,235.87062 c 0,0 9.20075,2.46067 14.33605,6.52611 5.1353,4.06545 8.13089,6.52611 8.55883,12.08936 0.42794,5.56324 -1.92574,22.57392 -2.99559,36.05408 -1.06985,13.48017 -5.45626,55.52544 -4.81434,59.59088 0.64191,4.06545 3.6375,7.27501 3.74449,9.94965 0.10698,2.67463 -3.63751,13.80112 -5.24229,14.657 -1.60478,0.85589 -4.70736,0.10699 -7.48898,-4.06544 -2.78162,-4.17244 -4.92133,-13.90811 -3.42353,-17.43863 1.49779,-3.53052 5.8842,-12.19634 6.20515,-15.4059 0.32096,-3.20956 2.53359,-56.56059 0.11278,-63.823 -2.4208,-7.26241 -3.6312,-21.78724 -6.05201,-25.72104 -2.4208,-3.93381 -5.98964,-8.88255 -7.0595,-9.63145 -1.06985,-0.74889 -1.55129,-2.83511 -0.7489,-3.04908 0.8024,-0.21397 4.86784,0.26746 4.86784,0.26746 z"
     id="path28"
     inkscape:connector-curvature="0" />
  <path
     style="fill:#000000;stroke:#000000;stroke-width:1px;stroke-linecap:butt;stroke-linejoin:miter;stroke-opacity:1"
     d="m 108.26925,305.41115 c 0,0 19.15039,23.64378 20.75517,27.81621 1.60478,4.17243 1.92574,5.67023 -0.53493,9.62869 -2.46066,3.95846 -5.56324,5.34927 -9.73567,1.60478 -4.17243,-3.74449 -7.16802,-17.43863 -8.23788,-19.89929 -1.06985,-2.46067 -3.31655,-11.23347 -3.85147,-12.41031 -0.53493,-1.17684 -2.04036,-6.903 -2.11601,-7.6595 -0.0757,-0.75651 3.72079,0.91942 3.72079,0.91942 z"
     id="path30"
     inkscape:connector-curvature="0" />
  <path
     style="fill:#000000;stroke:#000000;stroke-width:1px;stroke-linecap:butt;stroke-linejoin:miter;stroke-opacity:1"
     d="m 201.77451,275.56221 c 0,0 21.82502,14.12208 23.10885,18.82944 1.28382,4.70736 -2.56765,13.48016 -7.06104,17.97355 -4.49339,4.49339 -17.54561,17.75958 -24.60665,22.68091 -7.06103,4.92133 -20.32723,11.98237 -23.10885,12.62428 -2.78162,0.64191 -4.05481,0.2445 -4.73566,-0.43635 -0.68085,-0.68085 12.40662,-12.70922 16.79432,-18.38298 4.38771,-5.67376 14.58071,-17.34174 15.11564,-25.04469 0.53493,-7.70295 0.32096,-17.22466 -0.53493,-20.38073 -0.85588,-3.15607 -1.49779,-5.93769 -1.55129,-7.3285 -0.0535,-1.39081 0.7489,-3.10258 1.71177,-3.15607 0.96287,-0.0535 4.86784,2.62114 4.86784,2.62114 z"
     id="path32"
     inkscape:connector-curvature="0" />
  <path
     style="fill:#000000;stroke:#000000;stroke-width:1px;stroke-linecap:butt;stroke-linejoin:miter;stroke-opacity:1"
     d="m 60.822695,379.76359 c 0,0 5.749409,2.11821 15.810875,-1.8156 10.061466,-3.93381 63.01655,-12.40662 68.61466,-14.07092 5.59811,-1.6643 34.04255,-3.78251 52.65248,-5.90071 18.60993,-2.1182 27.51758,-2.12159 29.01537,-0.19585 1.4978,1.92574 1.65828,5.61674 0.64192,6.79358 -1.01637,1.17684 -3.63751,4.33291 -6.31214,4.92133 -2.67464,0.58842 -8.50535,0.80239 -11.28697,0.32095 -2.78162,-0.48143 -72.72958,5.55952 -82.41279,7.52642 -9.68322,1.9669 -21.03073,3.78251 -28.898346,8.01891 -7.867612,4.23641 -22.741596,13.01978 -26.058144,13.98265 -3.316548,0.96287 -7.970414,2.83511 -11.340455,-1.17684 -3.370041,-4.01195 -7.007545,-13.26619 -7.061038,-15.08495 -0.05349,-1.81875 -0.160478,-4.01195 0.962869,-4.22592 1.123347,-0.21397 5.671709,0.90695 5.671709,0.90695 z"
     id="path34"
     inkscape:connector-curvature="0" />
  <path
     style="fill:#000000;stroke:#000000;stroke-width:1px;stroke-linecap:butt;stroke-linejoin:miter;stroke-opacity:1"
     d="m 287.57682,112.94437 c 0,0 75.31774,-20.969142 83.02069,-22.038996 7.70295,-1.069854 9.20074,-0.855883 11.01949,-5.028315 1.81876,-4.172432 7.06104,-12.410309 14.65701,-6.740082 7.59596,5.670228 22.14598,18.508479 21.61105,22.466943 -0.53492,3.95846 -6.95405,11.12648 -12.19633,15.61987 -5.24229,4.49339 -17.11767,17.11767 -19.68532,38.30078 -2.56765,21.18311 -2.99559,64.83317 -5.1353,73.60597 -2.13971,8.77281 -2.23927,11.28554 -4.20617,12.42029 -1.9669,1.13475 -4.76596,-1.73996 -5.06856,-4.84161 -0.3026,-3.10166 1.57178,-60.64345 1.78575,-73.90964 0.21397,-13.26619 2.8886,-39.47762 2.35368,-45.46881 -0.53493,-5.99118 -1.39081,-15.08494 -10.69855,-11.76839 -9.30773,3.31655 -26.74635,14.12207 -33.59342,17.54561 -6.84707,3.42353 -15.19193,11.44744 -26.4254,8.45184 -11.23347,-2.99559 -22.89488,-6.31214 -24.28569,-9.09376 -1.39081,-2.78162 -2.56765,-3.95846 -1.81875,-5.88419 0.7489,-1.92574 8.66582,-3.63751 8.66582,-3.63751 z"
     id="path36"
     inkscape:connector-curvature="0" />
  <path
     style="fill:#000000;stroke:#000000;stroke-width:1px;stroke-linecap:butt;stroke-linejoin:miter;stroke-opacity:1"
     d="m 304.64303,196.00946 c 0,0 8.47281,1.0591 14.90307,-3.17731 6.43026,-4.23641 24.73759,-12.48227 27.08274,-13.69267 2.34516,-1.2104 4.76596,-2.2695 8.01891,-1.2104 3.25296,1.0591 10.96927,3.7825 9.98582,6.43026 -0.98345,2.64775 -9.07801,8.24586 -11.95272,9.30496 -2.8747,1.0591 -18.23168,6.50591 -23.22458,8.85107 -4.99291,2.34515 -9.07802,5.67375 -16.71868,6.35461 -7.64066,0.68085 -16.26478,0.68085 -18.15603,-0.52955 -1.89125,-1.21041 -6.35461,-1.58866 -2.4208,-4.46336 3.9338,-2.87471 9.15366,-7.71631 10.28841,-7.94326 1.13475,-0.22695 2.19386,0.0756 2.19386,0.0756 z"
     id="path38"
     inkscape:connector-curvature="0" />
  <path
     style="fill:#000000;stroke:#000000;stroke-width:1px;stroke-linecap:butt;stroke-linejoin:miter;stroke-opacity:1"
     d="m 286.26005,268.86052 c 0,0 30.10874,-9.68322 39.94326,-11.80142 9.83452,-2.1182 32.83215,-7.11111 36.00946,-8.32151 3.1773,-1.2104 8.62411,-3.02601 9.38061,-4.69031 0.7565,-1.6643 4.08511,-1.6643 7.86761,-0.3026 3.78251,1.3617 11.65012,3.47991 11.49882,5.59811 -0.1513,2.1182 -0.6052,6.80851 -3.4799,7.26241 -2.87471,0.4539 -16.94563,2.5721 -22.24114,5.29551 -5.29551,2.7234 -16.94563,5.14421 -20.42553,5.29551 -3.47991,0.1513 -10.89362,2.5721 -17.70213,6.05201 -6.80851,3.4799 -25.11584,12.86052 -28.74704,14.07092 -3.63121,1.2104 -12.86052,0.3026 -16.49173,-0.7565 -3.6312,-1.0591 -8.62411,-2.11821 -9.38061,-4.99291 -0.75651,-2.8747 0.9078,-7.56501 3.4799,-9.07801 2.57211,-1.51301 10.28842,-3.63121 10.28842,-3.63121 z"
     id="path42"
     inkscape:connector-curvature="0" />
  <path
     style="fill:#000000;stroke:#000000;stroke-width:1px;stroke-linecap:butt;stroke-linejoin:miter;stroke-opacity:1"
     d="m 262.80851,81.248226 c 0,0 0.9078,11.650119 7.11111,16.794327 6.20331,5.144207 20.57683,14.676127 21.93854,17.096927 1.3617,2.4208 -5.14421,14.97872 -6.35461,20.27423 -1.21041,5.29551 -2.72341,16.49173 -3.32861,23.14894 -0.6052,6.65721 -1.9669,11.95272 -2.5721,27.99054 -0.6052,16.03783 -1.0128,76.81269 0.27103,87.93917 1.28382,11.12648 2.56765,41.0824 1.28382,51.353 -1.28382,10.2706 -3.42353,49.64124 -5.56324,62.47949 -2.13971,12.83825 -4.27942,21.71804 -4.06545,23.32282 0.21398,1.60478 -4.81434,11.98237 6.95406,5.45626 11.76839,-6.52611 52.71316,-28.71622 61.63987,-35.37343 8.92672,-6.65721 19.66903,-15.88653 22.39244,-18.76123 2.7234,-2.87471 7.44022,-7.27497 9.25898,-8.45181 1.81875,-1.17684 9.30773,-5.99119 4.27941,2.03272 -5.02831,8.02391 -17.86656,24.82062 -22.57392,29.20702 -4.70736,4.3864 -17.33164,15.94083 -25.78349,23.42981 -8.45185,7.48898 -45.14785,32.41658 -52.20889,36.16107 -7.06103,3.74449 -14.55001,10.59156 -22.89488,7.70295 -8.34486,-2.8886 -19.25737,-12.51729 -18.40149,-14.55002 0.85588,-2.03272 10.48457,-8.55883 14.01509,-10.16361 3.53052,-1.60478 10.05663,-2.56765 12.62428,-12.62428 2.56765,-10.05663 9.62869,-54.56257 10.05663,-69.96847 0.42794,-15.4059 1.06986,-59.48389 0.64191,-69.32655 -0.42794,-9.84266 -3.42353,-49.42727 -2.56765,-59.69787 0.85589,-10.2706 -1.06985,-34.87725 -0.21397,-47.28756 0.85589,-12.4103 3.44175,-21.99059 3.29045,-25.1679 -0.1513,-3.1773 2.2695,-7.41371 -4.23641,-18.45862 -6.50591,-11.04492 -12.48227,-23.22459 -12.40662,-30.562652 0.0756,-7.338061 0.7565,-16.416076 2.4208,-18.761229 1.66431,-2.345154 4.00946,-2.572104 4.23641,-0.453901 0.22695,2.118203 0.7565,5.219858 0.7565,5.219858 z"
     id="path44"
     inkscape:connector-curvature="0" />
  <path
     style="fill:#000000;stroke:#000000;stroke-width:1px;stroke-linecap:butt;stroke-linejoin:miter;stroke-opacity:1"
     d="m 300.30808,341.03729 c 0,0 15.83385,-6.09817 25.89048,-13.37317 10.05663,-7.27501 45.84872,-29.60265 58.55794,-44.27878 12.70922,-14.67612 22.54374,-23.90543 23.14894,-28.14184 0.6052,-4.23641 -0.7565,-12.10402 5.74941,-8.92672 6.50591,3.17731 13.31442,16.18913 14.52482,19.66904 1.2104,3.4799 2.2695,10.13711 -2.1182,13.01182 -4.38771,2.8747 -81.09693,55.52718 -90.78015,59.46099 -9.68321,3.9338 -22.39243,8.17021 -30.56264,8.62411 -8.17022,0.4539 -13.08747,0.0756 -13.99528,-1.58865 -0.9078,-1.6643 0.22696,-3.40426 2.34516,-3.40426 2.1182,0 7.23952,-1.05254 7.23952,-1.05254 z"
     id="path46"
     inkscape:connector-curvature="0" />
  <path
     style="fill:#000000;stroke:#000000;stroke-width:1px;stroke-linecap:butt;stroke-linejoin:miter;stroke-opacity:1"
     d="m 377.87252,327.55713 c 0,0 36.80298,13.80112 40.22651,15.4059 3.42354,1.60478 48.14344,14.87098 59.37691,27.1743 11.23347,12.30332 15.29892,15.29891 16.36877,23.96473 1.06986,8.66582 2.88861,14.12208 -0.53492,13.69414 -3.42354,-0.42794 -24.07172,-10.05663 -29.84894,-14.01509 -5.77721,-3.95846 -54.9905,-38.08681 -65.36809,-45.04087 -10.37759,-6.95405 -20.86216,-14.87097 -22.14598,-16.58274 -1.28383,-1.71176 -2.80257,-4.44119 -2.72692,-4.89509 0.0756,-0.4539 2.4208,-0.18912 2.98818,-0.0378 0.56737,0.1513 1.66448,0.33254 1.66448,0.33254 z"
     id="path48"
     inkscape:connector-curvature="0" />
</svg>
