<?xml version="1.0" encoding="UTF-8" standalone="no"?>
<!-- Created with Inkscape (http://www.inkscape.org/) -->

<svg
 xmlns:dc="http://purl.org/dc/elements/1.1/"
 xmlns:cc="http://creativecommons.org/ns#"
 xmlns:rdf="http://www.w3.org/1999/02/22-rdf-syntax-ns#"
 xmlns:svg="http://www.w3.org/2000/svg"
 xmlns="http://www.w3.org/2000/svg"
 xmlns:sodipodi="http://sodipodi.sourceforge.net/DTD/sodipodi-0.dtd"
 xmlns:inkscape="http://www.inkscape.org/namespaces/inkscape"
 width="512"
 height="512"
 viewBox="0 0 512 512"
 version="1.1"
 id="svg8"
 sodipodi:docname="#扇.svg"
 inkscape:version="0.92.4 (5da689c313, 2019-01-14)">
<defs
 id="defs2">
<clipPath
 clipPathUnits="userSpaceOnUse"
 id="clipPath3735">
<rect
 style="fill:#ffffff"
 id="rect3737"
 width="156.48872"
 height="156.48872"
 x="571.17188"
 y="-524.34491" />
</clipPath>
</defs>
<sodipodi:namedview
 id="base"
 pagecolor="#ffffff"
 bordercolor="#666666"
 borderopacity="1.0"
 inkscape:pageopacity="0.0"
 inkscape:pageshadow="2"
 inkscape:zoom="0.7"
 inkscape:cx="28.841901"
 inkscape:cy="297.59637"
 inkscape:document-units="px"
 inkscape:current-layer="layer1"
 showgrid="false"
 units="px"
 inkscape:window-width="1366"
 inkscape:window-height="705"
 inkscape:window-x="-8"
 inkscape:window-y="-8"
 inkscape:window-maximized="1" />
<metadata
 id="metadata5">
<rdf:RDF>
<cc:Work
 rdf:about="">
<dc:format>image/svg+xml</dc:format>
<dc:type
 rdf:resource="http://purl.org/dc/dcmitype/StillImage" />
<dc:title />
</cc:Work>
</rdf:RDF>
</metadata>
<g
 inkscape:label="圖層 1"
 inkscape:groupmode="layer"
 id="layer1"
 transform="translate(0,-161.53331)" />
<path
 style="fill:#000000;stroke:#000000;stroke-width:1px;stroke-linecap:butt;stroke-linejoin:miter;stroke-opacity:1"
 d="m 166.29636,84.074127 c 2.12848,-4.994844 7.18739,-0.869402 16.16331,-2.014366 8.97592,-1.144965 19.74036,-2.565492 26.89445,-3.667742 17.4876,-2.69436 34.92811,-5.732299 52.27539,-9.217642 18.5984,-3.736713 36.95292,-8.610584 55.51335,-12.531521 15.07645,-3.184938 30.0914,-6.830853 45.35714,-8.928571 7.97426,-1.095771 16.48383,-4.582572 24.07275,-1.899686 4.1544,1.468692 7.66918,5.12883 9.59645,9.091373 1.09086,2.242846 2.17744,5.444593 0.69448,7.449875 -2.83694,3.836154 -14.01586,2.904189 -14.01586,2.904189 0,0 -15.66881,1.396405 -23.47282,2.364963 -8.09079,1.00415 -24.19643,3.571428 -24.19643,3.571428 0,0 -27.91697,2.600148 -41.72926,4.922749 -9.3058,1.564814 -18.46454,3.91147 -27.65292,6.060915 -8.65766,2.025292 -16.92006,1.38896 -25.88516,6.439723 -8.9651,5.050762 -11.61675,9.217642 -23.86485,7.071068 -12.2481,-2.146575 -11.25409,-1.999764 -16.92006,-1.767767 -4.322,0.176967 -12.75318,2.399112 -12.75318,2.399112 0,0 -8.31558,-1.124076 -11.86929,-3.156727 -2.20029,-1.25852 -3.74593,-3.431862 -5.41041,-5.343569 -1.02362,-1.175655 -3.40818,-2.313748 -2.79708,-3.747804 z"
 id="path4198"
 inkscape:connector-curvature="0"
 sodipodi:nodetypes="assaasasacscasssscaaa" />
<path
 style="fill:#000000;stroke:#000000;stroke-width:1px;stroke-linecap:butt;stroke-linejoin:miter;stroke-opacity:1"
 d="m 170.44643,101.19643 c 2.43798,-1.13477 4.89802,2.26942 7.14286,3.75 3.42623,2.25976 8.21429,5.17857 9.55357,7.76785 1.33929,2.58929 4.91265,4.21938 6.69643,6.875 2.24443,3.34142 6.69642,7.58929 4.82142,11.07143 -1.875,3.48215 -3.41281,7.70716 -4.375,11.78572 -0.82484,3.49634 -0.26785,5.89285 -1.16071,10.71428 -0.89286,4.82143 -1.83921,11.5703 -2.94643,17.32143 -1.29154,6.70855 -3.36099,13.27137 -4.3105,20.03681 -1.92305,13.70215 -0.89061,27.70914 -2.77792,41.41626 -1.45475,10.56555 -2.02031,18.68782 -6.56599,31.31473 -4.54569,12.6269 -5.95027,20.21158 -7.82868,30.55711 -2.22369,12.24722 -2.77792,31.56727 -4.04061,37.12311 -1.2627,5.55584 -17.1726,44.44671 -17.1726,44.44671 0,0 -15.15229,27.77919 -21.2132,36.36549 -6.06092,8.5863 -18.975,23.56659 -29.041887,34.85026 -11.848862,13.28104 -23.04998,27.40617 -36.87004,38.62167 -6.57968,5.33966 -17.383251,12.03609 -26.541903,17.3976 -4.579325,2.68075 -7.830329,4.49949 -11.770686,6.70462 -1.189854,0.66587 -2.387581,1.3176 -3.584572,1.97056 -0.438265,0.23907 -1.083288,1.00626 -1.317125,0.71293 -0.233837,-0.29333 0.187977,-0.21357 0.497093,-0.56574 0.309116,-0.35218 0.905349,-1.03129 1.357099,-1.54774 1.498424,-1.71304 2.732504,-3.12381 4.489129,-5.14449 3.51325,-4.04134 7.709679,-8.90742 10.442394,-12.20632 16.011594,-19.32903 46.875,-58.92857 46.875,-58.92857 0,0 24.117778,-29.74587 34.910718,-45.53571 7.38513,-10.80429 14.67073,-21.78426 20.35714,-33.57143 8.65754,-17.94594 14.87368,-37.02157 20.71428,-56.07143 6.57624,-21.44923 12.0803,-43.28029 16.07143,-65.35714 4.73378,-26.18475 5.21921,-52.98908 9.28572,-79.28572 0.62531,-4.04363 2.50588,-7.96604 2.32143,-12.05357 -0.2569,-5.69305 -2.04434,-11.40338 -4.73215,-16.42857 -2.02195,-3.78029 -6.50015,-5.93215 -8.30357,-9.82143 -1.51076,-3.25812 -2.67857,-6.96428 -1.78571,-10.625 0.89285,-3.66071 -0.32904,-3.13353 0.80357,-3.66071 z"
 id="path4200"
 inkscape:connector-curvature="0"
 sodipodi:nodetypes="sssscsssasssscssssaazzasscasasasasss" />
<path
 style="fill:#000000;stroke:#000000;stroke-width:1px;stroke-linecap:butt;stroke-linejoin:miter;stroke-opacity:1"
 d="m 194.19643,256.375 c 0,0 2.14286,-2.76786 3.92857,-3.66071 1.78571,-0.89286 3.58149,-0.18931 5.35714,0 1.54401,0.16462 3.03572,1.51785 4.55357,0.98214 1.51786,-0.53572 5.54901,-2.92952 8.48215,-4.01786 4.94836,-1.83608 10.16516,-2.84736 15.26785,-4.19643 3.74053,-0.98894 8.1716,-0.51343 11.25,-2.85714 1.33598,-1.01714 2.05255,0.10621 2.49449,-4.37634 0.44195,-4.48255 2.27285,-5.99778 2.27285,-5.99778 0,0 11.17156,-0.20815 14.78624,3.32055 2.80986,2.74302 2.85714,11.42857 2.85714,11.42857 0,0 -4.28572,8.57143 -4.73214,11.51786 -0.44643,2.94643 -1.96429,9.64285 -1.96429,9.64285 0,0 -0.71429,12.5 1.96429,19.73215 2.67857,7.23214 1.33928,24.73214 1.33928,24.73214 0,0 -0.26786,13.30357 -0.0893,19.55357 0.17857,6.25 0.47178,13.33349 0.71428,20 0.17539,4.82155 0.35714,6.07143 0.53572,14.46429 0.17857,8.39285 0,25.17857 0,25.17857 0,0 2.05357,5.26786 -0.625,14.19643 -2.67858,8.92857 -4.64286,14.375 -4.64286,14.375 0,0 -1.78572,7.14285 -8.57143,-0.26786 C 242.58929,412.71429 235,401.64286 235,401.64286 c 0,0 -6.78571,-8.21429 -9.19643,-12.23215 -2.41071,-4.01785 -5.625,-8.30357 -5.625,-8.30357 0,0 -4.55357,-8.66071 3.66072,-1.69643 8.21428,6.96429 26.60714,7.85715 26.60714,7.85715 0,0 2.85714,0.625 2.32143,-6.60715 -0.53572,-7.23214 0.31941,-15.48693 -0.0893,-23.21428 -0.21648,-4.09289 -0.97285,-8.14291 -1.25,-12.23214 -0.36044,-5.31817 -0.41379,-10.65317 -0.53571,-15.98215 -0.1668,-7.29031 0.18598,-14.59692 -0.26786,-21.875 -0.24791,-3.97571 -0.002,-8.12283 -1.33929,-11.875 -0.71063,-1.9936 -1.16699,-6.03137 -1.16699,-6.03137 0,0 -0.0657,-1.50496 -0.1894,-5.61898 -0.25254,-8.39689 0.43475,-9.5888 -0.0631,-14.20527 -0.26862,-2.49069 -2.71478,-7.00793 -2.71478,-7.00793 0,0 -0.88389,-8.01809 -13.82647,-1.89404 -12.94258,6.12405 -10.3651,6.49393 -16.191,6.58795 -1.88776,0.0305 -3.51944,-1.3731 -5.3125,-1.96428 -1.72192,-0.56773 -3.54298,-0.8366 -5.22322,-1.51786 -2.06047,-0.83543 -4.09158,-1.82158 -5.89285,-3.125 -1.68823,-1.22162 -5.28691,-2.39716 -4.50893,-4.33036 z"
 id="path5009"
 inkscape:connector-curvature="0"
 sodipodi:nodetypes="csscaasccacccsccsccccccsccccsasascsscssaaaac" />
<path
 style="fill:#000000;stroke:#000000;stroke-width:1px;stroke-linecap:butt;stroke-linejoin:miter;stroke-opacity:1"
 d="m 183.83929,297.53571 c 0.91482,-0.70798 2.20531,0.79127 3.35937,0.87054 2.49244,0.17118 4.72098,0.29017 7.4442,-0.87054 5.44643,-2.32142 12.67857,-2.94642 12.67857,-2.94642 l 6.69643,-2.67858 c 0,0 2.14285,-2.85714 7.5,0.0893 5.35714,2.94643 4.55357,4.55357 4.55357,4.55357 0,0 -9.46429,6.51786 -11.96429,9.10714 -2.5,2.58929 -10.08928,7.41072 -10.08928,7.41072 0,0 -5.44643,2.67857 -11.69643,-2.05357 -3.125,-2.36608 -4.82824,-5.38681 -6.58482,-8.51563 -0.86757,-1.54532 -1.89732,-3.22842 -1.89732,-4.96652 0,0 0,-1e-5 0,-1e-5 z"
 id="path5011"
 inkscape:connector-curvature="0"
 sodipodi:nodetypes="sacccsccccass" />
<path
 style="fill:#000000;stroke:#000000;stroke-width:1px;stroke-linecap:butt;stroke-linejoin:miter;stroke-opacity:1"
 d="m 178.92857,349.85714 c 4.44854,-2.39327 9.46944,-3.53346 14.10714,-5.53571 5.43915,-2.34827 16.07143,-7.58929 16.07143,-7.58929 0,0 6.69643,-3.66071 9.28572,-4.46428 2.58928,-0.80357 1.27293,-0.55264 1.91964,-0.80357 1.19358,-0.46312 2.33884,-1.38293 3.61607,-1.29465 1.82606,0.12622 4.86607,2.54465 4.86607,2.54465 0,0 -1.51785,3.4375 -3.75,5.71428 -2.23214,2.27679 -5.13393,5.17857 -5.13393,5.17857 0,0 -3.92857,4.01786 -6.25,5.53572 -2.32142,1.51785 -6.51785,5.80357 -6.51785,5.80357 0,0 -6.1606,5.88148 -9.64286,8.30357 -1.87003,1.3007 -5.98214,3.30357 -5.98214,3.30357 0,0 -3.21429,0.625 -7.67857,-3.125 -4.46429,-3.75 -7.94643,-7.58928 -7.94643,-7.58928 0,0 -0.98215,-3.03572 0.625,-4.28572 1.60714,-1.25 1.54539,-1.2309 2.41071,-1.69643 z"
 id="path5013"
 inkscape:connector-curvature="0"
 sodipodi:nodetypes="saccsacccccacccss" />
<path
 style="fill:#000000;stroke:#000000;stroke-width:1px;stroke-linecap:butt;stroke-linejoin:miter;stroke-opacity:1"
 d="m 301.16072,232.98214 c 0,0 13.21428,-1.33928 19.19642,-4.19643 5.98215,-2.85714 22.23215,-7.85714 22.23215,-7.85714 0,0 5.98214,-1.07143 13.125,-4.19643 7.14285,-3.125 9.46428,-4.64286 9.46428,-4.64286 0,0 6.12675,-1.74587 8.92857,-0.71428 4.42373,1.62876 7.49169,6.00868 10,10 1.62853,2.59138 3.91771,5.50944 3.03382,8.66617 -0.88388,3.15673 -6.06091,11.61675 -6.06091,11.61675 0,0 -1.89404,7.19734 -2.65165,11.49049 -0.75762,4.29315 -1.82452,11.52416 -2.65165,17.29886 -0.66151,4.61844 -1.93747,8.69559 -1.84818,13.87416 0.0893,5.17857 1.08822,11.53932 0.98215,17.32143 -0.11129,6.06705 -0.53571,13.66071 -1.69643,18.125 -1.16071,4.46428 -0.11149,7.79921 0,11.69643 0.21672,7.57575 0.0371,14.11308 1.29977,22.69937 1.26268,8.5863 3.91771,20.48127 5.3033,30.80966 0.81524,6.07694 2.38327,12.2086 1.76776,18.30901 -0.54798,5.43112 0.10723,13.26282 -4.79822,15.65737 -4.13043,2.01623 -9.02351,-2.42301 -12.87944,-4.9245 -3.89147,-2.52455 -6.0025,-6.39051 -9.8363,-9.84373 -3.4972,-3.15003 -8.52432,-5.61727 -11.25064,-9.6017 -2.72632,-3.98443 -4.67195,-13.38452 -4.67195,-13.38452 0,0 -3.40927,-8.96511 6.81852,-3.66181 10.2278,5.3033 12.50064,6.31346 12.50064,6.31346 0,0 8.71257,3.53553 8.83884,-3.283 0.12627,-6.81853 -0.25254,-13.51079 -0.25254,-13.51079 0,0 -0.12627,-13.51079 -1.01015,-20.45559 -0.88389,-6.9448 -2.14658,-26.39023 -2.14658,-26.39023 0,0 0.25254,-19.06663 -0.3788,-25.12755 -0.63135,-6.06091 -0.37881,-20.96066 -0.37881,-20.96066 0,0 -2.90419,-14.77349 -0.88389,-25.00128 2.02031,-10.22779 4.16688,-14.64721 4.16688,-14.64721 0,0 1.38896,-5.55584 -11.61675,-1.89404 -13.00571,3.6618 -24.36993,9.97526 -24.36993,9.97526 0,0 -9.21764,2.65165 -11.99556,4.29315 -2.77792,1.64149 -10.85914,0.12627 -10.85914,0.12627 0,0 -7.19734,-1.13643 -10.10153,-6.31346 -2.90419,-5.17703 -3.26256,-5.36181 -1.89403,-7.57614 0.40802,-0.66019 -0.12627,-1.26269 2.27284,-0.50508 2.39911,0.75762 4.30214,0.41559 4.30214,0.41559 z"
 id="path5015"
 inkscape:connector-curvature="0"
 sodipodi:nodetypes="cccscassccssssssaasaszcscscccccscscccsssc" />
<path
 style="fill:#000000;stroke:#000000;stroke-width:1px;stroke-linecap:butt;stroke-linejoin:miter;stroke-opacity:1"
 d="m 299.6365,285.66269 c 3.40012,-0.45161 7.07107,-3.47239 8.9651,-5.05076 1.89404,-1.57836 4.9245,-3.21986 4.9245,-3.21986 0,0 3.59867,-2.65165 7.3236,-0.75761 3.72494,1.89403 4.92507,1.71454 6.81853,3.40926 1.58759,1.42096 7.76555,1.95717 3.4724,5.36644 -4.29315,3.40926 -13.32138,7.3236 -13.32138,7.3236 0,0 -14.20527,2.39911 -17.74081,4.48255 -3.53553,2.08344 -6.81853,1.32583 -6.81853,1.32583 0,0 -3.6618,-0.1894 -3.28299,-4.79822 0.3788,-4.60883 1.89403,-7.76555 1.89403,-7.76555 0,0 1.51523,-2.02031 4.04061,-1.26269 2.52538,0.75761 2.45495,1.11569 3.72494,0.94701 z"
 id="path5017"
 inkscape:connector-curvature="0"
 sodipodi:nodetypes="scccascscccss" />
<path
 style="fill:#000000;stroke:#000000;stroke-width:1px;stroke-linecap:butt;stroke-linejoin:miter;stroke-opacity:1"
 d="m 287.76786,329.41071 c 0,0 9.73214,-2.05357 13.39286,-3.30357 3.66071,-1.25 11.96428,-3.125 11.96428,-3.125 0,0 4.28572,-2.41071 8.75,0.44643 4.46429,2.85714 7.32143,6.875 7.32143,6.875 0,0 3.30357,2.23214 -5.35714,4.73214 -8.66072,2.5 -18.66072,5 -18.66072,5 0,0 -8.39285,1.51786 -12.32143,0.17858 -3.92857,-1.33929 -6.49295,-1.4282 -8.83928,-3.57143 -0.91399,-0.83487 -1.98557,-2.09992 -1.69643,-3.30357 0.52286,-2.17657 5.44643,-3.92858 5.44643,-3.92858 z"
 id="path5019"
 inkscape:connector-curvature="0"
 sodipodi:nodetypes="cscccsccsac" />
<path
 style="fill:#000000;stroke:#000000;stroke-width:1px;stroke-linecap:butt;stroke-linejoin:miter;stroke-opacity:1"
 d="M 220.4658,134.89743 C 224.67734,135.50591 228.98319,135.87246 233.21897,135.46564 246.83591,134.15783 266.04893,127.13188 273.11999,125.86919 280.19106,124.6065 297.61619,120.18708 302.03561,119.05066 306.45503,117.91424 312.89475,117.78797 319.2082,111.47452 325.52166,105.16106 331.20377,103.14076 331.20377,103.14076 331.20377,103.14076 341.59849,103.30765 345.09336,106.55002 349.86482,110.97676 361.12954,117.91424 351.15428,125.11157 341.17902,132.30891 332.42099,135.32542 328.42585,144.43074 326.27643,149.32946 328.44703,155.15229 329.05719,160.46691 329.34226,162.94989 329.93144,166.68915 330.46782,167.8309 331.0295,169.02651 334.94183,175.41605 332.8759,178.36771 331.59579,180.19665 328.41672,179.6539 326.23069,179.20115 322.30244,178.38756 318.54624,174.63067 315.86656,173.08376 313.18688,171.53684 312.59823,171.0121 311.42997,169.51682 310.7257,168.61541 310.34965,167.48764 309.99056,166.40156 309.08102,163.65065 310.71429,161.46428 308.21429,157.89286 305.71429,154.32143 305.53571,152 306.51786,147.17857 307.5,142.35714 310.35714,138.25 307.85714,135.83928 305.35714,133.42857 301.84621,134.07668 295.40649,136.47579 288.96676,138.8749 279.27746,140.2234 271.35223,142.59984 264.7605,144.57642 258.46665,147.4861 251.84366,149.35524 244.87532,151.32185 239.21675,159.26736 230.63045,154.02719 222.04416,148.78702 217.68871,146.18691 214.72055,139.69565 213.85399,137.80051 212.96645,134.74635 214.59428,133.44533 216.16921,132.18659 218.47038,134.60913 220.4658,134.89743 Z"
 id="path1392"
 inkscape:connector-curvature="0"
 sodipodi:nodetypes="aassscasaasaazaacccsaasaaa" />
<path
 style="fill:#000000;stroke:#000000;stroke-width:1px;stroke-linecap:butt;stroke-linejoin:miter;stroke-opacity:1"
 d="M 202.78812,181.80639 C 202.78812,181.80639 208.72277,185.847 221.72848,183.57415 234.7342,181.30131 248.6238,179.78608 251.90679,179.02847 255.18979,178.27085 270.97342,174.23024 279.55972,173.34636 288.14601,172.46248 298.87888,171.19978 305.19234,170.82098 311.50579,170.44217 321.7725,168.77887 330,167.35714 333.77309,166.70514 336.25,163.25 341.25,165.03571 346.25,166.82143 346.46279,169.04192 346.60714,171.95536 346.73749,174.58635 344.82143,177.58036 342.41072,178.65178 340,179.72321 336.74107,181.10714 333.70536,181.01786 330.66964,180.92857 325.57178,179.8381 321.48105,179.91235 310.47263,180.11217 294.90141,182.7534 288.71422,184.07923 282.52704,185.40505 275.01403,186.16267 271.6679,187.74103 268.32177,189.3194 251.02291,191.84478 248.75006,191.27657 246.47722,190.70836 236.73267,192.35406 231.00926,194.11762 228.45412,194.90494 227.03179,194.24389 223.74879,197.52689 220.46579,200.80989 214.59428,201.18869 210.30113,198.85271 206.00799,196.51673 200.38902,192.53926 198.24244,190.14014 196.09587,187.74103 193.57048,184.83684 194.3281,182.69027 195.08571,180.5437 195.65392,179.40727 197.42169,179.91235 199.18946,180.41743 202.78812,181.80639 202.78812,181.80639 Z"
 id="path1394"
 inkscape:connector-curvature="0"
 sodipodi:nodetypes="cscscacaccacccsssscsc" />
</svg>
