
<svg version="1.1" baseProfile="full" xmlns="http://www.w3.org/2000/svg" width="512" height="512" viewBox="0,0,512,512">

  <rect width="512" height="512" stroke="red" fill="white"></rect>

  <text x="2" y="12" font-size="12" text-anchor="start" fill="red">0</text>
  <path d="M256  64 H0 H512" stroke="lightgray" fill="white"></path>
  <text x="2" y="64" font-size="12" text-anchor="start" fill="red">64</text>
  <path d="M256 128 H0 H512" stroke="lightgray" fill="white"></path>
  <text x="2" y="128" font-size="12" text-anchor="start" fill="red">128</text>
  <path d="M256 192 H0 H512" stroke="lightgray" fill="white"></path>
  <text x="2" y="192" font-size="12" text-anchor="start" fill="red">192</text>
  <path d="M256 256 H0 H512" stroke="lightgray" fill="white"></path>
  <text x="2" y="256" font-size="12" text-anchor="start" fill="red">256</text>
  <path d="M256 320 H0 H512" stroke="lightgray" fill="white"></path>
  <text x="2" y="320" font-size="12" text-anchor="start" fill="red">320</text>
  <path d="M256 384 H0 H512" stroke="lightgray" fill="white"></path>
  <text x="2" y="384" font-size="12" text-anchor="start" fill="red">384</text>
  <path d="M256 448 H0 H512" stroke="lightgray" fill="white"></path>
  <text x="2" y="448" font-size="12" text-anchor="start" fill="red">448</text>
  <text x="2" y="512" font-size="12" text-anchor="start" fill="red">512</text>

  <path d="M64  0 V512" stroke="lightgray" fill="white"></path>
  <text x="64" y="12" font-size="12" text-anchor="start" fill="red">64</text>
  <path d="M128  0 V512" stroke="lightgray" fill="white"></path>
  <text x="128" y="12" font-size="12" text-anchor="start" fill="red">128</text>
  <path d="M195  0 V512" stroke="lightgray" fill="white"></path>
  <text x="192" y="12" font-size="12" text-anchor="start" fill="red">192</text>
  <path d="M256  0 V512" stroke="lightgray" fill="white"></path>
  <text x="256" y="12" font-size="12" text-anchor="start" fill="red">256</text>
  <path d="M320  0 V512" stroke="lightgray" fill="white"></path>
  <text x="320" y="12" font-size="12" text-anchor="start" fill="red">320</text>
  <path d="M384  0 V512" stroke="lightgray" fill="white"></path>
  <text x="384" y="12" font-size="12" text-anchor="start" fill="red">384</text>
  <path d="M448  0 V512" stroke="lightgray" fill="white"></path>
  <text x="448" y="12" font-size="12" text-anchor="start" fill="red">448</text>
  <text x="512" y="12" font-size="12" text-anchor="start" fill="red">512</text>
  <defs>
    <path id="a1" d="M0 50 C150 150 100 -50 300 50" stroke="#000" fill="none" transform="translate(175,215)"></path>
  </defs>
<ellipse fill="#FFFFFF" stroke="#000000" stroke-width="5" cx="250" cy="256" rx="120" ry="90"/>
<path d="M145 256 Q100 250, 80 270" stroke="black" fill="none"/>
<path d="M145 280 Q100 270, 80 294" stroke="black" fill="none"/>
<path d="M350 280 Q400 270, 420 294" stroke="black" fill="none"/>
<path d="M350 256 Q400 250, 420 270" stroke="black" fill="none"/>
<ellipse fill="#000000" stroke="#000000" stroke-width="5" cx="200" cy="250" rx="4" ry="8"/>
<ellipse fill="#000000" stroke="#000000" stroke-width="5" cx="295" cy="250" rx="4" ry="8"/>
<ellipse fill="#FFFF00" stroke="#000000" stroke-width="5" cx="248" cy="275" rx="10" ry="6"/>
<polygon fill="#FFFFFF" stroke="#000000" stroke-width="5" points="192,180 140,220 133,148"/>
<polygon fill="#FFFFFF" stroke="#000000" stroke-width="5" points="320,180 360,220 380,148"/>
<polygon fill="#FF4343" stroke="#000000" stroke-width="5" points="340,200 270,220 275,160"/>
<polygon fill="#FF4343" stroke="#000000" stroke-width="5" points="320,200 390,180 382,235"/>
<circle fill="#FF4343" stroke="#000000" stroke-width="4" cx="325" cy="200" r="20"/>

  
</svg>
